<svg width="24" height="24" fill="none" xmlns="http://www.w3.org/2000/svg"><path fill-rule="evenodd" clip-rule="evenodd" d="M13.057 17.48V7.053c0-.84-.354-1.115-1.15-1.115h-2.39v1.15h.266c.442 0 .619.169.619.682v9.708h2.655Zm1.416 0h2.566V9.611c0-.797-.354-1.115-1.15-1.115h-1.416v8.982Zm-5.487 0V8.496H7.57c-.796 0-1.15.318-1.15 1.115v7.867h2.566Zm11.062-5.24c0 4.876-3.54 8.434-8.319 8.434-4.778 0-8.318-3.558-8.318-8.434 0-4.876 3.54-8.433 8.318-8.433 4.78 0 8.319 3.557 8.319 8.433Zm1.681 0c0-5.708-4.247-9.991-10-9.991-5.663 0-10 4.283-10 9.991 0 5.726 4.337 10.009 10 10.009 5.753 0 10-4.283 10-10.009Z" fill="#004A93"/></svg>