<svg width="24" height="24" fill="none" xmlns="http://www.w3.org/2000/svg"><path fill-rule="evenodd" clip-rule="evenodd" d="m22 6.801-3.558 1.965c-.282.141-.581.103-.782-.068-.31-.355-.458-.86-.58-1.27 0 0 .444-.113.796-.287C18.496 6.813 22 5 22 5v1.801Z" fill="#ED1B2F"/><path fill-rule="evenodd" clip-rule="evenodd" d="m13.88 8.357-1.395 2.974c-.157.334-.323.86-.741 1.106-.85.6-2.938.914-2.938.914l-.145.02s2.65-5.057 3.93-7.418h2.832l4.547 10.201h-2.755c-.488 0-.454-.41-.97-1.725-.108-.3-2.365-6.072-2.365-6.072Z" fill="#006A4E"/><path fill-rule="evenodd" clip-rule="evenodd" d="M10.504 6.392a9.3 9.3 0 0 1 .377 1.46c-2.655.055-4.878 1.433-6.563 3.439-.462.615-1.01 1.337-.62 2.156.563 1.129 2.803.907 4.245.71 1.49-.28 2.601-.601 3.841-1.12.35-.136 1.038-.41 1.038-.41l.647-.313 1.294-.669.35-.177 2.26-1.225L22 7.668V9.94l-3.706 2.251-2.399 1.337s-3.45 1.679-5.283 2.224c-.278.086-.387.12-.7.192-1.766.354-3.842.627-5.486-.164-.876-.41-1.63-1.264-2.018-2.129-.162-.354-.245-.723-.312-1.105 0-.136-.025-.333-.025-.45 0-1.972 1.479-3.466 2.88-4.572.297-.231.797-.56.994-.666.22-.12.59-.272.927-.435.657-.29 1.457-.572 2.244-.632.57-.025 1.172.028 1.388.6Z" fill="#009597"/><path fill-rule="evenodd" clip-rule="evenodd" d="M20.558 17.377V19H2v-1.623h18.558Z" fill="#006A4E"/></svg>