<svg width="24" height="24" fill="none" xmlns="http://www.w3.org/2000/svg"><path d="M20.198 21.964H3.802c-.991 0-1.802-.81-1.802-1.802V3.802C2 2.812 2.81 2 3.802 2h16.396C21.188 2 22 2.811 22 3.802v16.342c0 .991-.811 1.82-1.802 1.82Z" fill="#EE2941"/><path d="M22 11.892c-1.982-.775-4.306-1.207-6.829-1.225-1.64-1.892-2.883-5.063-2.144-8.667h-2.126c-.595 3.424.324 7.081 2.396 9.694C11.55 13.982 7.946 17.298 2 17.099v2.072h.415c6.9 0 10.972-4.09 12.702-6.396 2.613 0 4.901.468 6.883 1.37v-2.253Z" fill="#EE2133"/><path d="M22 18v-3.423c-3.424-3.297-7.64-4.036-10.144-4.09C11.009 9.334 9.17 6.523 10 2.018H7.856c-.775 5.045 1.171 8.451 2.198 9.874-1.55 2.072-4.27 4.523-8.054 5.172v2.09c5.225-.775 8.63-4.36 10.09-6.469 2.198.09 6.667.847 9.91 5.315Z" fill="#ACB2B3"/><path d="M22 17.694v-3.171c-3.604-3.352-7.838-4.036-10.378-4.09C10.757 9.26 9.082 6.505 9.784 2H7.676c-.685 5.045 1.243 8.252 2.27 9.658-1.55 2.09-4.162 4.504-7.946 5.207v2.108c5.045-.793 8.36-4.216 9.928-6.432 2.973.126 7.189 1.08 10.072 5.153Z" fill="#fff"/></svg>