<svg width="24" height="24" fill="none" xmlns="http://www.w3.org/2000/svg"><g opacity=".48"><path d="m9.954 19.489 8.482-.003-.608.966-8.481.001.607-.964Z" fill="#fff"/><path d="M10.313 15.893c-.02-.032.142-.03.104-.095-.051-.15-.13-.278-.136-.421-.039-.065.137-.174.099-.237-.055-.151-.275-.537-.263-.307.03.347.089.573.13.883.074.25.161.49.23.745.012.072.005.14-.001.209.02-.09.035-.183.056-.285.04-.135-.174-.284-.22-.492Zm.41-2.641.016.082.027-.332c-.099.06-.07.155-.043.25Zm4.324 1.185.015.07.03-.282c-.097.048-.072.13-.045.212Zm-2.028-1.017.016.067.025-.271c-.1.048-.071.125-.041.204Z" fill="#8F9CA0"/><path d="M10.742 15.152a16.43 16.43 0 0 1-.005-1.084c-.032-.027-.07-.045-.052-.081a.251.251 0 0 0 .057-.082l.007-.153-.014-.054c-.019-.029-.01-.127-.022-.085l.023.085.014.025.022-.347-.013-.073c-.022-.083-.045-.167.034-.22l.005-.061-.015.012.015-.023.06-.785c.105-1.14.093-2.192.147-3.38.03-.649.09-1.259.137-1.888.087-1.253-.34-2.328-.01-3.518.12-.444-.074-.656-.001-1.014-.186-.542-.905-.428-.951-.389-.654.287-.533 3.479-.594 4.331-.011.216.038.434.042.676-.132 1.298.142 2.542.092 3.948.002.373.151.704.233 1.02.028.23-.053.476-.052.664.003.296.06.55.134.794-.032-.273-.076-.472-.101-.775-.012-.203.208.14.254.275.036.056-.143.147-.106.204.001.125.074.24.12.373.036.058-.126.052-.107.081.036.181.247.321.206.438a5.47 5.47 0 0 1-.07.247.52.52 0 0 0-.007.15l.043.1c.049-.027.049-.027 0 0 .102.24.186.514.271.77l.014-.004a.628.628 0 0 1 .083-.456c-.034.068-.08.06-.09-.015l.08-.06c.048.132.095.264-.016.394l.057.084c-.02.043-.07.042-.114.053l.017.088c.077-.065.173-.265.173-.265Zm4.305.815c-.01-.324-.005-.629.009-.926-.032-.023-.005-.115.007-.138l.008-.13-.012-.047v-.001c-.02-.024-.043-.018-.068-.003l-.06.045c.014-.008.037-.03.06-.045l.046-.069a.263.263 0 0 1-.005-.124c.019.048.018.09.005.124l.022.073.014.022.027-.295-.013-.063c-.021-.072-.042-.144.036-.186l.006-.053-.014.01.014-.02.071-.667c.118-.97.119-1.868.188-2.88.036-.553.104-1.072.158-1.607.103-1.067-.31-1.995.034-3.002.125-.375.036-1.058.112-1.361-.18-.468-.898-.388-.945-.356-.656.23-.677 3.453-.748 4.178-.014.185.033.372.034.578-.148 1.104.11 2.171.043 3.37-.002.319.143.604.22.875.026.197-.058.405-.059.566 0 .252.054.276.032.017-.008-.174.107.362.143.412 0 .107.071.206.116.32.035.05.135.347.092.445a3.894 3.894 0 0 1-.073.21c-.008.042-.015.084-.008.129l.041.085c.05-.022.11-.03.171-.037-.008.04-.044.1-.053.14.01-.04.045-.1.053-.14a.594.594 0 0 0-.17.037c.099.206.18.443.26.662l.015-.002c-.023-.129.096-.067.114-.042-.02.036-.071.034-.114.042l.016.076c.078-.054.175-.222.175-.222Zm-2.053-.948c-.002-.31.009-.603.027-.887-.03-.022-.067-.037-.048-.067a.21.21 0 0 0 .058-.067l.01-.124-.012-.044v-.001c-.019-.024-.127.04-.127.04.014-.007.036-.028.059-.043l.046-.066a.24.24 0 0 1-.007-.12c.02.045.021.084.008.119l.022.07.015.02.02-.284-.014-.06c-.023-.068-.046-.136.032-.18l.004-.05-.014.01.015-.02.017-.214c-.031-.046-.07-.095-.095-.142l.08-.05a.158.158 0 0 1-.082-.079c-.047.04-.1.075-.133.108-.08.049.165.107.013.165.152-.059-.093-.116-.013-.165.032-.033.086-.069.133-.108-.03-.067-.002-.155.076-.227.07.088.004.162-.075.227.013.033.041.06.082.08l-.08.05c.023.046.063.095.094.14l.035-.428c.08-.934.069-1.795.098-2.765.022-.527.069-1.033.141-1.532.153-.996-.126-1.884.203-2.904.114-.393-.016-1.1-.06-1.468-.305-.477-.98-.17-1.017-.146-.568.343-.223.557-.525 1.193.167-.43.404.286.028.705-.578.604-.011 1.389-.147 2.102-.031.177.005.364.002.574-.162 1.098.16 2.102.118 3.252.007.303.162.569.25.825.03.186-.046.388-.044.54.006.24.066.445.142.642-.034-.22.042.104.061.128.035.148.12.557.12.557a.95.95 0 0 0 .028.203c.05-.022.05-.022 0 0 .094.195.177.42.244.63l.015-.002c-.015-.122.043-.007 0 0l.011.073a.91.91 0 0 0 .187-.211Z" fill="#8F9CA0"/><mask id="a" style="mask-type:alpha" maskUnits="userSpaceOnUse" x="2" y="3" width="20" height="20"><path d="M2 3.836V22.63h20V3.835H2Z" fill="#fff"/></mask><g mask="url(#a)"><path d="M8.143 14.249c0-.286-.014-.554-.035-.815.029-.02.062-.035.044-.062a.205.205 0 0 1-.055-.061l-.01-.115.01-.04.001-.001c.017-.022.117.037.117.037-.012-.007-.033-.027-.054-.04l-.045-.06a.21.21 0 0 0 .007-.11.149.149 0 0 0-.007.11l-.019.064-.012.018-.022-.26.012-.055c.02-.064.04-.125-.031-.165l-.005-.046.014.008-.014-.017-.019-.197c.029-.043.064-.088.085-.132l-.074-.044a.15.15 0 0 0 .075-.074c.044.036.093.068.123.098.075.045-.149.1-.01.152-.139-.053.085-.107.01-.152-.03-.03-.08-.062-.123-.098.027-.063 0-.143-.072-.208-.063.081-.003.15.072.208a.15.15 0 0 1-.075.074l.074.044c-.021.044-.056.089-.085.132l-.037-.393c-.084-.858-.084-1.65-.121-2.541A14.117 14.117 0 0 0 7.714 8.1c-.152-.914.094-1.732-.22-2.667-.11-.36.002-1.011.038-1.35.275-.44.898-.165.933-.143.527.31.41 1.089.478 1.739.04.841.027 1.277.16 1.931.03.163 0 .334.004.528.162 1.008-.121 1.933-.07 2.99-.003.279-.143.524-.22.76-.026.171.046.356.046.496-.003.22-.055.41-.122.591.028-.202-.039.097-.055.118-.03.137-.104.513-.104.513a.844.844 0 0 1-.025.187c-.045-.02-.045-.02 0 0-.082.18-.156.389-.216.582l-.014-.002c.014-.113-.04-.006 0 0l-.01.067a.865.865 0 0 1-.174-.192Z" fill="#8F9CA0"/></g><mask id="b" style="mask-type:alpha" maskUnits="userSpaceOnUse" x="2" y="3" width="20" height="20"><path d="M2 3.836V22.63h20V3.835H2Z" fill="#fff"/></mask><g mask="url(#b)"><path d="M3.973 21.595c.268-.15.294-.384.643-.563.457-.24 1.045-.35 1.638-.59.31-.16.633-.266.954-.37l.345-.121c2.526-.88 3.907-.37 6.517-.086 2.61.368 4.747.813 6.45 1.942 1.768 1.096 1.46.782 1.46.782-.222-.854-.198-.361-1.172-.997-.378-.242-.679-.414-.898-.56-.191-.115.289.094.898.56.296.17.628.394 1.014.656-.37-.467-1.637-1.49-1.926-1.635-1.29-.599-2.036-.897-3.314-1.403-.468-.187 1.297.368 3.309 1.147l-.141-.097c-.99-.438-2.201-.946-1.653-.805.324.102.67.271.982.397.254.104.455.267.67.408l.446.217.152.04-.003-.008c-.147-.665-3.438-2.274-4.01-2.375-.54-.105-1.159.074-1.77-.053-.206-.042-.353-.169-.536-.134-.032.046-.124.063-.215.082-.407-.082-.79-.345-1.156-.257-.214.007-.762-.89-.856-.746-.283.547-.056.131-.68.047-.08-.014-.338.215-.486.19-.52-.157-.723.083-1.216.214-.744.299-1.01.006-1.562.512-.07.06-.981.562-.97.573-.785.2-1.097.635-1.864.49-.48.575-.111.26-2.19.92-2.08.657.21 1.578 1.14 1.623Z" fill="#004D8D"/></g></g></svg>