<svg width="48" height="48" fill="none" xmlns="http://www.w3.org/2000/svg"><path d="M37.965 19.237c.183-.706.309-1.435.309-2.2 0-4.99-3.978-9.037-8.885-9.037a8.73 8.73 0 0 0-5.143 1.677A8.74 8.74 0 0 0 19.1 8c-4.907 0-8.885 4.046-8.885 9.038 0 .765.127 1.493.31 2.199-.45.457-.861.938-1.234 1.439C7.836 22.634 7 24.904 7 27.326c0 7.377 7.72 13.357 17.245 13.357 9.524 0 17.245-5.98 17.245-13.357 0-3.04-1.315-5.843-3.525-8.089Zm-2.701 10.36c-1.507 1.65-5.048 4.614-11.053 4.614-6.005 0-9.602-2.964-11.077-4.616a1.065 1.065 0 0 1 .347-1.677c1.928-.893 6.008-2.475 10.73-2.475s8.78 1.573 10.714 2.468c.655.303.825 1.152.339 1.685Z" fill="#0028E2"/></svg>