<svg width="24" height="24" fill="none" xmlns="http://www.w3.org/2000/svg"><path d="M3.761 2.008 20.508 2s.7.008.712.676c.008.46 0 15.747 0 15.747s.1.788-.72.824c-.82.032-13.402.032-13.402.032l-.008 2.48s.072.332-.172.216L4.845 19.3l-1.156-.02s-.672-.068-.672-.696L3.001 2.608s-.06-.592.76-.6Z" fill="url(#a)"/><path d="m4.821 6.08.676-.007v1.732h2.069l-.008-1.716h.676l.008 4.108-.684.008v-1.78l-2.06.008.015 1.764-.7.008.008-4.124Zm5.425.96c-1.632.017-1.532 1.593-1.532 1.593s-.032 1.624 1.544 1.632c0 0 .88.028 1.296-.552l-.376-.348s-.4.36-.852.352c-.452-.008-.94-.344-.94-.824l2.32-.008s.172-1.86-1.46-1.844Zm-.048.537c.752.004.832.848.832.848l-1.648.004s.084-.856.816-.852Zm1.984-1.644h.673l-.004 4.256h-.66l-.009-4.256Zm1.365.012h.672L14.21 10.2h-.66l-.004-4.256Zm2.78 1.068a1.628 1.628 0 1 0 0 3.256 1.628 1.628 0 1 0 0-3.256Zm-.052.58h.052c.56 0 1.008.468 1.008 1.052 0 .58-.452 1.052-1.008 1.052s-1.012-.472-1.012-1.052c0-.564.424-1.024.96-1.052ZM4.83 11.002v3.52c0 .104.816.816 1.62.804.805-.012 1.657-.36 1.68-1.54.025-1.176-.687-1.728-1.46-1.728-.772 0-1.168.36-1.168.36l-.024-1.42-.648.004Zm1.757 1.652c.572.012.964.572.956 1.048-.004.512-.384 1.02-.992 1.02-.64 0-1.053-.348-1.053-.348l-.008-1.412s.472-.324 1.097-.308Zm3.28-.592c-.668 0-1.18.272-1.18.272l.18.52s.356-.2.932-.2c.792 0 .736.724.736.724-.272-.148-.864-.14-.864-.14-1.22.016-1.256.932-1.248 1.104.008.148-.008.992 1.388.948 1.392-.04 1.376-.968 1.376-.968s.032-.62-.024-1.252c-.056-.636-.628-1.008-1.296-1.008Zm.04 1.68c.208.004.428.004.552.052.092.036.12.088.116.204-.004.208.032.304-.08.456-.096.2-.48.348-.752.352-.412.008-.752-.196-.752-.528 0-.328.348-.52.76-.536h.156Zm1.78-1.608h.665v.512s.332-.608 1.06-.596c.728.012 1.02.6 1.028.888.004.284.012 2.264.012 2.264H13.8l.004-2.024s-.14-.532-.704-.512c-.569.016-.74.472-.74.564l-.005 1.972h-.66l-.008-3.068Zm3.349-1.14h.664l.004 2.56 1.328-1.428h.825l-1.22 1.284 1.312 1.824-.829.004-.944-1.372-.484.496.004.868-.664-.004.004-4.233Zm3.7 3.184-.011-3.197h.652l.004 3.197h-.644Zm0 1.052-.011-.588h.652l.004.588h-.644Z" fill="#1B83AA"/><path d="m4.821 6.173.676-.008v1.732h2.069l-.008-1.716h.676l.008 4.108-.684.008v-1.78l-2.06.008.015 1.764-.7.008.008-4.124Zm5.425.956C8.614 7.145 8.714 8.72 8.714 8.72s-.032 1.624 1.544 1.632c0 0 .88.028 1.296-.552l-.376-.348s-.4.36-.852.352c-.452-.008-.94-.344-.94-.824l2.32-.008c0 .004.172-1.86-1.46-1.844Zm-.048.54c.752.004.832.848.832.848l-1.648.004s.084-.86.816-.852Zm1.984-1.644h.673l-.008 4.256h-.66l-.005-4.256Zm1.365.012h.672l-.008 4.256h-.66l-.004-4.256Zm2.78 1.068a1.628 1.628 0 1 0 0 3.256 1.628 1.628 0 1 0 0-3.256Zm-.052.58h.052c.56 0 1.008.468 1.008 1.052 0 .584-.452 1.052-1.008 1.052s-1.012-.472-1.012-1.052c0-.564.424-1.024.96-1.052ZM4.83 11.094v3.52c0 .104.816.816 1.62.804.805-.012 1.657-.36 1.68-1.54.025-1.176-.687-1.728-1.46-1.728-.772 0-1.168.36-1.168.36l-.024-1.42-.648.004Zm1.757 1.648c.572.012.964.572.956 1.048-.004.512-.384 1.02-.992 1.02-.64 0-1.053-.348-1.053-.348l-.012-1.412c.004 0 .476-.32 1.1-.308Zm3.28-.588c-.668 0-1.18.272-1.18.272l.18.52s.356-.2.932-.2c.792 0 .736.724.736.724-.272-.148-.864-.14-.864-.14-1.22.016-1.256.932-1.248 1.104.008.148-.008.992 1.388.948 1.392-.04 1.376-.968 1.376-.968s.032-.62-.024-1.252c-.056-.636-.628-1.008-1.296-1.008Zm.04 1.68c.208.004.428.004.552.052.092.036.12.088.116.204-.004.208.032.304-.08.456-.096.2-.48.348-.752.352-.412.008-.752-.196-.752-.528 0-.328.348-.52.76-.536h.156Zm1.78-1.612h.665v.512s.332-.608 1.06-.596c.728.012 1.02.6 1.028.888.004.284.012 2.264.012 2.264H13.8l.004-2.024s-.14-.532-.704-.512c-.569.016-.74.472-.74.564l-.005 1.972h-.66l-.008-3.068Zm3.349-1.136h.664l.004 2.56 1.328-1.428h.825l-1.22 1.284 1.312 1.824-.829.004-.94-1.368-.484.496.004.868-.664-.004v-4.236Zm3.7 3.184-.011-3.197h.652l.004 3.197h-.644Zm0 1.048-.011-.588h.652l.004.588h-.644Z" fill="#fff"/><path d="M8.426 21.487v-1.224c0-.024.008-.044.024-.056a.096.096 0 0 1 .056-.02c.024 0 .044.008.06.02s.024.032.024.056l.004.532a.474.474 0 0 1 .304-.16c.24-.016.432.084.508.284.024.064.028.14.028.212 0 .1-.016.176-.056.256a.502.502 0 0 1-.448.248.426.426 0 0 1-.236-.072c-.032-.02-.072-.076-.1-.1v.1c0 .064-.056.08-.084.08-.028 0-.072-.028-.072-.06a.448.448 0 0 1-.012-.096Zm.164-.248a.451.451 0 0 0 .132.204c.06.04.136.072.2.072.108 0 .24-.056.296-.132.06-.068.08-.112.084-.268-.016-.156-.064-.228-.148-.284a.497.497 0 0 0-.272-.052c-.112.004-.24.1-.292.216v.244Zm1.072.62c0-.02.008-.032.02-.044.012-.016.04-.024.06-.024.008 0 .036-.004.06 0s.044 0 .064 0a.152.152 0 0 0 .076-.016c.032-.012.008 0 .028-.02.024-.02-.004.02.02-.012.024-.036.016-.016.024-.028.016-.032.036-.072.056-.12l-.408-.88c-.008-.016-.008-.028-.008-.04 0-.02.008-.04.024-.052a.096.096 0 0 1 .056-.02c.036 0 .064.02.08.056l.34.76.328-.76a.109.109 0 0 1 .032-.04.114.114 0 0 1 .048-.016c.02 0 .04.008.052.02.012.012.02.032.02.052a.144.144 0 0 1-.008.044l-.4.9a2.091 2.091 0 0 1-.076.16c-.024.044-.024.024-.056.068-.032.044-.036.032-.072.056-.032.028-.06.012-.104.028s-.06.004-.112.004c-.116 0-.144-.024-.144-.076Zm1.748-.892c0-.128.028-.244.088-.352a.643.643 0 0 1 .24-.256.61.61 0 0 1 .337-.096.8.8 0 0 1 .372.08c.088.052.168.104.192.172.02.044-.024.08-.056.08-.012.004-.024 0-.048-.008-.02-.012-.04-.028-.052-.036-.04-.04-.092-.064-.14-.088-.06-.036-.165-.044-.264-.044a.432.432 0 0 0-.257.068.532.532 0 0 0-.175.2.638.638 0 0 0-.06.28.6.6 0 0 0 .063.28c.04.084.1.148.18.196.08.048.168.064.272.064.06 0 .12.004.173-.008.052-.008.1-.04.128-.048.036-.016.052-.032.084-.06.016-.012.024-.024.04-.036.044-.028.092-.016.1 0 .02.028.016.04.012.072a.104.104 0 0 1-.028.044.209.209 0 0 1-.06.052c-.024.016-.04.032-.088.056-.036.016-.06.032-.132.052a.77.77 0 0 1-.224.024.746.746 0 0 1-.284-.052.611.611 0 0 1-.22-.148.668.668 0 0 1-.14-.22.629.629 0 0 1-.053-.268Zm1.44.164c0-.076.013-.144.033-.208a.558.558 0 0 1 .088-.168.374.374 0 0 1 .148-.112.477.477 0 0 1 .204-.04c.076 0 .144.012.204.036.06.024.112.056.152.096a.39.39 0 0 1 .092.136.46.46 0 0 1 .032.164v.052a.07.07 0 0 1-.02.052.07.07 0 0 1-.052.02h-.72a.43.43 0 0 0 .096.272c.06.072.148.108.256.108a.717.717 0 0 0 .236-.04c.024-.008.044-.02.064-.028a.138.138 0 0 1 .048-.012c.02 0 .032.008.044.02.012.012.016.028.016.048 0 .024-.02.048-.064.072a.535.535 0 0 1-.16.056c-.064.012-.128.02-.192.02a.522.522 0 0 1-.272-.072.483.483 0 0 1-.184-.196.868.868 0 0 1-.048-.276Zm.173-.104h.62a.261.261 0 0 0-.088-.212.331.331 0 0 0-.232-.076.28.28 0 0 0-.208.08.418.418 0 0 0-.092.208Zm.968-.344c0-.02.008-.036.02-.048a.076.076 0 0 1 .052-.02h.116V20.4c0-.052.028-.08.076-.08a.08.08 0 0 1 .056.02c.012.012.02.032.02.06v.216h.236c.02 0 .04.008.052.02.012.012.02.028.02.048s-.008.036-.02.048a.07.07 0 0 1-.052.02h-.236v.632c0 .048.008.084.024.1.016.02.044.028.088.028a.286.286 0 0 0 .14-.044.05.05 0 0 1 .036-.004c.012 0 .024.008.032.024a.114.114 0 0 1 .016.048c0 .036-.028.068-.08.092a.397.397 0 0 1-.168.036c-.084 0-.148-.02-.188-.064-.04-.044-.06-.108-.06-.196v-.656h-.112c-.024 0-.04-.004-.052-.016-.012-.008-.02-.024-.016-.048Zm.856.444c0-.076.012-.144.032-.208a.489.489 0 0 1 .092-.168.374.374 0 0 1 .148-.112.477.477 0 0 1 .204-.04c.076 0 .144.012.204.036a.413.413 0 0 1 .244.232.46.46 0 0 1 .032.164v.052a.07.07 0 0 1-.02.052.07.07 0 0 1-.052.02h-.72a.43.43 0 0 0 .096.272c.06.072.148.108.256.108a.717.717 0 0 0 .236-.04c.024-.008.044-.02.064-.028a.138.138 0 0 1 .048-.012c.02 0 .032.008.044.02.012.012.016.028.016.048 0 .024-.02.048-.064.072a.535.535 0 0 1-.16.056c-.064.012-.128.02-.192.02a.522.522 0 0 1-.272-.072.483.483 0 0 1-.184-.196.787.787 0 0 1-.052-.276Zm.176-.108h.62a.261.261 0 0 0-.088-.212.331.331 0 0 0-.232-.076.28.28 0 0 0-.208.08.436.436 0 0 0-.092.208Zm1.124.384v-1.14c0-.024.008-.044.024-.056a.096.096 0 0 1 .056-.02c.024 0 .044.008.06.02s.024.032.024.056v1.304c0 .044-.024.08-.088.08-.068-.004-.068-.028-.072-.072a.576.576 0 0 1-.004-.172Zm.448-.276c0-.076.012-.144.032-.208a.489.489 0 0 1 .092-.168.374.374 0 0 1 .148-.112.477.477 0 0 1 .204-.04c.076 0 .144.012.204.036.06.024.112.056.152.096a.407.407 0 0 1 .125.3v.052a.07.07 0 0 1-.02.052.07.07 0 0 1-.053.02h-.72a.43.43 0 0 0 .096.272c.06.072.148.108.256.108a.717.717 0 0 0 .236-.04c.024-.008.044-.02.064-.028a.138.138 0 0 1 .048-.012c.02 0 .032.008.044.02.012.012.017.028.017.048 0 .024-.02.048-.065.072a.535.535 0 0 1-.16.056c-.064.012-.128.02-.192.02a.522.522 0 0 1-.272-.072.483.483 0 0 1-.184-.196.787.787 0 0 1-.052-.276Zm.176-.108h.62a.261.261 0 0 0-.088-.212.331.331 0 0 0-.232-.076.28.28 0 0 0-.208.08.436.436 0 0 0-.092.208Zm1.113.548v-.88c0-.024.003-.04.015-.052a.07.07 0 0 1 .052-.02h.02c.02 0 .032.004.044.016.012.008.02.028.02.048v.04a.546.546 0 0 1 .34-.128c.149 0 .253.048.309.144l.092-.06a.732.732 0 0 1 .18-.072c.032-.008.072-.008.112-.008.232 0 .348.12.348.356v.62a.07.07 0 0 1-.02.052.076.076 0 0 1-.052.02h-.016a.087.087 0 0 1-.056-.02.076.076 0 0 1-.02-.052v-.6c0-.08-.016-.14-.052-.176-.036-.036-.092-.052-.168-.052-.04 0-.08.008-.12.02a.58.58 0 0 0-.18.092v.716a.07.07 0 0 1-.02.052.076.076 0 0 1-.052.02h-.016a.07.07 0 0 1-.052-.02.07.07 0 0 1-.02-.052v-.592c0-.084-.016-.144-.048-.18-.032-.036-.092-.056-.176-.056-.016 0-.032 0-.052.004a.144.144 0 0 0-.044.008l-.04.012a.092.092 0 0 1-.036.012l-.036.016c-.016.008-.028.016-.032.016-.004.004-.017.008-.032.02-.017.012-.029.016-.032.02v.716a.07.07 0 0 1-.02.052.076.076 0 0 1-.053.02h-.015a.07.07 0 0 1-.052-.02.07.07 0 0 1-.02-.052Z" fill="#666"/><defs><linearGradient id="a" x1="12.175" y1="1.718" x2="12.027" y2="21.921" gradientUnits="userSpaceOnUse"><stop stop-color="#2BC0D3"/><stop offset=".023" stop-color="#36C1D4"/><stop offset=".111" stop-color="#2BC0D3"/><stop offset=".232" stop-color="#12BED3"/><stop offset=".355" stop-color="#00BBD1"/><stop offset=".645" stop-color="#03A0BE"/><stop offset=".805" stop-color="#148EB2"/><stop offset=".903" stop-color="#178BB0"/><stop offset="1" stop-color="#1A86AC"/></linearGradient></defs></svg>