<svg width="24" height="24" fill="none" xmlns="http://www.w3.org/2000/svg"><path d="M2 2h20v20H2V2Z" fill="url(#a)" stroke="#000" stroke-width=".027"/><path fill-rule="evenodd" clip-rule="evenodd" d="M3.56 2.277c-.388 0-.641.328-.701.786 0 0-.5 2.626-.5 8.2 0 5.579.5 9.228.5 9.228.045.442.313.786.7.786H20.87c.388 0 .696-.306.703-.786 0 0-.193-4.274-.193-8.45 0-4.174.193-8.978.193-8.978.008-.427-.315-.786-.703-.786H3.56Z" fill="url(#b)" stroke="#000" stroke-width=".027"/><path d="m13.304 8.671.013.005-.013-.005Z" fill="url(#c)" stroke="#000" stroke-width=".027"/><path d="M13.485 4.061c.579.242 2.897 1.496 3.182 1.896-1.168.154-3.456.75-4.688 1.35l-.072.146c1.358-.3 3.259-.456 4.569-.528-.489.717-.813 1.06-1.558 1.872l-.069.157c1.418-.852 1.818-.913 3.125-1.677.493.73.612 2.412.632 3.746.425-.845.942-4.034.727-4.61.866-.594.984-1.073.984-1.073-.795.069-1.233.082-1.662.217-1.015-.623-3.345-1.445-5.102-1.643l-.068.147Z" fill="url(#d)" stroke="#000" stroke-width=".036"/><path d="M4.827 13.964c-.114 1.063-.16 1.822-.008 2.67-.43.12-.807.137-1.153.285l-.066.145c.551.34 1 .6 1.623.892a5.54 5.54 0 0 0 1.237 1.75l.068-.147c-.1-.408-.23-.742-.181-1.19.692.204 1.287.31 2.076.334l.067-.147c-.694-.27-1.389-.482-1.95-1.011.177-.492.379-.877.709-1.363l.07-.15c-.598.09-1.137.308-1.653.409-.408-.714-.565-1.693-.77-2.624l-.068.147Z" fill="url(#e)" stroke="#000" stroke-width=".036"/><path d="M8.367 9.118s-.446-.041-1.185-.02c-.625.03-1.556.086-2.008.217l-.066.146c.719.031 1.705.224 2.083.603 0 0-1.048.95-2.104 2.996-.026.052-.044.094-.072.148 0 0 1.964-1.843 2.815-2.3 0 0 .445 1.485.754 2.227l.068-.149c.085-.476.298-1.77.66-2.563 0 0 .13-.078.756-.139.63-.057 1.52-.09 3.21.207l.068-.146c-.382-.225-1.892-.873-3.5-1.099a7.594 7.594 0 0 1 .505-1.159c-.345.048-1.327.508-1.984 1.031Z" fill="url(#f)"/><path d="M8.367 9.118s-.446-.041-1.185-.02c-.625.03-1.556.086-2.008.217l-.066.146c.719.031 1.705.224 2.083.603 0 0-1.048.95-2.104 2.996-.026.052-.044.094-.072.148 0 0 1.964-1.843 2.815-2.3 0 0 .445 1.485.754 2.227l.068-.149c.085-.476.298-1.77.66-2.563 0 0 .13-.078.756-.139.63-.057 1.52-.09 3.21.207l.068-.146c-.382-.224-1.892-.873-3.5-1.099a7.594 7.594 0 0 1 .505-1.159c-.345.048-1.327.508-1.984 1.031" stroke="#000" stroke-width=".036"/><path d="M12.48 18.22a21.022 21.022 0 0 1-.058-.857c-.342.463-.633.828-1.009 1.251-.397.11-.851.105-1.265.101a10.524 10.524 0 0 0-.473.002l-.067.148c.387.198.766.32 1.17.404-.328.298-.766.526-1.074.733l-.069.146c.662-.156 1.53-.436 2.178-.819a3.85 3.85 0 0 0 .882-.053s.07-.151.07-.148c-.043-.149-.174-.24-.214-.449.607-.47 1.046-.9 1.554-1.41l.07-.147c-.501.345-1.11.82-1.695 1.099Z" fill="url(#g)"/><path d="M12.48 18.22a21.022 21.022 0 0 1-.058-.857c-.342.463-.633.828-1.009 1.251-.397.11-.851.105-1.265.101a10.524 10.524 0 0 0-.473.002l-.067.148c.387.198.766.32 1.17.404-.328.298-.766.526-1.074.733l-.069.146c.662-.156 1.53-.436 2.178-.819a3.85 3.85 0 0 0 .882-.053s.07-.151.07-.148c-.043-.149-.174-.24-.214-.449.607-.47 1.046-.9 1.554-1.41l.07-.147c-.501.345-1.11.82-1.695 1.099" stroke="#000" stroke-width=".036"/><path d="M18.04 7.127c-1.303.767-1.702.832-3.121 1.68.825-.896 1.113-1.277 1.624-2.027-1.309.07-3.208.227-4.564.527 1.18-.63 3.522-1.332 4.758-1.5-.287-.395-2.607-1.65-3.184-1.893 1.837.143 4.082.828 5.17 1.495.428-.134.873-.14 1.67-.211-.202.348-.212.55-.994 1.068.217.58-.3 3.765-.727 4.609-.016-1.333-.132-3.016-.631-3.748ZM8.49 18.556a5.188 5.188 0 0 1-1.884-1.158c.178-.49.38-.874.713-1.367a37.6 37.6 0 0 0-1.584.26c-.427-.748-.622-1.47-.84-2.474-.116 1.064-.16 1.825-.01 2.673-.482.134-.822.25-1.22.43.556.34 1.006.6 1.625.89a5.544 5.544 0 0 0 1.237 1.75 3.254 3.254 0 0 1-.11-1.336 7.756 7.756 0 0 0 2.073.332M10.441 7.96a4.323 4.323 0 0 0-.577 1.132c1.932.262 3.482 1.254 3.482 1.254-1.689-.3-2.58-.262-3.21-.206-.626.06-.755.133-.755.133-.456.998-.729 2.713-.729 2.713-.308-.74-.752-2.226-.752-2.226-.852.457-2.813 2.3-2.813 2.3C6.165 10.903 7.26 9.92 7.26 9.92c-.377-.382-1.364-.572-2.085-.604.375-.152 1.336-.331 2.075-.366.74-.02 1.187.021 1.187.021.66-.52 1.66-.96 2.005-1.01Zm2.049 9.258c-.34.462-.633.826-1.013 1.248a6.197 6.197 0 0 1-1.802.251c.39.2.766.32 1.172.405a7.99 7.99 0 0 1-1.143.879c.66-.155 1.53-.436 2.176-.818.337.013.654-.009.885-.055a4.875 4.875 0 0 1-.147-.596c.608-.472 1.051-.899 1.558-1.41a10.56 10.56 0 0 1-1.629.95 16.345 16.345 0 0 1-.056-.854Z" fill="#fff"/><defs><linearGradient id="a" x1="12" y1="2" x2="12" y2="22" gradientUnits="userSpaceOnUse"><stop stop-color="#007A50"/><stop offset=".6" stop-color="#7FD2A4"/><stop offset="1" stop-color="#00A770"/></linearGradient><linearGradient id="b" x1="11.966" y1="-3.044" x2="11.966" y2="20.683" gradientUnits="userSpaceOnUse"><stop stop-color="#00965E"/><stop offset=".3" stop-color="#8AC9AD"/><stop offset=".55" stop-color="#00965E"/><stop offset=".835" stop-color="#007749"/><stop offset="1" stop-color="#009F70"/></linearGradient><linearGradient id="c" x1="13.303" y1="8.674" x2="13.318" y2="8.674" gradientUnits="userSpaceOnUse"><stop stop-color="#F1471D"/><stop offset="1" stop-color="#FAB10B"/></linearGradient><linearGradient id="d" x1="16.111" y1="20.006" x2="16.111" y2="3.781" gradientUnits="userSpaceOnUse"><stop stop-color="#33B880"/><stop offset="1" stop-color="#00A770"/></linearGradient><linearGradient id="e" x1="6.045" y1="20.007" x2="6.045" y2="3.778" gradientUnits="userSpaceOnUse"><stop stop-color="#33B880"/><stop offset="1" stop-color="#00A770"/></linearGradient><linearGradient id="f" x1="9.181" y1="20.005" x2="9.181" y2="3.783" gradientUnits="userSpaceOnUse"><stop stop-color="#33B880"/><stop offset="1" stop-color="#00A770"/></linearGradient><linearGradient id="g" x1="11.892" y1="20.006" x2="11.892" y2="3.785" gradientUnits="userSpaceOnUse"><stop stop-color="#33B880"/><stop offset="1" stop-color="#00A770"/></linearGradient></defs></svg>