<svg width="24" height="24" fill="none" xmlns="http://www.w3.org/2000/svg"><path d="m8.929 2.781 4.08 4.224a853.803 853.803 0 0 0 3.834 3.96c.013 0 4.147-3.99 4.145-4.001 0-.007-.973-1.009-2.162-2.23l-2.16-2.215-3.997-.002H8.673l.256.264ZM5.217 4.867 3 7.029v3.915c0 3.698.002 3.915.028 3.893a2176.3 2176.3 0 0 0 8.337-8.129c0-.017-3.899-3.995-3.92-4.002-.007-.002-1.009.97-2.228 2.16Zm9.479 9.538a283.445 283.445 0 0 0-2.143 2.1c-.001.009.912.99 2.034 2.18l2.037 2.165 2.04-1.989c1.124-1.093 2.109-2.055 2.19-2.134l.146-.145-2.074-2.127a402.29 402.29 0 0 0-2.083-2.132c-.005-.002-.972.935-2.147 2.082Zm-9.522-.097L3.25 16.18l.079.085c.043.047 1.073 1.132 2.289 2.41L7.828 21h7.564l-.217-.23c-.581-.611-8.044-8.325-8.06-8.328-.008-.004-.883.836-1.941 1.866Z" fill="#D1005D"/></svg>