<svg width="24" height="24" fill="none" xmlns="http://www.w3.org/2000/svg"><path d="M18.358 6.868c-4.08.563-4.442.663-4.905 1.301-.288.376-.8 2.99-.688 3.441.162.626.388.638 4.48.138 2.089-.263 3.903-.513 4.04-.563.213-.088.326-.438.677-2.277.237-1.202.45-2.278.488-2.403.024-.112 0-.213-.05-.2-.063.012-1.877.263-4.042.563ZM8.185 6.855c-3.34.438-3.816.563-4.191 1.152-.313.475-2.19 9.797-1.977 9.797.413 0 7.57-1.014 7.97-1.126.25-.075.6-.3.764-.5.462-.539.975-2.941.788-3.667-.138-.575-.5-.588-4.017-.138-1.789.226-3.316.413-3.403.426-.088 0-.113-.113-.05-.338l.087-.338 3.441-.463c3.654-.5 4.03-.6 4.43-1.276.25-.425.675-2.265.688-3.003 0-.6-.35-.964-.901-.951-.225.013-1.864.2-3.629.425Zm7.695 5.669-3.516.45-.462 2.352c-.263 1.302-.438 2.39-.4 2.44.15.138 7.882-.963 8.27-1.188.588-.338.838-.801 1.088-1.977.438-2.128.288-2.566-.838-2.54-.338.012-2.202.225-4.141.463Z" fill="#DB1F2A"/></svg>