<svg width="24" height="24" fill="none" xmlns="http://www.w3.org/2000/svg"><path d="M2.202 12.173c.683-.155 1.274-.56 1.647-1.43.932-2.113 4.413-5.282 10.785-3.449 1.181-.124 1.492.746 2.051.622.094.186-1.554.31-1.865.28-.248 1.304-1.585 2.92-2.113 3.822-.249.372-.249 1.15-.715 1.025 0 0-.093 0-.31-.062-.156-.062-.467-.155-.498-.218 0-.093.155-.28.373-.31.093-.031.155 0 .186-.156.031-.155-.124-.342-.217-.373-.093-.062-.342-.062-.373.094-.031.155-.062.28-.062.28s0 .279-.249.217a.604.604 0 0 1-.404-.373c-.031-.093.249-.435.342-.528.093-.125.155-.311.186-.436-.714-.932-.621-2.113 1.15-2.703-1.989-.062-3.108.839-3.294 4.848a5.124 5.124 0 0 1-.933 2.703l.342.342c2.953-1.274 6.154-.994 8.33.249L22.001 4h-11.44c-2.673.186-4.6.84-6.06 2.828 2.86-1.523 6.869-1.927 10.194.186-3.947-2.05-11.375-.652-12.494 5.159Z" fill="#1E1E1E"/><path d="M15.038 18.512c.093.187.777.436 1.212.746l.497-1.118c-1.15-1.306-4.32-2.518-8.205-.746-2.673 1.243-6.558 2.424-6.34-1.585l-.125-.031c-.435 2.548.902 5.407 5.72 2.641 4.32-2.455 6.62-1.18 7.117-.715.31.28 0 .591.124.808Z" fill="#1E1E1E"/></svg>