<svg width="24" height="24" fill="none" xmlns="http://www.w3.org/2000/svg"><path d="M21.625 2H7.859l-5.7 5.7A.567.567 0 0 0 2 8.104v3.261h3.362v-3.29a.16.16 0 0 1 .159-.159h1.833a.16.16 0 0 1 .158.159v3.276h3.262a.16.16 0 0 1 .158.158v1.833a.16.16 0 0 1-.159.159h-3.26v3.275a.16.16 0 0 1-.16.16H5.522a.16.16 0 0 1-.159-.16v-3.26H2v7.921c0 .318.26.563.563.563H15.91a.62.62 0 0 0 .404-.159l5.685-5.7V2.375A.373.373 0 0 0 21.625 2Zm-2.453 14.95h-2.194a.131.131 0 0 1-.115-.058l-2.05-2.77-2.048 2.77a.131.131 0 0 1-.116.058h-2.164a.148.148 0 0 1-.116-.246l3.117-4.213a.152.152 0 0 0 0-.188l-3.145-4.242c-.044-.058 0-.145.072-.145h2.294c.043 0 .101.03.115.058l1.992 2.684L16.79 7.96a.131.131 0 0 1 .115-.058h2.309c.072 0 .115.086.072.144l-3.131 4.272c-.043.043-.043.115 0 .173l3.131 4.242c.072.072 0 .216-.115.216Z" fill="url(#a)"/><defs><linearGradient id="a" x1="22.069" y1="1.934" x2="2.257" y2="21.75" gradientUnits="userSpaceOnUse"><stop offset=".05" stop-color="#42B8EB"/><stop offset=".103" stop-color="#3EAADE"/><stop offset=".321" stop-color="#2E73AD"/><stop offset=".509" stop-color="#234C89"/><stop offset=".658" stop-color="#1C3373"/><stop offset=".75" stop-color="#192A6B"/></linearGradient></defs></svg>