<?xml version="1.0" encoding="UTF-8"?>
<svg id="Logo" xmlns="http://www.w3.org/2000/svg" viewBox="0 0 564.08 458.29">
<defs>
    <style>.cls-1{fill:none;}.cls-2{fill:#003565;}</style>
</defs>
<rect class="cls-1" x="26.1" width="516.36" height="265.83"/>
<g>
    <g>
        <path class="cls-2" d="M114.71,132.34c0-24.63,22.83-43.72,61.28-43.72,22.8,0,35.76,5.33,42.3,8.42,.22,.1,.29,.4,.15,.58l-9.17,12.61c-.11,.15-.32,.21-.49,.11-4.59-2.56-16.31-6.14-30.15-6.14-25.95,0-42.13,10.98-42.13,28.14,0,16.16,14.7,29.3,42.79,29.3,16.06,0,28.79-5.28,32.8-7.22,.17-.08,.36-.04,.48,.12l9.19,12.64c.13,.18,.08,.46-.13,.57-5.54,2.92-20.04,9.46-42.73,9.46-41.48,0-64.19-18.82-64.19-44.89Z"/>
        <path class="cls-2" d="M453.08,89.66h-102.49c-.6,0-1.1,.47-1.1,1.1v85.05c0,.57,.62,.82,1.03,.54l41.49-28.54c.12-.08,.27-.12,.41-.12h41.53c.45,0,.78-.35,.78-.78v-13.55c0-.43-.34-.78-.78-.78h-47.29c-.14,0-.28,.04-.4,.11l-17.35,10.91c-.29,.18-.66-.03-.66-.37v-37.71c0-.43,.34-.78,.79-.78h84.04c.41,0,.78-.35,.78-.78v-13.54c0-.43-.37-.78-.78-.78Z"/>
    </g>
    <path class="cls-2" d="M227.98,132.34c0-24.63,22.83-43.72,61.28-43.72,22.8,0,35.76,5.33,42.3,8.42,.22,.1,.29,.4,.15,.58l-9.17,12.61c-.11,.15-.32,.21-.49,.11-4.59-2.56-16.31-6.14-30.15-6.14-25.95,0-42.13,10.98-42.13,28.14,0,16.16,14.7,29.3,42.79,29.3,16.06,0,28.79-5.28,32.8-7.22,.17-.08,.36-.04,.48,.12l9.19,12.64c.13,.18,.08,.46-.13,.57-5.54,2.92-20.04,9.46-42.73,9.46-41.48,0-64.19-18.82-64.19-44.89Z"/>
</g>
</svg>