<svg width="24" height="24" fill="none" xmlns="http://www.w3.org/2000/svg"><path d="M21.767 10.534c.12.61.267 1.724-.311 2.841a5.105 5.105 0 0 1-1.192 1.518 7.56 7.56 0 0 1-.806.63c-.14.1-.333.311-.333.311l.01.26a14.68 14.68 0 0 1-.077 2.09c-.071.684-.258 1.407-.68 1.956a1.13 1.13 0 0 1-.419.366.58.58 0 0 1-.608-.07c-.272-.273-.39-.477-.581-.706-.344-.439-.657-.84-.923-1.185l-.588-.748-.267-.34-.072-.094a.172.172 0 0 0 .053.001c.269.346.54.748.874 1.18.315.403.661.841 1.038 1.318l.289.366c.08.124.261.309.502.322.503-.027.701-.43.893-.726-.126.196-.258.394-.462.55-.184.176-.57.198-.753-.004-.3-.363-.514-.686-.761-1.012l-.829-1.127 1.563 1.939s.527.81 1.216-.676c.432-.93.41-2.863.334-3.877 1.786-1.114 2.867-2.566 2.622-4.4.044-.205.074-.502.024-.951-.014-.213-.266-.81-.465-1.152a.87.87 0 0 0-.04-.074 5.125 5.125 0 0 0-.13-.315c-.043-.133.148.127.26.228-.36-.7-.373-.761-.147-.507a6.04 6.04 0 0 0-.193-.33c.046.028.164.123.165.123-.502-.902-1.37-1.768-2.425-2.207l-.118-.048c.052-.123.097-.23.148-.326a3.43 3.43 0 0 0 .313-.797c.054-.252.131-.578.021-1.059-.054-.236-.27-.611-.643-.739-.37-.126-.591-.031-.762.012a3.267 3.267 0 0 0-.56.259c-.195.104-.401.28-.49.39-.253.446-.127.43-.147.629-.14.447-.032.952.164 1.38-.625-.043-1.071-.005-1.031.072-1.14.02-1.365.13-2.517.362-.76.176-1.607.447-2.447.875a6.64 6.64 0 0 0-.317.175l-.043.025-.011.008-.002.001c-.02.557.13.315.234.569h.001l.005-.002.02-.004.082-.017.167-.033a25.657 25.657 0 0 1 2.073-.3 18.513 18.513 0 0 1 3.223-.08c.002.11.006.217.01.323.05.956.149 1.882.428 2.775.072.222.159.443.273.657.115.177.261.554.768.54.43-.09.554-.402.665-.556l.347-.54c.427-.685.847-1.337 1.21-2.065.098.073.19.152.276.235.126.17.242.35.348.538a.48.48 0 0 1 .146.13c.086.176.185.345.261.529.476 1.37-.415 2.782-1.619 3.724-.5.41-1.055.779-1.646 1.115.177-.425.229-.982.093-1.442-.133-.476-.381-1.041-1.009-1.232-.66-.133-1.116.304-1.437.65-.35.354-.578.996-.327 1.513.224.501.627.825 1.031 1.092a4.3 4.3 0 0 0 .315.186l.035.017c-.442.165-.821.32-1.26.4-.884.183-1.804.136-2.68-.052a9.13 9.13 0 0 1-2.488-.941s-.214-.18-.412.158l.082.094a6.698 6.698 0 0 0 .758.698c.359.28.74.526 1.14.728a6.535 6.535 0 0 0 3.495.708l.058-.005.007.008.748.954c.493.626.972 1.238 1.435 1.829l.17.221a.82.82 0 0 0 .337.255c.313.129.646-.04.796-.191.328-.328.483-.648.642-1.015.256-.728.306-1.413.349-2.064a16.9 16.9 0 0 0 .021-.95l-.009-.456-.006-.13s1.692-1.278 2.154-2.07c.474-.787.59-1.557.584-2.065-.02-.401-.12-.784-.233-1.152Z" fill="#646567"/><path d="M2.788 7.263c.059.088.134.19.231.3a2.292 2.292 0 0 1-.184-.37c.291.394.757.749 1.096.876h.001a.142.142 0 0 0-.026.063c0 .027.115.08.151.142.008.018-.032.034-.056.06.069.028.059.063.02.08l.03.018-.033.034c.16.106.323.268.568.294.01.002.023.003.038.003-.15.124-.195.212-.395.38a8.98 8.98 0 0 0-1.051 1.054 7.91 7.91 0 0 0-.5.693c-.058.09-.107.18-.155.266a4.299 4.299 0 0 0-.492 1.434 2.874 2.874 0 0 0-.014.731l.014.094.009.049.007.029.001.004c.26-.125.212.02.383.036l.002-.004.005-.008.08-.138.172-.274c.443-.673.947-1.302 1.557-1.969l.02.049.154.349c.097.231.208.473.289.699.09.247.19.488.332.716.132.199.352.513.72.422.559-.3.651-.838.848-1.273.155-.46.25-.923.3-1.365a8.15 8.15 0 0 0 .04-1.254s-.04-.265-.014-.313c0 0 .252-.108.393-.166.558-.237.99-.37 1.223-.44.083-.045.167-.09.254-.13-.317.038-.987.239-1.656.55l-.249.122-.052.057c.02.188.03.374.036.552.01.354-.009.674-.038.914.028-.281.02-.585.003-.978a6.771 6.771 0 0 1-.093 1.044A7.373 7.373 0 0 0 6.7 9.053 10.869 10.869 0 0 1 9.945 7.88s-.445-.242-1.222-.285c.018-.024.025-.047.011-.071-.022-.034-.378-.049-.541-.081-.039-.013.046-.05.083-.088-.214.012-.23-.023-.144-.062-.052 0-.103.003-.103.002l.047-.052c-.556-.003-1.193.076-1.68.318a3.356 3.356 0 0 0-.378.218c-.054.033-.188.077-.234.098-.064.07-.035.098-.052.146a3.13 3.13 0 0 0-.204.088c.006-.06-.01-.106.009-.19-.004-.278-.05-.394-.093-.614-.032-.104-.056-.206-.088-.308l-.038-.109c-.14-.37-.31-.699-.591-.949a1.278 1.278 0 0 0-1.085-.298c-.385.087-.801.168-1.078.523-.25.41-.015.835.147 1.105.37.572.809.908 1.001 1.012l.132.012c-.248-.17-.886-.693-1.056-1.032Z" fill="#D11242"/></svg>