<svg width="48" height="48" fill="none" xmlns="http://www.w3.org/2000/svg"><path d="M14.423 9.849c-.154 1.609.132 4.882.606 6.855.474 1.984 1.488 3.934 2.69 5.136 1.08 1.08 2.083 1.532 4.353 1.95l1.058.199-1.874.01c-2.336.012-2.953.122-4.1.662-1.135.551-1.807 1.003-3.857 2.623-3.946 3.12-5.048 3.78-6.238 3.78-.595 0-.683-.032-1.025-.374-.33-.33-.375-.441-.375-.959 0-.738.298-1.267.827-1.488.55-.22 1.036-.187 1.543.121.76.463 1.4.342 2.138-.43l.386-.396h-.562c-.331 0-.772-.1-1.08-.232-1.554-.683-3.902.783-3.913 2.447 0 .53.507 1.51.926 1.763 1.234.75 2.711.166 6.7-2.667 1.985-1.41 3.759-2.524 4.034-2.524.232 0 .122.96-.209 1.819-.287.76-1.124 1.72-1.807 2.072-.595.297-1.433.518-2.05.518-.662 0-1.51.43-1.863.959-.275.397-.275.408-.309 3.46l-.033 3.053.331.32c.386.386.771.474 2.193.474 1.102 0 1.124-.011.849-.595-.188-.386-.76-.728-1.212-.728h-.276v-4.066l.53-.056c2.5-.308 2.953-.43 5.223-1.51.915-.43 1.664-.76 1.675-.738.022.022.408 1.521.882 3.34.87 3.372 1.07 3.89 1.61 4.144.154.077.903.154 1.685.187 1.268.044 1.4.033 1.4-.143 0-.596-.75-1.158-1.543-1.158-.242 0-.44-.022-.44-.044 0-.033-.2-.826-.442-1.763l-.451-1.709.33-.451c.375-.53.562-1.268.562-2.26v-.716h1.058c1.047 0 1.047 0 1.709.44l.65.453v3.108c0 2.887.01 3.13.22 3.46.386.64.662.739 2.16.783 1.5.055 1.5.055 1.19-.595-.187-.386-.506-.617-1.057-.75-.199-.044-.33-.165-.375-.33-.033-.144-.044-1.202-.022-2.359l.033-2.105.309-.32c.176-.187.44-.352.584-.385l.264-.044v2.545c0 2.535 0 2.568.287 3.13.43.871.948 1.136 2.413 1.213 1.036.044 1.158.033 1.158-.132 0-.54-.507-1.036-1.235-1.213l-.308-.066v-6.822l.397-.298c.606-.473 1.653-1.818 2.193-2.821.584-1.102.804-1.885.936-3.34.122-1.377.243-1.785.695-2.358.849-1.07 1.631-1.334 4.012-1.334h1.675l-.066-.418c-.133-.882-.65-1.532-1.4-1.786-.242-.077-.419-.242-.54-.496-.353-.738-1.4-1.157-2.888-1.157-.518 0-.573-.033-1.234-.683l-.694-.684v.496c0 .507.143 1.422.275 1.753.044.12-.044.209-.32.308-.495.188-1.002.595-2.336 1.896-1.135 1.102-1.455 1.3-1.995 1.157-.54-.132-1.587-1.334-2.105-2.413-.97-2.017-2.039-2.69-6.888-4.32-3.174-1.07-4.387-1.61-5.51-2.459-.717-.55-1.39-1.377-1.764-2.193L14.5 9l-.077.849ZM39.64 17.97c.066.21-.033.42-.199.42-.154 0-.936-.43-.936-.508 0-.121 1.09-.033 1.135.088Z" fill="#C32D3B"/></svg>