<svg width="24" height="24" fill="none" xmlns="http://www.w3.org/2000/svg"><path d="M22 2H2v20h20V2Z" fill="#ED1C2E"/><path fill-rule="evenodd" clip-rule="evenodd" d="M13.176 15.159h4.663l-.588.958h-4.685l.61-.958Zm-3.398 4.052H18.1l-.588.959H9.19l.588-.959Zm5.73-8.714.61-.37 1.481 2.33-2.004 1.242-.37-.61 1.35-.871-1.067-1.721ZM3.46 12.174h6.383l-.588.959H2.87l.589-.959Z" fill="#fff"/><path fill-rule="evenodd" clip-rule="evenodd" d="M14.898 12.13c.326 0 .61-.26.61-.61a.596.596 0 0 0-.61-.61.609.609 0 1 0 0 1.22ZM4.527 10.475h6.384l-.61.959H3.917l.61-.96Zm1.046-1.699h6.383l-.588.936H4.985l.588-.936Z" fill="#fff"/><path fill-rule="evenodd" clip-rule="evenodd" d="M19.015 2.545c-5.577 2.767-13.66 5.97-13.66 12.505 0 2.44 1.394 4.205 2.81 4.88l7.19-11.503-.566-.893-6.885 11.024c-.719-.523-1.612-1.896-1.612-3.704 0-5.033 6.362-8.344 11.852-10.893l.871-1.416Z" fill="#fff"/></svg>