<svg xmlns="http://www.w3.org/2000/svg" width="48" height="48" fill="none"><g clip-path="url(#a)"><path fill="#164194" d="M18.342 27.776v-.21c-.215.297-.552.29-.82.216-.243-.067-.418-.276-.512-.504-.222-.532-.088-1.245.477-1.494.263-.114.646-.067.848.175v-.881h.538v2.698h-.531Zm-.8-.532a.413.413 0 0 0 .497.155c.437-.216.397-.942.088-1.198-.216-.181-.572-.034-.673.33a.884.884 0 0 0 .087.713Zm-5.444.108c.363.087.666-.115.733-.418h.552a1.04 1.04 0 0 1-.639.808 1.294 1.294 0 0 1-1.554-.444c-.33-.464-.343-1.043-.155-1.561.25-.66 1.01-1.016 1.669-.76.343.134.558.403.686.84h-.559c-.087-.262-.295-.477-.598-.47a.674.674 0 0 0-.552.302c-.404.532-.303 1.534.417 1.703Zm2.038-1.568.02.215c.128-.201.411-.275.606-.249v.431c-.181-.027-.578.067-.592.471v1.123h-.531v-1.99h.498Zm6.44 1.992c-.155 0-.43-.04-.43-.64v-.988h-.27v-.364h.27v-.652h.544v.652h.343v.37h-.35v.983c0 .275.108.269.39.269v.383l-.497-.013Zm9.52-.162s-.054.047-.074.06c-.424.317-.949.149-1.077-.248a1.4 1.4 0 0 1-.067-.471v-1.17h.525v1.123c0 .43.208.504.39.464.134-.034.303-.08.303-.397v-1.19h.524v1.997h-.51c0-.006-.008-.168-.014-.168Z"/><path fill="#E30613" d="M24.66 25.986a.692.692 0 0 1-.532.841.837.837 0 0 0-.76-.491l-.007-.014a.606.606 0 0 1-.007-.484.697.697 0 0 1 1.097-.209l-.62-1.043h-.948l-.626 1.043a.685.685 0 0 1 1.023.101.743.743 0 0 0 0 .68l.007.02a.711.711 0 0 1-.66.404h-.013c-.014 0-.027-.007-.04-.007a.706.706 0 0 1-.525-.861l-.606 1.002.491.807h1.218a.692.692 0 0 1-.498-.666c0-.054.007-.114.027-.168a.803.803 0 0 0 .713-.491.709.709 0 0 1 .613.39.695.695 0 0 1-.37.909c-.02.006-.047.02-.068.026h1.198l.491-.807-.599-.982Z"/><path fill="#164194" d="M19.714 25.784h-.524v1.992h.524v-1.992Zm-.006-.713h-.512v.457h.512v-.457Zm17.23-.014h-.525v2.718h.525v-2.718Zm-21.005.478.356-.498h-.598l-.168.498h.41Zm18.784 1.393c0 .551.794.585.888.242h.525c-.047.262-.222.437-.437.565-.263.155-.66.128-.935 0a1.02 1.02 0 0 1-.559-.673c-.134-.49.06-.955.511-1.218a.907.907 0 0 1 .747-.067c.41.128.754.565.693 1.157l-1.433-.006Zm.256-.39h.666a.402.402 0 0 0-.094-.243.383.383 0 0 0-.216-.134c-.316-.088-.538.087-.605.289-.014.027-.02.06-.027.088h.276Zm-3.465 1.238c-.154 0-.424-.04-.424-.64v-.988h-.269v-.364h.27v-.652h.544v.652h.344v.37h-.35v.983c0 .275.107.269.39.269v.383l-.505-.013Zm-4.103 0 .565-1.992v1.992h.524V25.07h-.814l-.538 1.904-.545-1.904h-.814v2.705h.525v-1.992l.572 1.992h.525Zm5.987-.162s-.054.047-.074.06c-.424.317-.949.149-1.076-.248a1.397 1.397 0 0 1-.061-.471v-1.17h.525v1.123c0 .43.215.504.39.464.135-.034.303-.08.303-.397v-1.19h.524v1.997h-.51c0-.006-.014-.168-.021-.168Zm-18.105-.686c0 .551.794.585.889.242h.531c-.047.262-.222.437-.437.565-.263.155-.66.128-.935 0a1.02 1.02 0 0 1-.559-.673c-.134-.49.06-.955.511-1.218a.907.907 0 0 1 .747-.067c.41.128.754.565.693 1.157l-1.44-.006Zm.256-.377h.666a.402.402 0 0 0-.094-.242.383.383 0 0 0-.215-.135c-.316-.08-.539.088-.599.29-.014.04-.027.087-.027.087h.27Z"/><path fill="#E30613" d="M45.704 18.29H2.424v.268h43.28v-.269Zm0 11.484H2.424v.269h43.28v-.27Z"/><path fill="#73797D" d="M3.695 20.53c.121 0 .236.013.35.033a.75.75 0 0 1 .276.115.53.53 0 0 1 .175.208.648.648 0 0 1 .06.317.564.564 0 0 1-.094.343.598.598 0 0 1-.276.222.643.643 0 0 1 .37.249.837.837 0 0 1 .047.787.677.677 0 0 1-.215.242.863.863 0 0 1-.31.141 1.268 1.268 0 0 1-.356.047H2.41V20.53h1.285Zm-.074 1.09a.412.412 0 0 0 .263-.074.291.291 0 0 0 .1-.25.307.307 0 0 0-.033-.154.238.238 0 0 0-.088-.094.494.494 0 0 0-.127-.047c-.054-.007-.101-.014-.155-.014h-.559v.633h.6Zm.034 1.15a.721.721 0 0 0 .168-.02.322.322 0 0 0 .141-.06.288.288 0 0 0 .094-.108.315.315 0 0 0 .034-.175c0-.141-.04-.236-.121-.296a.504.504 0 0 0-.31-.088h-.645v.74l.639.007Zm2.779-2.24 1.009 2.704h-.62l-.2-.598h-1.01l-.215.598h-.6l1.023-2.704h.613Zm.033 1.655-.343-.99h-.007l-.35.99h.7Zm1.797-1.655 1.13 1.816h.007V20.53h.558v2.704h-.592l-1.123-1.81h-.007v1.81H7.68V20.53h.585Zm4.077 2.61a1.298 1.298 0 0 1-.652.155c-.189 0-.384-.034-.559-.108a1.154 1.154 0 0 1-.417-.296 1.41 1.41 0 0 1-.262-.444 1.699 1.699 0 0 1 0-1.117 1.262 1.262 0 0 1 .68-.753 1.46 1.46 0 0 1 1.116 0c.161.067.303.175.417.303.114.134.202.289.263.45.06.182.094.37.094.566 0 .188-.027.37-.095.551a1.41 1.41 0 0 1-.262.444l.337.31-.276.289-.384-.35Zm-.087-.626a.815.815 0 0 0 .12-.255 1.495 1.495 0 0 0 .007-.713.9.9 0 0 0-.127-.296.62.62 0 0 0-.23-.209.8.8 0 0 0-.679 0 .618.618 0 0 0-.228.209.898.898 0 0 0-.128.296 1.49 1.49 0 0 0-.04.343c0 .114.013.222.04.33.027.1.067.201.128.289a.68.68 0 0 0 .228.208.76.76 0 0 0 .344.081c.04 0 .087 0 .134-.007.04 0 .074-.013.101-.033l-.256-.23.276-.295.31.282Zm3.154.512c-.201.181-.484.269-.847.269-.364 0-.646-.088-.848-.27-.202-.174-.303-.45-.303-.82v-1.682h.592v1.682c0 .074.007.148.02.215.02.141.115.263.25.323.094.04.188.054.289.054.215 0 .356-.047.437-.141.08-.095.121-.242.121-.444V20.53h.592v1.682c0 .363-.1.639-.303.814Zm2.833-2.496v.497h-1.426v.58h1.312v.463h-1.312v.66h1.46v.497h-2.052v-2.704h2.018v.007Zm3.479 0v.497h-1.427v.58h1.312v.463h-1.312v.66h1.46v.497h-2.052v-2.704h2.018v.007Zm2.415 2.496c-.202.181-.485.269-.848.269s-.646-.088-.848-.263c-.201-.174-.302-.45-.302-.82V20.53h.592v1.682c0 .074.006.148.02.215.02.141.114.262.249.323.094.04.188.054.29.054.215 0 .356-.047.436-.141.081-.095.122-.243.122-.445v-1.681h.592v1.681c.006.357-.095.633-.303.808Zm2.273-2.496c.115 0 .222.02.33.06a.757.757 0 0 1 .249.162.813.813 0 0 1 .161.235.847.847 0 0 1-.047.7.612.612 0 0 1-.33.262v.007a.47.47 0 0 1 .182.094c.047.04.088.095.121.148.034.06.054.121.068.189.013.067.02.134.027.201 0 .048.006.095.006.155 0 .054.007.115.014.175.006.06.013.114.033.175a.483.483 0 0 0 .06.135h-.591a1.198 1.198 0 0 1-.06-.31 4.969 4.969 0 0 0-.034-.343.53.53 0 0 0-.128-.31c-.067-.067-.175-.1-.323-.1h-.599v1.063h-.592V20.53h1.453Zm-.208 1.224a.47.47 0 0 0 .31-.094c.066-.06.1-.161.1-.296a.384.384 0 0 0-.1-.29.454.454 0 0 0-.31-.087h-.653v.76l.653.007Zm1.453-.424a1.262 1.262 0 0 1 .68-.753 1.46 1.46 0 0 1 1.116 0c.162.067.303.175.417.303.115.134.202.289.263.45.06.182.094.37.087.566 0 .188-.027.376-.087.551a1.293 1.293 0 0 1-.263.444 1.153 1.153 0 0 1-.417.296c-.357.141-.76.141-1.117 0a1.153 1.153 0 0 1-.417-.296 1.41 1.41 0 0 1-.262-.444 1.53 1.53 0 0 1-.088-.552 1.603 1.603 0 0 1 .088-.565Zm.545.895a.927.927 0 0 0 .128.29.68.68 0 0 0 .228.208.8.8 0 0 0 .68 0 .619.619 0 0 0 .229-.209c.06-.087.1-.188.127-.289a1.381 1.381 0 0 0 0-.673.9.9 0 0 0-.127-.296.62.62 0 0 0-.23-.208.8.8 0 0 0-.679 0 .62.62 0 0 0-.228.208.9.9 0 0 0-.128.296 1.5 1.5 0 0 0-.04.343c0 .108.013.223.04.33Zm3.647-1.695c.148-.007.296.02.43.074a.761.761 0 0 1 .451.47c.067.21.067.431 0 .64a.76.76 0 0 1-.45.47 1.02 1.02 0 0 1-.431.075h-.626v.968h-.592v-2.704h1.218v.007Zm-.162 1.271c.067 0 .135-.006.195-.013a.39.39 0 0 0 .169-.06.33.33 0 0 0 .114-.122.502.502 0 0 0 0-.417.285.285 0 0 0-.114-.121.713.713 0 0 0-.169-.06c-.067-.014-.128-.014-.195-.014h-.464v.807h.464Zm3.485-1.271v.498h-1.426v.578h1.311v.464h-1.311v.66h1.46v.498h-2.053v-2.705h2.019v.007Zm-1.34-.242.364-.539h.592l-.585.539h-.37Zm3.789.242v.497h-1.426v.58h1.312v.463H36.19v.66h1.46v.497h-2.052v-2.704h2.018v.007Zm1.016 0 1.13 1.816h.007V20.53h.558v2.704h-.592l-1.123-1.81h-.014v1.81h-.558V20.53h.592Zm2.806 0 1.13 1.816h.007V20.53h.558v2.704h-.592l-1.123-1.81h-.007v1.81h-.559V20.53h.586Zm4.231 0v.497h-1.426v.58h1.312v.463h-1.312v.66h1.46v.497h-2.059v-2.704h2.026v.007Z"/></g><defs><clipPath id="a"><path fill="#fff" d="M2 18h44v12.312H2z"/></clipPath></defs></svg>