<svg width="96" height="96" fill="none" xmlns="http://www.w3.org/2000/svg"><path d="M43.204 58.188 43.208 29H6v37.208h44.97v-8.02h-7.766Z" fill="#8D161C"/><path d="M44.03 29v8.022l7.762.003v29.183H89V29H44.03Z" fill="#C0061B"/><path d="m34.446 53.742-.953 3.468c-1.957.948-4.28 1.31-6.467 1.31-6.991 0-12.282-4.03-12.282-10.287 0-7.967 5.878-11.6 13-11.6 2.158 0 4.771.518 6.668 1.495-.295 1.038-.615 2.597-.875 3.663l-.337-.52c-1.21-1.647-3.298-2.81-5.42-2.81-5.425 0-7.612 4.856-7.612 9.345 0 5.223 2.744 8.885 7.774 8.885 2.024 0 4.376-.98 5.846-2.289l.658-.66Zm45.066.033-.95 3.465c-1.962.947-4.28 1.312-6.47 1.312-6.994 0-12.28-4.035-12.28-10.291 0-7.966 5.879-11.6 12.998-11.6 2.158 0 4.77.52 6.667 1.497-.294 1.037-.61 2.593-.873 3.662l-.34-.517c-1.207-1.648-3.295-2.81-5.421-2.81-5.418 0-7.609 4.855-7.609 9.343 0 5.227 2.743 8.886 7.775 8.886 2.02 0 4.373-.978 5.846-2.288l.657-.659ZM51.381 37.023H43.62v21.163h7.761V37.023Z" fill="#fff"/><path d="M51.381 37.023H43.62v21.163h7.761V37.023Z" stroke="#fff"/></svg>