<svg width="24" height="24" fill="none" xmlns="http://www.w3.org/2000/svg"><path d="M18.913 10.353c.066.274.109.559.109.853 0 1.768-1.25 3.23-2.914 3.584-.927-1.897-2.574-2.58-3.99-2.577-.011-.027-.018-.052-.029-.082-.208-.57-.495-1.389-.052-2.53a3.673 3.673 0 0 1 3.302-2.079c.95 0 1.81.37 2.463.962L14.541 3H9.543L6.24 8.495a3.656 3.656 0 0 1 2.476-.972 3.65 3.65 0 0 1 2.932 1.487c-.755 1.546-.354 2.693-.121 3.328.035.099.067.183.09.257l.032.109c-.655 1.437-2.157 2.189-3.478 2.124-.02-.002-.04-.003-.061-.007-.074-.006-.145-.022-.218-.033a3.677 3.677 0 0 1-2.86-3.582c0-.319.053-.623.13-.918L2 15.543l2.578 4.253H11a3.671 3.671 0 0 1-2.615-3.508c0-.305.05-.597.12-.88 1.493-.07 3.086-.97 3.754-2.603.799.032 2.3.343 3.221 2.069a.043.043 0 0 1-.011.002c.181.435.283.911.283 1.412 0 1.66-1.105 3.047-2.615 3.508h6.284L22 15.543l-3.087-5.19Z" fill="#DE060E"/></svg>