<svg width="24" height="24" fill="none" xmlns="http://www.w3.org/2000/svg"><path d="M12.947 16.053v-1.946h-1.894L11.06 7H2v9.053" fill="#0F228B"/><path d="M22 16.053V7H11.06v1.953h1.887v7.1" fill="#018289"/><path d="m8.827 13.02-.234.847c-.48.226-1.04.32-1.573.32-1.7 0-2.993-.98-2.993-2.507 0-1.94 1.433-2.82 3.166-2.82.527 0 1.16.127 1.62.367-.066.246-.146.626-.213.886l-.08-.126c-.293-.4-.8-.687-1.32-.687-1.32 0-1.853 1.18-1.853 2.273 0 1.274.666 2.16 1.893 2.16.493 0 1.06-.24 1.42-.553m11.133-.153-.233.846c-.473.227-1.04.32-1.573.32-1.7 0-2.987-.98-2.987-2.506 0-1.94 1.433-2.82 3.167-2.82.52 0 1.16.126 1.62.366-.074.254-.147.634-.214.894l-.08-.127c-.293-.4-.806-.687-1.32-.687-1.32 0-1.853 1.18-1.853 2.274 0 1.273.667 2.16 1.893 2.16.494 0 1.067-.24 1.427-.554" fill="#fff"/><path d="M12.947 14.107V8.954H11.06v5.153h1.887Z" fill="#FE330F"/></svg>