<svg width="42" height="42" fill="none" xmlns="http://www.w3.org/2000/svg"><path d="M37.817 41.385H4.683a3.651 3.651 0 0 1-3.641-3.64V4.684a3.652 3.652 0 0 1 3.641-3.642h33.134a3.653 3.653 0 0 1 3.641 3.642v33.024c0 2.003-1.639 3.677-3.64 3.677Z" fill="#F5F5F5"/><path d="M41.458 21.032c-4.005-1.566-8.702-2.44-13.8-2.476-3.313-3.823-5.825-10.231-4.333-17.514H19.03c-1.202 6.919.655 14.31 4.843 19.59-3.532 4.624-10.815 11.323-22.83 10.922v4.188h.838c13.945 0 22.173-8.265 25.67-12.925 5.28 0 9.903.946 13.908 2.767v-4.552Z" fill="#fff"/><path d="M41.462 29.278V21.35c-5.924-3.03-14.887-2.512-14.887-2.826-.765-2.51-5.262-8.442-3.587-17.545h-4.969c-1.566 10.195 2.258 15.967 4.333 18.844-3.13 4.187-8.52 10.249-16.167 11.56l-5.21 4.012c12.041 1.505 22.651-8.6 25.6-12.86 4.443.182 8.333-2.287 14.887 6.743Z" fill="#B3B2B2"/><path d="M41.458 32.756v-6.408c-7.282-6.772-15.839-8.156-20.973-8.265-1.747-2.367-5.133-7.938-3.713-17.04h-4.26c-1.384 10.194 2.512 16.675 4.588 19.515-3.132 4.224-8.412 9.103-16.058 10.523v4.26c10.195-1.602 16.894-8.52 20.063-12.998 6.007.254 14.527 2.184 20.353 10.413Z" fill="#EE2941"/></svg>