<svg width="24" height="24" fill="none" xmlns="http://www.w3.org/2000/svg"><path d="M2 2h20v20H2V2Z" fill="#272E80"/><path d="M7.694 5.632c-2.792.86-4.76 3.764-4.76 6.414 0 4.257 3.542 6.371 7.664 6.371 3.613 0 6.107-1.931 7.453-3.848" stroke="#272E80" stroke-width="1.231"/><path d="M18.051 14.569a8.964 8.964 0 0 1-7.452 3.848c-4.138 0-7.666-2.128-7.666-6.371 0-2.65 1.97-5.554 4.76-6.414" stroke="#272E80" stroke-width="1.231"/><path d="M18.051 14.569a8.964 8.964 0 0 1-7.452 3.848c-4.138 0-7.666-2.128-7.666-6.371 0-2.65 1.97-5.554 4.76-6.414" stroke="#272E80" stroke-width="1.231"/><path d="M18.051 14.57c-1.332 1.916-3.84 3.834-7.438 3.834-4.138 0-7.666-2.129-7.666-6.372 0-2.636 1.97-5.554 4.747-6.4" stroke="#272E7F" stroke-width="1.231"/><path d="M18.051 14.57a8.968 8.968 0 0 1-7.438 3.834c-4.123 0-7.666-2.129-7.666-6.372 0-2.636 1.97-5.54 4.747-6.4" stroke="#272E7F" stroke-width="1.231"/><path d="M18.051 14.57a8.968 8.968 0 0 1-7.438 3.834c-4.123 0-7.666-2.129-7.666-6.372 0-2.636 1.956-5.54 4.747-6.4" stroke="#272E7F" stroke-width="1.231"/><path d="M18.051 14.57a8.968 8.968 0 0 1-7.438 3.834c-4.123 0-7.666-2.129-7.666-6.372 0-2.636 1.956-5.54 4.733-6.4" stroke="#272E7F" stroke-width="1.231"/><path d="M18.051 14.569a8.968 8.968 0 0 1-7.438 3.834c-4.123 0-7.666-2.128-7.666-6.371 0-2.636 1.956-5.54 4.733-6.386" stroke="#272D7F" stroke-width="1.231"/><path d="M18.051 14.57c-1.332 1.916-3.854 3.82-7.438 3.82-4.123 0-7.666-2.143-7.666-6.372 0-2.636 1.956-5.526 4.733-6.386" stroke="#272D7F" stroke-width="1.231"/><path d="M18.051 14.57c-1.332 1.916-3.854 3.82-7.424 3.82-4.138 0-7.665-2.129-7.665-6.372 0-2.636 1.955-5.526 4.732-6.386" stroke="#262D7E" stroke-width="1.231"/><path d="M18.051 14.569c-1.346 1.917-3.854 3.82-7.424 3.82-4.138 0-7.665-2.142-7.665-6.371 0-2.636 1.955-5.526 4.718-6.372" stroke="#262D7E" stroke-width="1.231"/><path d="M18.051 14.569c-1.346 1.917-3.854 3.82-7.424 3.82-4.123 0-7.665-2.142-7.665-6.371 0-2.636 1.955-5.526 4.718-6.372" stroke="#262D7E" stroke-width="1.231"/><path d="M18.051 14.569c-1.346 1.917-3.854 3.82-7.424 3.82-4.123 0-7.665-2.142-7.665-6.371 0-2.636 1.955-5.512 4.718-6.372" stroke="#262D7E" stroke-width="1.231"/><path d="M18.051 14.569c-1.346 1.903-3.854 3.806-7.424 3.806-4.123.014-7.651-2.143-7.651-6.357 0-2.636 1.955-5.512 4.704-6.372" stroke="#262D7E" stroke-width="1.231"/><path d="M18.051 14.569c-1.346 1.903-3.854 3.806-7.424 3.806-4.123 0-7.651-2.143-7.651-6.357 0-2.622 1.955-5.512 4.704-6.358" stroke="#262D7D" stroke-width="1.231"/><path d="M18.051 14.569c-1.346 1.903-3.854 3.806-7.41 3.806-4.123 0-7.665-2.143-7.665-6.371 0-2.622 1.94-5.512 4.704-6.358" stroke="#262D7D" stroke-width="1.231"/><path d="M18.051 14.569c-1.346 1.903-3.854 3.806-7.41 3.806-4.123 0-7.665-2.157-7.665-6.371 0-2.622 1.94-5.498 4.69-6.358" stroke="#262D7D" stroke-width="1.231"/><path d="M18.051 14.569c-1.346 1.903-3.854 3.806-7.41 3.806-4.123 0-7.651-2.157-7.651-6.357 0-2.622 1.941-5.498 4.69-6.358" stroke="#262D7D" stroke-width="1.231"/><path d="M18.051 14.569a8.983 8.983 0 0 1-7.41 3.792c-4.123 0-7.651-2.157-7.651-6.357 0-2.622 1.941-5.498 4.69-6.344" stroke="#262D7D" stroke-width="1.231"/><path d="M18.051 14.569a8.983 8.983 0 0 1-7.41 3.792c-4.123 0-7.651-2.157-7.651-6.357 0-2.622 1.941-5.498 4.676-6.344" stroke="#262C7D" stroke-width="1.231"/><path d="M18.051 14.569a8.983 8.983 0 0 1-7.41 3.792c-4.123 0-7.651-2.157-7.651-6.357 0-2.622 1.941-5.484 4.676-6.344" stroke="#262C7C" stroke-width="1.231"/><path d="M18.051 14.569a8.997 8.997 0 0 1-7.396 3.792c-4.123 0-7.651-2.157-7.651-6.357 0-2.622 1.941-5.484 4.676-6.344" stroke="#262C7C" stroke-width="1.231"/><path d="M18.051 14.57a8.997 8.997 0 0 1-7.396 3.791c-4.123 0-7.651-2.157-7.651-6.357 0-2.622 1.941-5.484 4.676-6.33" stroke="#262C7C" stroke-width="1.231"/><path d="M18.051 14.57a8.988 8.988 0 0 1-7.396 3.777c-4.123 0-7.651-2.157-7.651-6.357 0-2.608 1.941-5.47 4.661-6.33" stroke="#262C7C" stroke-width="1.231"/><path d="M18.051 14.57a8.988 8.988 0 0 1-7.396 3.777c-4.123 0-7.651-2.157-7.651-6.357 0-2.608 1.941-5.47 4.661-6.33" stroke="#262C7C" stroke-width="1.231"/><path d="M18.051 14.57a8.988 8.988 0 0 1-7.396 3.777c-4.123 0-7.651-2.17-7.651-6.357.014-2.608 1.941-5.47 4.661-6.33" stroke="#252C7C" stroke-width="1.231"/><path d="M18.051 14.57a9.024 9.024 0 0 1-7.396 3.777c-4.123 0-7.651-2.17-7.651-6.357.014-2.608 1.941-5.47 4.661-6.33" stroke="#252C7B" stroke-width="1.231"/><path d="M18.051 14.57c-1.346 1.888-3.868 3.777-7.382 3.777-4.123 0-7.65-2.17-7.65-6.357 0-2.622 1.926-5.47 4.646-6.316" stroke="#252C7B" stroke-width="1.231"/><path d="M18.051 14.57a9.008 9.008 0 0 1-7.382 3.763c-4.123 0-7.65-2.171-7.65-6.358 0-2.607 1.926-5.455 4.646-6.3" stroke="#252C7B" stroke-width="1.231"/><path d="M18.051 14.57a9.008 9.008 0 0 1-7.382 3.763c-4.123 0-7.65-2.171-7.65-6.358 0-2.607 1.94-5.455 4.646-6.3" stroke="#252C7B" stroke-width="1.231"/><path d="M18.051 14.57a9.008 9.008 0 0 1-7.382 3.763c-4.123 0-7.65-2.171-7.65-6.358.013-2.607 1.94-5.455 4.646-6.3" stroke="#252C7B" stroke-width="1.231"/><path d="M18.051 14.57a9.008 9.008 0 0 1-7.382 3.763c-4.123 0-7.65-2.171-7.65-6.358.013-2.607 1.94-5.455 4.646-6.3" stroke="#252C7A" stroke-width="1.231"/><path d="M18.051 14.57a9 9 0 0 1-7.368 3.763c-4.123 0-7.65-2.171-7.65-6.358 0-2.607 1.926-5.455 4.632-6.3" stroke="#252B7A" stroke-width="1.231"/><path d="M18.051 14.569a8.992 8.992 0 0 1-7.368 3.75c-4.123 0-7.65-2.185-7.65-6.358 0-2.608 1.926-5.441 4.618-6.3" stroke="#252B7A" stroke-width="1.231"/><path d="M18.051 14.569a8.992 8.992 0 0 1-7.368 3.75c-4.123 0-7.65-2.185-7.65-6.358 0-2.608 1.926-5.441 4.618-6.287" stroke="#252B7A" stroke-width="1.231"/><path d="M18.051 14.569a8.992 8.992 0 0 1-7.368 3.75c-4.123 0-7.65-2.185-7.65-6.358 0-2.594 1.926-5.441 4.618-6.287" stroke="#252B7A" stroke-width="1.231"/><path d="M18.051 14.569a8.991 8.991 0 0 1-7.368 3.75c-4.123 0-7.636-2.185-7.636-6.358 0-2.594 1.912-5.427 4.604-6.287" stroke="#252B7A" stroke-width="1.231"/><path d="M18.051 14.57a8.991 8.991 0 0 1-7.368 3.749c-4.123 0-7.636-2.185-7.636-6.344 0-2.593 1.912-5.427 4.604-6.287" stroke="#252B79" stroke-width="1.231"/><path d="M18.051 14.57a8.975 8.975 0 0 1-7.353 3.735c-4.124 0-7.637-2.185-7.637-6.344 0-2.593 1.913-5.427 4.605-6.273" stroke="#252B79" stroke-width="1.231"/><path d="M18.065 14.57a9.033 9.033 0 0 1-7.353 3.735c-4.123 0-7.637-2.185-7.637-6.344 0-2.593 1.913-5.427 4.59-6.273" stroke="#252B79" stroke-width="1.231"/><path d="M18.065 14.57a9.033 9.033 0 0 1-7.353 3.735c-4.123 0-7.637-2.185-7.637-6.344 0-2.593 1.913-5.413 4.59-6.273" stroke="#252B79" stroke-width="1.231"/><path d="M18.065 14.57a9.033 9.033 0 0 1-7.353 3.735c-4.123 0-7.637-2.2-7.637-6.344 0-2.593 1.913-5.413 4.59-6.273" stroke="#242B79" stroke-width="1.231"/><path d="M18.065 14.569a9.033 9.033 0 0 1-7.353 3.735c-4.123 0-7.637-2.199-7.637-6.343 0-2.594 1.913-5.413 4.576-6.259" stroke="#242B78" stroke-width="1.231"/><path d="M18.065 14.57a9.034 9.034 0 0 1-7.353 3.722c-4.123-.001-7.637-2.2-7.637-6.345 0-2.594 1.913-5.413 4.576-6.259" stroke="#242B78" stroke-width="1.231"/><path d="M18.065 14.57a9.017 9.017 0 0 1-7.339 3.72c-4.109 0-7.637-2.198-7.637-6.343 0-2.594 1.913-5.399 4.577-6.259" stroke="#242A78" stroke-width="1.231"/><path d="M18.065 14.57a9.017 9.017 0 0 1-7.339 3.72c-4.109 0-7.637-2.198-7.637-6.343 0-2.58 1.913-5.399 4.562-6.259" stroke="#242A78" stroke-width="1.231"/><path d="M18.065 14.569a9.017 9.017 0 0 1-7.339 3.721c-4.109 0-7.637-2.199-7.637-6.343 0-2.58 1.899-5.4 4.562-6.245" stroke="#242A78" stroke-width="1.231"/><path d="M18.065 14.569a9.017 9.017 0 0 1-7.339 3.721c-4.109 0-7.637-2.199-7.637-6.343 0-2.58 1.899-5.4 4.562-6.245" stroke="#242A78" stroke-width="1.231"/><path d="M18.065 14.57a9.008 9.008 0 0 1-7.339 3.707c-4.109 0-7.637-2.2-7.637-6.344 0-2.58 1.899-5.385 4.562-6.245" stroke="#242A77" stroke-width="1.231"/><path d="M18.065 14.57a9.008 9.008 0 0 1-7.339 3.707c-4.109 0-7.637-2.2-7.637-6.344 0-2.58 1.899-5.385 4.548-6.245" stroke="#242A77" stroke-width="1.231"/><path d="M18.065 14.569a9.011 9.011 0 0 1-7.325 3.707c-4.109 0-7.637-2.213-7.637-6.343 0-2.58 1.899-5.385 4.548-6.23" stroke="#242A77" stroke-width="1.231"/><path d="M18.065 14.569a9.011 9.011 0 0 1-7.325 3.707c-4.109 0-7.637-2.213-7.637-6.343 0-2.58 1.899-5.385 4.534-6.23" stroke="#242A77" stroke-width="1.231"/><path d="M18.065 14.569a9.038 9.038 0 0 1-7.325 3.707c-4.109 0-7.637-2.213-7.637-6.343 0-2.58 1.899-5.371 4.534-6.23" stroke="#242A77" stroke-width="1.231"/><path d="M18.065 14.57a9.029 9.029 0 0 1-7.325 3.692c-4.109 0-7.637-2.213-7.637-6.343 0-2.58 1.899-5.37 4.534-6.23" stroke="#242A76" stroke-width="1.231"/><path d="M18.065 14.569a9.029 9.029 0 0 1-7.325 3.693c-4.109 0-7.637-2.213-7.637-6.343 0-2.58 1.899-5.371 4.534-6.217" stroke="#242A76" stroke-width="1.231"/><path d="M18.065 14.569a9.03 9.03 0 0 1-7.325 3.693c-4.109 0-7.622-2.213-7.622-6.343 0-2.58 1.898-5.371 4.52-6.217" stroke="#242A76" stroke-width="1.231"/><path d="M18.065 14.569a9.022 9.022 0 0 1-7.31 3.693c-4.11 0-7.623-2.213-7.623-6.33 0-2.565 1.898-5.37 4.52-6.216" stroke="#242A76" stroke-width="1.231"/><path d="M18.065 14.569a9.043 9.043 0 0 1-7.31 3.693c-4.11 0-7.623-2.213-7.623-6.33 0-2.565 1.884-5.356 4.52-6.216" stroke="#232976" stroke-width="1.231"/><path d="M18.065 14.569a9.034 9.034 0 0 1-7.31 3.68c-4.11 0-7.623-2.228-7.623-6.33 0-2.566 1.884-5.357 4.505-6.203" stroke="#232976" stroke-width="1.231"/><path d="M18.065 14.57a9.035 9.035 0 0 1-7.31 3.679c-4.11 0-7.623-2.228-7.623-6.33 0-2.565 1.884-5.356 4.505-6.202" stroke="#232975" stroke-width="1.231"/><path d="M18.065 14.57a9.035 9.035 0 0 1-7.31 3.679c-4.11 0-7.623-2.228-7.623-6.33 0-2.565 1.884-5.356 4.505-6.202" stroke="#232975" stroke-width="1.231"/><path d="M18.065 14.57a9.035 9.035 0 0 1-7.31 3.679c-4.11 0-7.623-2.228-7.623-6.33 0-2.565 1.884-5.342 4.505-6.202" stroke="#232975" stroke-width="1.231"/><path d="M18.065 14.569a9.027 9.027 0 0 1-7.297 3.68c-4.108 0-7.622-2.228-7.622-6.33-.014-2.58 1.87-5.357 4.491-6.203" stroke="#232975" stroke-width="1.231"/><path d="M18.065 14.569a9.018 9.018 0 0 1-7.297 3.665c-4.108 0-7.622-2.227-7.622-6.33 0-2.565 1.87-5.342 4.491-6.188" stroke="#232975" stroke-width="1.231"/><path d="M18.065 14.569a9.018 9.018 0 0 1-7.297 3.665c-4.108 0-7.622-2.227-7.622-6.33 0-2.565 1.884-5.342 4.491-6.188" stroke="#232975" stroke-width="1.231"/><path d="M18.065 14.569a9.056 9.056 0 0 1-7.297 3.665c-4.108 0-7.622-2.227-7.622-6.33 0-2.565 1.884-5.328 4.477-6.188" stroke="#232974" stroke-width="1.231"/><path d="M18.065 14.57a9.056 9.056 0 0 1-7.297 3.665c-4.108 0-7.622-2.228-7.622-6.33 0-2.551 1.884-5.328 4.477-6.174" stroke="#232974" stroke-width="1.231"/><path d="M18.065 14.57a9.056 9.056 0 0 1-7.297 3.665c-4.108 0-7.622-2.242-7.622-6.33 0-2.551 1.87-5.328 4.477-6.174" stroke="#232974" stroke-width="1.231"/><path d="M18.065 14.569a9.04 9.04 0 0 1-7.283 3.65c-4.108 0-7.622-2.24-7.622-6.328 0-2.552 1.87-5.329 4.463-6.175" stroke="#232974" stroke-width="1.231"/><path d="M18.065 14.57a9.04 9.04 0 0 1-7.283 3.65c-4.108 0-7.622-2.241-7.622-6.329 0-2.551 1.87-5.314 4.463-6.16" stroke="#232874" stroke-width="1.231"/><path d="M18.065 14.57a9.04 9.04 0 0 1-7.283 3.65c-4.108 0-7.622-2.241-7.622-6.329 0-2.551 1.87-5.314 4.463-6.16" stroke="#232873" stroke-width="1.231"/><path d="M18.065 14.57a9.04 9.04 0 0 1-7.283 3.65c-4.108 0-7.622-2.241-7.622-6.329 0-2.551 1.87-5.314 4.449-6.16" stroke="#232873" stroke-width="1.231"/><path d="M18.065 14.57a9.04 9.04 0 0 1-7.283 3.65c-4.108 0-7.622-2.241-7.622-6.329 0-2.551 1.87-5.314 4.449-6.16" stroke="#232873" stroke-width="1.231"/><path d="M18.065 14.57c-1.346 1.846-3.896 3.636-7.283 3.636-4.108 0-7.622-2.241-7.622-6.33 0-2.55 1.87-5.3 4.449-6.145" stroke="#222873" stroke-width="1.231"/><path d="M18.065 14.57a9.024 9.024 0 0 1-7.268 3.636c-4.109 0-7.609-2.241-7.609-6.33 0-2.55 1.87-5.3 4.45-6.145" stroke="#222873" stroke-width="1.231"/><path d="M18.065 14.57c-1.346 1.846-3.91 3.636-7.268 3.636-4.109 0-7.609-2.255-7.609-6.33 0-2.55 1.87-5.3 4.435-6.145" stroke="#222873" stroke-width="1.231"/><path d="M18.065 14.57c-1.346 1.846-3.91 3.636-7.268 3.636-4.109 0-7.609-2.255-7.609-6.315 0-2.551 1.87-5.3 4.435-6.146" stroke="#222872" stroke-width="1.231"/><path d="M18.065 14.569c-1.346 1.847-3.91 3.637-7.268 3.637-4.109 0-7.609-2.256-7.609-6.315 0-2.538 1.856-5.287 4.435-6.132" stroke="#222872" stroke-width="1.231"/><path d="M18.065 14.57c-1.346 1.832-3.91 3.622-7.268 3.622-4.109 0-7.609-2.255-7.609-6.315 0-2.537 1.856-5.286 4.42-6.132" stroke="#222872" stroke-width="1.231"/><path d="M18.065 14.57c-1.346 1.832-3.91 3.622-7.268 3.622-4.109 0-7.609-2.255-7.609-6.315 0-2.537 1.856-5.286 4.42-6.132" stroke="#222872" stroke-width="1.231"/><path d="M18.065 14.57a9.068 9.068 0 0 1-7.254 3.622c-4.109 0-7.608-2.255-7.608-6.315 0-2.537 1.856-5.286 4.42-6.132" stroke="#222872" stroke-width="1.231"/><path d="M18.065 14.569a9.068 9.068 0 0 1-7.254 3.623c-4.109 0-7.608-2.256-7.608-6.316 0-2.537 1.856-5.272 4.406-6.117" stroke="#222871" stroke-width="1.231"/><path d="M18.065 14.569a9.068 9.068 0 0 1-7.254 3.623c-4.109 0-7.608-2.256-7.608-6.316 0-2.537 1.856-5.272 4.406-6.117" stroke="#222771" stroke-width="1.231"/><path d="M18.065 14.57c-1.346 1.832-3.91 3.608-7.254 3.608-4.109 0-7.608-2.27-7.608-6.315 0-2.537 1.856-5.272 4.406-6.118" stroke="#222771" stroke-width="1.231"/><path d="M18.065 14.57c-1.346 1.832-3.91 3.608-7.254 3.608-4.095 0-7.608-2.27-7.608-6.315 0-2.537 1.856-5.272 4.392-6.118" stroke="#222771" stroke-width="1.231"/><path d="M18.065 14.57c-1.346 1.832-3.91 3.608-7.254 3.608-4.095 0-7.608-2.27-7.608-6.315 0-2.537 1.856-5.258 4.392-6.104" stroke="#222771" stroke-width="1.231"/><path d="M18.065 14.57c-1.346 1.832-3.91 3.608-7.24 3.608-4.095 0-7.608-2.27-7.608-6.315 0-2.537 1.856-5.258 4.392-6.104" stroke="#222771" stroke-width="1.231"/><path d="M18.065 14.57c-1.346 1.832-3.91 3.608-7.24 3.608-4.095 0-7.608-2.27-7.608-6.315 0-2.523 1.856-5.258 4.392-6.104" stroke="#222770" stroke-width="1.231"/><path d="M18.065 14.57c-1.346 1.832-3.91 3.594-7.24 3.594-4.095 0-7.608-2.27-7.608-6.315 0-2.523 1.842-5.258 4.378-6.104" stroke="#222770" stroke-width="1.231"/><path d="M18.065 14.57c-1.346 1.832-3.91 3.594-7.24 3.594-4.095 0-7.608-2.27-7.608-6.315 0-2.524 1.842-5.244 4.378-6.09" stroke="#212770" stroke-width="1.231"/><path d="M18.065 14.57c-1.346 1.832-3.91 3.594-7.24 3.594-4.095 0-7.608-2.27-7.608-6.315 0-2.524 1.842-5.244 4.378-6.09" stroke="#212770" stroke-width="1.231"/><path d="M18.065 14.555c-1.346 1.819-3.91 3.595-7.24 3.595-4.095 0-7.608-2.27-7.608-6.315 0-2.523 1.842-5.244 4.364-6.09" stroke="#212770" stroke-width="1.231"/><path d="M18.065 14.555c-1.346 1.818-3.924 3.595-7.226 3.595-4.094 0-7.594-2.27-7.594-6.301 0-2.524 1.842-5.244 4.364-6.09" stroke="#21276F" stroke-width="1.231"/><path d="M18.065 14.555c-1.346 1.818-3.924 3.58-7.226 3.58-4.094.015-7.594-2.27-7.594-6.3 0-2.524 1.842-5.23 4.364-6.076" stroke="#21276F" stroke-width="1.231"/><path d="M18.065 14.555c-1.346 1.818-3.924 3.58-7.226 3.58-4.094.015-7.594-2.27-7.594-6.3 0-2.524 1.842-5.23 4.35-6.076" stroke="#21266F" stroke-width="1.231"/><path d="M18.065 14.555c-1.346 1.818-3.924 3.58-7.226 3.58-4.094.015-7.594-2.27-7.594-6.3 0-2.524 1.842-5.23 4.35-6.076" stroke="#21266F" stroke-width="1.231"/><path d="M18.08 14.555c-1.347 1.818-3.925 3.58-7.226 3.58-4.095 0-7.61-2.283-7.61-6.3 0-2.524 1.843-5.23 4.35-6.076" stroke="#21266F" stroke-width="1.231"/><path d="M18.08 14.555c-1.347 1.819-3.925 3.58-7.226 3.58-4.095 0-7.595-2.283-7.595-6.3 0-2.524 1.842-5.216 4.35-6.062" stroke="#21266F" stroke-width="1.231"/><path d="M18.08 14.555c-1.346 1.818-3.925 3.566-7.212 3.566-4.095 0-7.595-2.283-7.595-6.3 0-2.51 1.828-5.217 4.336-6.062" stroke="#21266E" stroke-width="1.231"/><path d="M18.08 14.555c-1.346 1.818-3.925 3.566-7.212 3.566-4.095 0-7.595-2.283-7.595-6.3 0-2.51 1.828-5.217 4.336-6.062" stroke="#21266E" stroke-width="1.231"/><path d="M18.08 14.555c-1.346 1.818-3.925 3.566-7.212 3.566-4.095 0-7.595-2.297-7.595-6.3 0-2.51 1.828-5.217 4.336-6.062" stroke="#21266E" stroke-width="1.231"/><path d="M18.08 14.555c-1.346 1.818-3.925 3.566-7.212 3.566-4.095 0-7.595-2.297-7.595-6.3 0-2.51 1.828-5.202 4.322-6.048" stroke="#21266E" stroke-width="1.231"/><path d="M18.08 14.555c-1.346 1.818-3.925 3.566-7.212 3.566-4.095 0-7.595-2.297-7.595-6.3 0-2.51 1.828-5.202 4.322-6.048" stroke="#21266E" stroke-width="1.231"/><path d="M18.08 14.555c-1.346 1.818-3.925 3.552-7.212 3.552-4.095 0-7.595-2.298-7.595-6.3 0-2.51 1.828-5.203 4.322-6.048" stroke="#21266E" stroke-width="1.231"/><path d="M18.08 14.555c-1.347 1.804-3.925 3.552-7.198 3.552-4.095 0-7.595-2.298-7.595-6.3 0-2.51 1.828-5.203 4.308-6.048" stroke="#21266D" stroke-width="1.231"/><path d="M18.08 14.555c-1.347 1.804-3.925 3.552-7.198 3.552-4.095 0-7.595-2.297-7.595-6.3 0-2.51 1.828-5.188 4.308-6.034" stroke="#20266D" stroke-width="1.231"/><path d="M18.08 14.555c-1.347 1.804-3.925 3.552-7.198 3.552-4.095 0-7.595-2.297-7.595-6.3 0-2.51 1.828-5.188 4.308-6.034" stroke="#20266D" stroke-width="1.231"/><path d="M18.08 14.555c-1.347 1.804-3.925 3.552-7.198 3.552-4.095 0-7.595-2.297-7.595-6.3 0-2.51 1.828-5.188 4.294-6.034" stroke="#20256D" stroke-width="1.231"/><path d="M18.08 14.555c-1.347 1.804-3.925 3.538-7.198 3.538-4.095 0-7.595-2.298-7.595-6.3 0-2.496 1.814-5.189 4.294-6.034" stroke="#20256D" stroke-width="1.231"/><path d="M18.08 14.555c-1.347 1.804-3.925 3.538-7.198 3.538-4.095 0-7.595-2.312-7.595-6.3 0-2.496 1.814-5.174 4.294-6.02" stroke="#20256C" stroke-width="1.231"/><path d="M18.08 14.555c-1.346 1.804-3.94 3.538-7.184 3.538-4.095 0-7.594-2.312-7.594-6.3 0-2.496 1.813-5.174 4.293-6.02" stroke="#20256C" stroke-width="1.231"/><path d="M18.08 14.555c-1.36 1.804-3.94 3.538-7.184 3.538-4.095 0-7.594-2.312-7.594-6.3 0-2.496 1.813-5.174 4.279-6.02" stroke="#20256C" stroke-width="1.231"/><path d="M18.08 14.555c-1.36 1.804-3.94 3.538-7.184 3.538-4.095 0-7.58-2.312-7.58-6.3 0-2.496 1.813-5.174 4.279-6.02" stroke="#20256C" stroke-width="1.231"/><path d="M18.08 14.555c-1.36 1.804-3.94 3.524-7.184 3.524-4.095 0-7.58-2.312-7.58-6.3 0-2.496 1.813-5.16 4.279-6.006" stroke="#20256C" stroke-width="1.231"/><path d="M18.08 14.555c-1.36 1.804-3.94 3.524-7.184 3.524-4.095 0-7.58-2.312-7.58-6.3 0-2.496 1.813-5.16 4.265-6.006" stroke="#20256C" stroke-width="1.231"/><path d="M18.08 14.555c-1.36 1.805-3.94 3.524-7.184 3.524-4.095 0-7.58-2.312-7.58-6.287 0-2.495 1.813-5.16 4.265-6.005" stroke="#20256B" stroke-width="1.231"/><path d="M18.08 14.555c-1.36 1.805-3.94 3.524-7.17 3.524-4.094 0-7.58-2.312-7.58-6.287 0-2.495 1.814-5.16 4.265-6.005" stroke="#20256B" stroke-width="1.231"/><path d="M18.08 14.555c-1.36 1.79-3.94 3.524-7.17 3.524-4.094 0-7.58-2.326-7.58-6.287 0-2.495 1.814-5.145 4.25-5.99" stroke="#20256B" stroke-width="1.231"/><path d="M18.08 14.555c-1.36 1.79-3.94 3.51-7.17 3.51-4.094 0-7.58-2.326-7.58-6.287 0-2.48 1.814-5.145 4.25-5.99" stroke="#20256B" stroke-width="1.231"/><path d="M18.08 14.555c-1.36 1.79-3.94 3.51-7.17 3.51-4.094 0-7.58-2.326-7.58-6.287 0-2.48 1.8-5.145 4.25-5.99" stroke="#20256B" stroke-width="1.231"/><path d="M18.08 14.555c-1.36 1.79-3.94 3.51-7.17 3.51-4.094 0-7.58-2.326-7.58-6.287 0-2.48 1.8-5.145 4.236-5.99" stroke="#20246A" stroke-width="1.231"/><path d="M18.08 14.555c-1.36 1.79-3.94 3.51-7.156 3.51-4.094 0-7.58-2.326-7.58-6.287 0-2.48 1.8-5.13 4.236-5.977" stroke="#1F246A" stroke-width="1.231"/><path d="M18.08 14.555c-1.36 1.79-3.94 3.51-7.156 3.51-4.094 0-7.58-2.326-7.58-6.287 0-2.48 1.8-5.13 4.236-5.977" stroke="#1F246A" stroke-width="1.231"/><path d="M18.08 14.555c-1.36 1.79-3.94 3.496-7.156 3.496-4.094 0-7.58-2.326-7.58-6.287 0-2.48 1.8-5.13 4.236-5.977" stroke="#1F246A" stroke-width="1.231"/><path d="M18.08 14.555c-1.36 1.79-3.94 3.496-7.156 3.496-4.08 0-7.58-2.326-7.58-6.287 0-2.48 1.8-5.13 4.222-5.977" stroke="#1F246A" stroke-width="1.231"/><path d="M18.08 14.555c-1.36 1.79-3.94 3.496-7.156 3.496-4.08 0-7.58-2.34-7.58-6.287 0-2.48 1.8-5.117 4.222-5.963" stroke="#1F246A" stroke-width="1.231"/><path d="M18.08 14.555c-1.36 1.79-3.94 3.496-7.156 3.496-4.08 0-7.58-2.34-7.58-6.287 0-2.48 1.8-5.117 4.222-5.963" stroke="#1F2469" stroke-width="1.231"/><path d="M18.08 14.555c-1.36 1.79-3.94 3.496-7.142 3.496-4.08 0-7.58-2.34-7.58-6.287 0-2.48 1.8-5.117 4.208-5.963" stroke="#1F2469" stroke-width="1.231"/><path d="M18.08 14.555c-1.36 1.79-3.954 3.482-7.142 3.482-4.08 0-7.58-2.34-7.58-6.287 0-2.481 1.8-5.117 4.208-5.963" stroke="#1F2469" stroke-width="1.231"/><path d="M18.08 14.555c-1.36 1.79-3.954 3.482-7.142 3.482-4.08 0-7.58-2.34-7.58-6.287 0-2.467 1.786-5.103 4.208-5.949" stroke="#1F2469" stroke-width="1.231"/><path d="M18.08 14.555c-1.36 1.776-3.954 3.482-7.142 3.482-4.08 0-7.58-2.34-7.58-6.287 0-2.467 1.786-5.103 4.194-5.949" stroke="#1F2469" stroke-width="1.231"/><path d="M18.08 14.555c-1.36 1.776-3.954 3.482-7.141 3.482-4.081 0-7.567-2.34-7.567-6.287 0-2.467 1.786-5.103 4.194-5.949" stroke="#1F2468" stroke-width="1.231"/><path d="M18.08 14.555c-1.36 1.776-3.954 3.482-7.141 3.482-4.081 0-7.567-2.34-7.567-6.287 0-2.467 1.786-5.089 4.194-5.935" stroke="#1F2368" stroke-width="1.231"/><path d="M18.08 14.555c-1.36 1.776-3.954 3.468-7.127 3.468-4.08 0-7.566-2.34-7.566-6.287-.015-2.453 1.77-5.075 4.18-5.92" stroke="#1F2368" stroke-width="1.231"/><path d="M18.08 14.555c-1.36 1.776-3.954 3.468-7.127 3.468-4.081 0-7.566-2.34-7.566-6.273 0-2.467 1.785-5.089 4.18-5.935" stroke="#1F2368" stroke-width="1.231"/><path d="M18.08 14.555c-1.36 1.776-3.954 3.468-7.127 3.468-4.081 0-7.566-2.34-7.566-6.273 0-2.467 1.785-5.089 4.18-5.935" stroke="#1F2368" stroke-width="1.231"/><path d="M18.08 14.555c-1.36 1.776-3.954 3.468-7.127 3.468-4.081 0-7.566-2.354-7.566-6.273 0-2.467 1.785-5.089 4.18-5.935" stroke="#1F2368" stroke-width="1.231"/><path d="M18.08 14.555c-1.36 1.776-3.954 3.468-7.127 3.468-4.081 0-7.566-2.354-7.566-6.287 0-2.467 1.785-5.075 4.165-5.92" stroke="#1E2367" stroke-width="1.231"/><path d="M18.08 14.555c-1.36 1.776-3.954 3.454-7.127 3.454-4.081 0-7.566-2.354-7.566-6.273 0-2.467 1.785-5.075 4.165-5.92" stroke="#1E2367" stroke-width="1.231"/><path d="M18.08 14.555c-1.36 1.776-3.954 3.454-7.113 3.454-4.08 0-7.566-2.354-7.566-6.273 0-2.453 1.785-5.075 4.165-5.92" stroke="#1E2367" stroke-width="1.231"/><path d="M18.08 14.555c-1.36 1.776-3.954 3.454-7.113 3.454-4.08 0-7.566-2.354-7.566-6.273 0-2.453 1.77-5.075 4.151-5.906" stroke="#1E2367" stroke-width="1.231"/><path d="M18.08 14.555c-1.36 1.776-3.954 3.454-7.113 3.454-4.08 0-7.566-2.354-7.566-6.273 0-2.453 1.77-5.06 4.151-5.906" stroke="#1E2367" stroke-width="1.231"/><path d="M18.08 14.555c-1.36 1.776-3.954 3.454-7.113 3.454-4.08 0-7.566-2.368-7.566-6.273 0-2.453 1.77-5.06 4.151-5.906" stroke="#1E2367" stroke-width="1.231"/><path d="M18.08 14.555c-1.36 1.762-3.954 3.44-7.113 3.44-4.08 0-7.566-2.368-7.566-6.273 0-2.453 1.77-5.06 4.137-5.907" stroke="#1E2366" stroke-width="1.231"/><path d="M18.08 14.555c-1.36 1.762-3.954 3.44-7.113 3.44-4.08 0-7.566-2.369-7.566-6.273 0-2.453 1.77-5.06 4.137-5.892" stroke="#1E2366" stroke-width="1.231"/><path d="M18.08 14.555c-1.36 1.762-3.954 3.44-7.099 3.44-4.08 0-7.566-2.369-7.566-6.273 0-2.453 1.771-5.047 4.137-5.892" stroke="#1E2266" stroke-width="1.231"/><path d="M18.08 14.555c-1.36 1.762-3.968 3.44-7.099 3.44-4.08 0-7.566-2.369-7.566-6.273 0-2.453 1.771-5.047 4.123-5.892" stroke="#1E2266" stroke-width="1.231"/><path d="M18.08 14.555c-1.36 1.762-3.968 3.44-7.099 3.44-4.08 0-7.566-2.369-7.566-6.273 0-2.453 1.771-5.047 4.123-5.892" stroke="#1E2266" stroke-width="1.231"/><path d="M18.08 14.555c-1.36 1.762-3.968 3.426-7.099 3.426-4.08 0-7.566-2.369-7.566-6.273 0-2.453 1.771-5.047 4.123-5.878" stroke="#1E2265" stroke-width="1.231"/><path d="M18.08 14.555c-1.36 1.762-3.968 3.426-7.099 3.426-4.08 0-7.566-2.369-7.566-6.273 0-2.453 1.771-5.033 4.123-5.878" stroke="#1E2265" stroke-width="1.231"/><path d="M18.08 14.555c-1.36 1.762-3.968 3.426-7.099 3.426-4.08 0-7.552-2.369-7.552-6.273 0-2.439 1.757-5.033 4.11-5.878" stroke="#1E2265" stroke-width="1.231"/><path d="M18.08 14.555c-1.36 1.762-3.968 3.426-7.085 3.426-4.08 0-7.552-2.383-7.552-6.273 0-2.439 1.757-5.033 4.11-5.878" stroke="#1E2265" stroke-width="1.231"/><path d="M18.08 14.555c-1.36 1.762-3.968 3.425-7.085 3.425-4.08 0-7.552-2.382-7.552-6.273 0-2.438 1.757-5.032 4.11-5.864" stroke="#1E2265" stroke-width="1.231"/><path d="M18.094 14.555c-1.36 1.762-3.968 3.425-7.085 3.425-4.08 0-7.551-2.382-7.551-6.273 0-2.438 1.757-5.018 4.094-5.864" stroke="#1D2265" stroke-width="1.231"/><path d="M18.094 14.555c-1.36 1.762-3.968 3.411-7.085 3.411-4.08 0-7.551-2.382-7.551-6.259 0-2.438 1.757-5.018 4.094-5.864" stroke="#1D2264" stroke-width="1.231"/><path d="M18.094 14.555c-1.36 1.762-3.968 3.411-7.085 3.411-4.08 0-7.551-2.382-7.551-6.259 0-2.438 1.757-5.018 4.094-5.864" stroke="#1D2264" stroke-width="1.231"/><path d="M18.094 14.555c-1.36 1.748-3.968 3.411-7.085 3.411-4.08 0-7.551-2.382-7.551-6.259 0-2.438 1.757-5.018 4.08-5.85" stroke="#1D2264" stroke-width="1.231"/><path d="M18.094 14.555c-1.36 1.748-3.968 3.411-7.07 3.411-4.08 0-7.552-2.382-7.552-6.259 0-2.438 1.757-5.018 4.08-5.85" stroke="#1D2164" stroke-width="1.231"/><path d="M18.094 14.555c-1.36 1.748-3.968 3.411-7.07 3.411-4.08 0-7.552-2.382-7.552-6.259 0-2.438 1.757-5.004 4.08-5.85" stroke="#1D2164" stroke-width="1.231"/><path d="M18.094 14.555c-1.36 1.748-3.968 3.397-7.07 3.397-4.08 0-7.552-2.396-7.552-6.259 0-2.438 1.757-5.004 4.066-5.85" stroke="#1D2163" stroke-width="1.231"/><path d="M18.094 14.555c-1.36 1.748-3.968 3.398-7.07 3.398-4.08 0-7.552-2.397-7.552-6.26 0-2.424 1.743-5.003 4.066-5.835" stroke="#1D2163" stroke-width="1.231"/><path d="M18.094 14.555c-1.36 1.748-3.968 3.398-7.07 3.398-4.08 0-7.552-2.397-7.552-6.26 0-2.424 1.743-5.003 4.066-5.835" stroke="#1D2163" stroke-width="1.231"/><path d="M18.094 14.555c-1.36 1.748-3.968 3.398-7.07 3.398-4.08 0-7.552-2.397-7.552-6.26 0-2.424 1.743-4.99 4.066-5.835" stroke="#1D2163" stroke-width="1.231"/><path d="M18.094 14.555c-1.36 1.748-3.968 3.398-7.056 3.398-4.08 0-7.552-2.397-7.552-6.26 0-2.424 1.743-4.99 4.052-5.835" stroke="#1D2163" stroke-width="1.231"/><path d="M18.094 14.555c-1.36 1.748-3.982 3.383-7.056 3.383-4.067 0-7.552-2.396-7.552-6.258 0-2.425 1.743-4.99 4.052-5.822" stroke="#1D2163" stroke-width="1.231"/><path d="M18.094 14.555c-1.36 1.748-3.982 3.383-7.056 3.383-4.067 0-7.552-2.396-7.552-6.258 0-2.425 1.743-4.99 4.052-5.822" stroke="#1D2162" stroke-width="1.231"/><path d="M18.094 14.555c-1.36 1.748-3.982 3.383-7.056 3.383-4.067 0-7.552-2.396-7.552-6.258 0-2.425 1.743-4.976 4.038-5.822" stroke="#1D2162" stroke-width="1.231"/><path d="M18.094 14.555c-1.36 1.748-3.982 3.383-7.056 3.383-4.067 0-7.552-2.41-7.552-6.258 0-2.425 1.743-4.976 4.038-5.822" stroke="#1D2162" stroke-width="1.231"/><path d="M18.094 14.555c-1.36 1.748-3.982 3.383-7.056 3.383-4.067 0-7.552-2.41-7.552-6.259 0-2.424 1.743-4.976 4.038-5.807" stroke="#1D2162" stroke-width="1.231"/><path d="M18.094 14.555c-1.36 1.748-3.982 3.369-7.042 3.369-4.066 0-7.538-2.41-7.538-6.259 0-2.424 1.743-4.976 4.024-5.808" stroke="#1C2162" stroke-width="1.231"/><path d="M18.094 14.555c-1.36 1.734-3.982 3.369-7.042 3.369-4.066 0-7.538-2.41-7.538-6.259 0-2.424 1.743-4.962 4.024-5.808" stroke="#1C2061" stroke-width="1.231"/><path d="M18.094 14.555c-1.36 1.734-3.982 3.369-7.042 3.369-4.066 0-7.538-2.41-7.538-6.259 0-2.41 1.729-4.962 4.024-5.808" stroke="#1C2061" stroke-width="1.231"/><path d="M18.094 14.555c-1.36 1.734-3.982 3.369-7.042 3.369-4.066 0-7.538-2.41-7.538-6.259 0-2.41 1.729-4.962 4.01-5.793" stroke="#1C2061" stroke-width="1.231"/><path d="M18.094 14.555c-1.36 1.734-3.982 3.37-7.042 3.37-4.066 0-7.538-2.411-7.538-6.246 0-2.41 1.729-4.961 4.01-5.793" stroke="#1C2061" stroke-width="1.231"/><path d="M18.094 14.555c-1.36 1.734-3.982 3.355-7.042 3.355-4.066 0-7.538-2.41-7.538-6.245 0-2.41 1.729-4.948 4.01-5.793" stroke="#1C2061" stroke-width="1.231"/><path d="M18.094 14.555c-1.36 1.734-3.982 3.355-7.028 3.355-4.066 0-7.538-2.41-7.538-6.245 0-2.41 1.73-4.948 4.01-5.793" stroke="#1C2061" stroke-width="1.231"/><path d="M18.094 14.555c-1.36 1.734-3.982 3.355-7.028 3.355-4.066 0-7.538-2.425-7.538-6.259 0-2.41 1.73-4.948 3.996-5.78" stroke="#1C2060" stroke-width="1.231"/><path d="M18.094 14.555c-1.36 1.734-3.982 3.355-7.028 3.355-4.066 0-7.538-2.425-7.538-6.259 0-2.41 1.73-4.948 3.996-5.78" stroke="#1C2060" stroke-width="1.231"/><path d="M18.094 14.555c-1.36 1.734-3.982 3.355-7.028 3.355-4.066-.014-7.538-2.44-7.538-6.26 0-2.41 1.73-4.934 3.996-5.78" stroke="#1C2060" stroke-width="1.231"/><path d="M18.094 14.555c-1.36 1.734-3.982 3.34-7.028 3.34-4.066 0-7.538-2.424-7.538-6.244 0-2.41 1.73-4.934 3.982-5.78" stroke="#1C2060" stroke-width="1.231"/><path d="M18.094 14.555c-1.36 1.734-3.982 3.34-7.028 3.34-4.066 0-7.538-2.424-7.538-6.244 0-2.41 1.73-4.933 3.982-5.765" stroke="#1C2060" stroke-width="1.231"/><path d="M18.094 14.555c-1.36 1.734-3.996 3.34-7.014 3.34-4.066 0-7.538-2.424-7.538-6.244 0-2.396 1.715-4.933 3.982-5.765" stroke="#1C2060" stroke-width="1.231"/><path d="M18.094 14.555c-1.36 1.734-3.996 3.34-7.014 3.34-4.066 0-7.538-2.424-7.538-6.244 0-2.396 1.715-4.92 3.968-5.765" stroke="#1C1F5F" stroke-width="1.231"/><path d="M18.094 14.555c-1.36 1.72-3.996 3.34-7.014 3.34-4.066 0-7.538-2.424-7.538-6.244 0-2.396 1.715-4.92 3.968-5.765" stroke="#1C1F5F" stroke-width="1.231"/><path d="M18.094 14.555c-1.36 1.72-3.996 3.327-7.014 3.327-4.066 0-7.538-2.439-7.538-6.245 0-2.396 1.715-4.92 3.968-5.751" stroke="#1C1F5F" stroke-width="1.231"/><path d="M18.094 14.555c-1.36 1.72-3.996 3.327-7.014 3.327-4.066 0-7.538-2.439-7.538-6.245 0-2.396 1.715-4.92 3.954-5.751" stroke="#1B1F5F" stroke-width="1.231"/><path d="M18.094 14.555c-1.36 1.72-3.996 3.327-7.014 3.327-4.066 0-7.538-2.439-7.538-6.245 0-2.396 1.715-4.905 3.954-5.751" stroke="#1B1F5F" stroke-width="1.231"/><path d="M18.094 14.555c-1.36 1.72-3.996 3.327-7 3.327-4.066 0-7.537-2.439-7.537-6.245 0-2.396 1.714-4.905 3.953-5.751" stroke="#1B1F5E" stroke-width="1.231"/><path d="M18.094 14.555c-1.36 1.72-3.996 3.327-7 3.327-4.066 0-7.523-2.439-7.523-6.245 0-2.396 1.714-4.905 3.953-5.737" stroke="#1B1F5E" stroke-width="1.231"/><path d="M18.094 14.555c-1.36 1.72-3.996 3.313-7 3.313-4.066 0-7.523-2.439-7.523-6.245 0-2.396 1.714-4.905 3.939-5.737" stroke="#1B1F5E" stroke-width="1.231"/><path d="M18.094 14.555c-1.36 1.72-3.996 3.313-7 3.313-4.066 0-7.523-2.439-7.523-6.245 0-2.396 1.714-4.891 3.939-5.737" stroke="#1B1F5E" stroke-width="1.231"/><path d="M18.094 14.555c-1.36 1.72-3.996 3.313-7 3.313-4.066 0-7.523-2.439-7.523-6.245 0-2.396 1.7-4.891 3.939-5.723" stroke="#1B1F5E" stroke-width="1.231"/><path d="M18.094 14.555c-1.36 1.72-3.996 3.313-7 3.313-4.066 0-7.523-2.439-7.523-6.23 0-2.383 1.7-4.892 3.925-5.724" stroke="#1B1F5E" stroke-width="1.231"/><path d="M18.094 14.555c-1.36 1.72-3.996 3.313-6.986 3.313-4.066 0-7.523-2.453-7.523-6.23 0-2.383 1.7-4.892 3.925-5.724" stroke="#1B1F5D" stroke-width="1.231"/><path d="M18.094 14.555c-1.36 1.72-3.996 3.299-6.986 3.299-4.066 0-7.523-2.453-7.523-6.231 0-2.382 1.7-4.877 3.925-5.723" stroke="#1B1F5D" stroke-width="1.231"/><path d="M18.094 14.555c-1.36 1.72-3.996 3.299-6.986 3.299-4.066 0-7.523-2.453-7.523-6.23 0-2.383 1.7-4.878 3.91-5.71" stroke="#1B1E5D" stroke-width="1.231"/><path d="M18.094 14.555c-1.36 1.706-3.996 3.299-6.986 3.299-4.066 0-7.523-2.453-7.523-6.23 0-2.383 1.7-4.878 3.91-5.71" stroke="#1B1E5D" stroke-width="1.231"/><path d="M18.094 14.555c-1.36 1.706-3.996 3.299-6.986 3.299-4.066 0-7.523-2.453-7.523-6.23 0-2.383 1.7-4.878 3.91-5.71" stroke="#1B1E5D" stroke-width="1.231"/><path d="M18.094 14.555c-1.36 1.706-3.996 3.299-6.986 3.299-4.066 0-7.523-2.453-7.523-6.23 0-2.383 1.7-4.864 3.91-5.71" stroke="#1B1E5C" stroke-width="1.231"/><path d="M18.094 14.555c-1.36 1.706-4.01 3.285-6.971 3.285-4.067 0-7.524-2.453-7.524-6.231 0-2.382 1.7-4.863 3.897-5.695" stroke="#1B1E5C" stroke-width="1.231"/><path d="M18.094 14.555c-1.36 1.706-4.01 3.285-6.971 3.285-4.067 0-7.524-2.453-7.524-6.231 0-2.382 1.7-4.863 3.897-5.695" stroke="#1B1E5C" stroke-width="1.231"/><path d="M18.093 14.555c-1.36 1.706-4.01 3.285-6.97 3.285-4.053 0-7.51-2.467-7.51-6.245 0-2.382 1.7-4.863 3.897-5.695" stroke="#1A1E5C" stroke-width="1.231"/><path d="M18.093 14.555c-1.36 1.706-4.01 3.285-6.97 3.285-4.053-.015-7.51-2.467-7.51-6.245 0-2.368 1.686-4.85 3.882-5.695" stroke="#1A1E5C" stroke-width="1.231"/><path d="M18.093 14.555c-1.36 1.706-4.01 3.285-6.97 3.285-4.053-.014-7.51-2.481-7.51-6.245 0-2.368 1.686-4.85 3.882-5.68" stroke="#1A1E5C" stroke-width="1.231"/><path d="M18.093 14.555c-1.36 1.706-4.01 3.27-6.956 3.27-4.067 0-7.524-2.466-7.524-6.23 0-2.368 1.686-4.85 3.882-5.68" stroke="#1A1E5B" stroke-width="1.231"/><path d="M18.093 14.555c-1.36 1.706-4.01 3.27-6.956 3.27-4.053 0-7.524-2.466-7.524-6.23 0-2.368 1.686-4.85 3.868-5.68" stroke="#1A1E5B" stroke-width="1.231"/><path d="M18.094 14.555c-1.36 1.706-4.01 3.27-6.957 3.27-4.052 0-7.51-2.466-7.51-6.23 0-2.368 1.686-4.835 3.869-5.68" stroke="#1A1E5B" stroke-width="1.231"/><path d="M18.094 14.555c-1.36 1.705-4.01 3.27-6.957 3.27-4.052 0-7.51-2.467-7.51-6.23 0-2.369 1.686-4.835 3.869-5.667" stroke="#1A1D5B" stroke-width="1.231"/><path d="M18.094 14.555c-1.36 1.705-4.01 3.27-6.957 3.27-4.052 0-7.51-2.467-7.51-6.23 0-2.369 1.686-4.835 3.854-5.667" stroke="#1A1D5B" stroke-width="1.231"/><path d="M18.108 14.555c-1.36 1.692-4.01 3.256-6.957 3.256-4.052 0-7.51-2.466-7.51-6.23 0-2.368 1.687-4.835 3.855-5.667" stroke="#1A1D5A" stroke-width="1.231"/><path d="M18.108 14.555c-1.36 1.692-4.01 3.256-6.943 3.256-4.052 0-7.51-2.48-7.51-6.23 0-2.368 1.687-4.821 3.855-5.667" stroke="#1A1D5A" stroke-width="1.231"/><path d="M18.108 14.555c-1.36 1.691-4.01 3.256-6.943 3.256-4.052 0-7.51-2.48-7.51-6.23 0-2.369 1.687-4.821 3.855-5.653" stroke="#1A1D5A" stroke-width="1.231"/><path d="M18.108 14.555c-1.375 1.692-4.01 3.256-6.943 3.256-4.052 0-7.51-2.48-7.51-6.216 0-2.368 1.673-4.821 3.84-5.653" stroke="#1A1D5A" stroke-width="1.231"/><path d="M18.108 14.54c-1.375 1.692-4.01 3.257-6.943 3.257-4.052 0-7.51-2.481-7.51-6.217 0-2.354 1.673-4.82 3.84-5.652" stroke="#1A1D5A" stroke-width="1.231"/><path d="M18.108 14.541c-1.375 1.692-4.01 3.242-6.943 3.242-4.052 0-7.51-2.48-7.51-6.216 0-2.355 1.673-4.807 3.84-5.653" stroke="#1A1D5A" stroke-width="1.231"/><path d="M18.108 14.54c-1.375 1.692-4.01 3.243-6.943 3.243-4.052 0-7.51-2.481-7.51-6.217 0-2.354 1.673-4.806 3.826-5.638" stroke="#1A1D59" stroke-width="1.231"/><path d="M18.108 14.54c-1.375 1.692-4.01 3.243-6.929 3.243-4.052 0-7.509-2.481-7.509-6.217 0-2.354 1.672-4.806 3.826-5.638" stroke="#1A1D59" stroke-width="1.231"/><path d="M18.108 14.54c-1.375 1.692-4.024 3.243-6.929 3.243-4.052 0-7.509-2.481-7.509-6.217 0-2.354 1.672-4.806 3.826-5.638" stroke="#191D59" stroke-width="1.231"/><path d="M18.108 14.54c-1.375 1.692-4.024 3.243-6.929 3.243-4.052 0-7.509-2.495-7.509-6.217 0-2.354 1.672-4.792 3.811-5.638" stroke="#191D59" stroke-width="1.231"/><path d="M18.108 14.54c-1.375 1.692-4.024 3.229-6.929 3.229-4.052 0-7.509-2.495-7.509-6.217 0-2.354 1.672-4.792 3.811-5.624" stroke="#191D59" stroke-width="1.231"/><path d="M18.108 14.54c-1.375 1.692-4.024 3.229-6.929 3.229-4.052 0-7.509-2.495-7.509-6.217 0-2.354 1.672-4.792 3.811-5.624" stroke="#191C58" stroke-width="1.231"/><path d="M18.108 14.54c-1.375 1.692-4.024 3.229-6.929 3.229-4.052 0-7.509-2.495-7.509-6.217 0-2.354 1.672-4.792 3.797-5.624" stroke="#191C58" stroke-width="1.231"/><path d="M18.108 14.54c-1.375 1.678-4.024 3.229-6.914 3.229-4.053 0-7.51-2.495-7.51-6.217 0-2.354 1.672-4.778 3.797-5.624" stroke="#191C58" stroke-width="1.231"/><path d="M18.108 14.541c-1.375 1.678-4.024 3.228-6.914 3.228-4.053 0-7.51-2.495-7.51-6.216 0-2.34 1.658-4.779 3.797-5.61" stroke="#191C58" stroke-width="1.231"/><path d="M18.108 14.54c-1.375 1.678-4.024 3.215-6.914 3.215-4.053 0-7.51-2.495-7.51-6.217 0-2.34 1.658-4.778 3.797-5.61" stroke="#191C58" stroke-width="1.231"/><path d="M18.108 14.54c-1.375 1.678-4.024 3.215-6.915 3.215-4.052 0-7.495-2.495-7.495-6.217 0-2.34 1.658-4.778 3.783-5.61" stroke="#191C58" stroke-width="1.231"/><path d="M18.108 14.54c-1.375 1.678-4.024 3.215-6.915 3.215-4.052 0-7.495-2.51-7.495-6.217 0-2.34 1.658-4.764 3.783-5.61" stroke="#191C57" stroke-width="1.231"/><path d="M18.108 14.541c-1.375 1.678-4.024 3.214-6.915 3.214-4.052 0-7.495-2.51-7.495-6.216 0-2.34 1.658-4.765 3.783-5.597" stroke="#191C57" stroke-width="1.231"/><path d="M18.108 14.541c-1.375 1.678-4.024 3.214-6.9 3.214-4.053 0-7.496-2.51-7.496-6.216 0-2.34 1.658-4.765 3.77-5.597" stroke="#191C57" stroke-width="1.231"/><path d="M18.108 14.541c-1.375 1.677-4.024 3.2-6.9 3.2-4.053 0-7.496-2.51-7.496-6.216 0-2.34 1.658-4.765 3.77-5.597" stroke="#191C57" stroke-width="1.231"/><path d="M18.108 14.541c-1.375 1.677-4.024 3.2-6.9 3.2-4.053 0-7.496-2.51-7.496-6.216 0-2.34 1.658-4.751 3.77-5.597" stroke="#191C57" stroke-width="1.231"/><path d="M18.108 14.541c-1.375 1.678-4.024 3.2-6.9 3.2-4.053 0-7.496-2.51-7.496-6.202 0-2.34 1.658-4.75 3.755-5.582" stroke="#191C57" stroke-width="1.231"/><path d="M18.108 14.541c-1.375 1.678-4.024 3.2-6.9 3.2-4.053 0-7.496-2.51-7.496-6.202 0-2.34 1.658-4.75 3.755-5.582" stroke="#191B56" stroke-width="1.231"/><path d="M18.108 14.541c-1.375 1.678-4.024 3.2-6.9 3.2-4.053 0-7.496-2.51-7.496-6.202 0-2.34 1.658-4.75 3.755-5.582" stroke="#181B56" stroke-width="1.231"/><path d="M18.108 14.54c-1.375 1.678-4.024 3.187-6.886 3.187-4.052 0-7.495-2.51-7.495-6.203-.014-2.326 1.643-4.736 3.74-5.568" stroke="#181B56" stroke-width="1.231"/><path d="M18.108 14.54c-1.375 1.664-4.038 3.187-6.886 3.187-4.052 0-7.495-2.524-7.495-6.203 0-2.326 1.643-4.736 3.74-5.568" stroke="#181B56" stroke-width="1.231"/><path d="M18.108 14.54c-1.375 1.664-4.038 3.187-6.886 3.187-4.052 0-7.495-2.524-7.495-6.203 0-2.326 1.643-4.736 3.74-5.568" stroke="#181B56" stroke-width="1.231"/><path d="M18.108 14.54c-1.375 1.664-4.038 3.187-6.886 3.187-4.052 0-7.495-2.524-7.495-6.203 0-2.326 1.643-4.736 3.74-5.568" stroke="#181B55" stroke-width="1.231"/><path d="M18.108 14.54c-1.375 1.664-4.038 3.187-6.886 3.187-4.052 0-7.495-2.524-7.495-6.203 0-2.326 1.643-4.736 3.74-5.568" stroke="#181B55" stroke-width="1.231"/><path d="M18.108 14.54c-1.375 1.664-4.038 3.172-6.886 3.172-4.052 0-7.495-2.523-7.495-6.202.014-2.312 1.658-4.722 3.74-5.554" stroke="#181B55" stroke-width="1.231"/><path d="M18.108 14.54c-1.375 1.664-4.038 3.172-6.872 3.172-4.052 0-7.495-2.523-7.495-6.202 0-2.312 1.643-4.722 3.726-5.554" stroke="#181B55" stroke-width="1.231"/><path d="M18.108 14.54c-1.375 1.664-4.038 3.172-6.872 3.172-4.052 0-7.495-2.523-7.495-6.202 0-2.312 1.643-4.708 3.712-5.554" stroke="#181B55" stroke-width="1.231"/><path d="M18.108 14.54c-1.375 1.664-4.038 3.172-6.872 3.172-4.052 0-7.495-2.523-7.495-6.202 0-2.326 1.643-4.708 3.712-5.554" stroke="#181B55" stroke-width="1.231"/><path d="M18.108 14.541c-1.375 1.663-4.038 3.172-6.872 3.172-4.052 0-7.495-2.538-7.495-6.203 0-2.326 1.63-4.708 3.712-5.54" stroke="#181B54" stroke-width="1.231"/><path d="M18.108 14.54c-1.375 1.664-4.038 3.158-6.872 3.158-4.038 0-7.481-2.537-7.481-6.202 0-2.312 1.63-4.708 3.698-5.54" stroke="#181B54" stroke-width="1.231"/><path d="M18.108 14.54c-1.375 1.664-4.038 3.158-6.872 3.158-4.038 0-7.481-2.537-7.481-6.202 0-2.312 1.63-4.708 3.698-5.54" stroke="#181A54" stroke-width="1.231"/><path d="M18.108 14.54c-1.375 1.664-4.038 3.158-6.858 3.158-4.038 0-7.48-2.537-7.48-6.202 0-2.312 1.629-4.694 3.697-5.54" stroke="#181A54" stroke-width="1.231"/><path d="M18.108 14.541c-1.375 1.663-4.038 3.157-6.858 3.157-4.038 0-7.48-2.537-7.48-6.202 0-2.312 1.629-4.694 3.683-5.526" stroke="#181A54" stroke-width="1.231"/><path d="M18.108 14.541c-1.375 1.65-4.038 3.157-6.858 3.157-4.038 0-7.48-2.537-7.48-6.202 0-2.312 1.629-4.694 3.683-5.526" stroke="#181A53" stroke-width="1.231"/><path d="M18.108 14.54c-1.375 1.65-4.038 3.144-6.858 3.144-4.038 0-7.48-2.537-7.48-6.202 0-2.312 1.629-4.694 3.683-5.526" stroke="#171A53" stroke-width="1.231"/><path d="M18.108 14.54c-1.375 1.65-4.038 3.144-6.858 3.144-4.038 0-7.48-2.537-7.48-6.202 0-2.312 1.629-4.68 3.683-5.526" stroke="#171A53" stroke-width="1.231"/><path d="M18.108 14.541c-1.375 1.65-4.038 3.143-6.858 3.143-4.038 0-7.48-2.537-7.48-6.188 0-2.312 1.629-4.68 3.669-5.512" stroke="#171A53" stroke-width="1.231"/><path d="M18.108 14.541c-1.375 1.65-4.038 3.143-6.844 3.143-4.038 0-7.48-2.551-7.48-6.188 0-2.312 1.629-4.68 3.669-5.512" stroke="#171A53" stroke-width="1.231"/><path d="M18.108 14.541c-1.375 1.65-4.053 3.143-6.844 3.143-4.038 0-7.48-2.551-7.48-6.188 0-2.312 1.629-4.68 3.669-5.512" stroke="#171A53" stroke-width="1.231"/><path d="M18.108 14.541c-1.375 1.65-4.053 3.13-6.844 3.13-4.038 0-7.48-2.552-7.48-6.189 0-2.298 1.615-4.666 3.655-5.498" stroke="#171A52" stroke-width="1.231"/><path d="M18.108 14.541c-1.375 1.65-4.053 3.13-6.844 3.13-4.038 0-7.48-2.552-7.48-6.189 0-2.298 1.615-4.666 3.655-5.498" stroke="#171A52" stroke-width="1.231"/><path d="M18.108 14.541c-1.375 1.65-4.053 3.13-6.844 3.13-4.038 0-7.48-2.552-7.48-6.189 0-2.298 1.615-4.666 3.655-5.498" stroke="#171A52" stroke-width="1.231"/><path d="M18.108 14.541c-1.375 1.65-4.053 3.13-6.844 3.13-4.038 0-7.48-2.552-7.48-6.189 0-2.298 1.615-4.666 3.64-5.498" stroke="#171952" stroke-width="1.231"/><path d="M18.108 14.541c-1.375 1.65-4.053 3.13-6.83 3.13-4.038 0-7.48-2.552-7.48-6.189 0-2.298 1.615-4.666 3.64-5.483" stroke="#171952" stroke-width="1.231"/><path d="M18.108 14.541c-1.375 1.65-4.053 3.115-6.83 3.115-4.038 0-7.48-2.551-7.48-6.188 0-2.298 1.615-4.652 3.64-5.484" stroke="#171951" stroke-width="1.231"/><path d="M18.108 14.541c-1.375 1.65-4.052 3.115-6.83 3.115-4.037 0-7.466-2.551-7.466-6.188 0-2.298 1.615-4.652 3.627-5.484" stroke="#171951" stroke-width="1.231"/><path d="M18.108 14.541c-1.375 1.65-4.053 3.115-6.815 3.115-4.052 0-7.481-2.565-7.481-6.188 0-2.298 1.615-4.652 3.627-5.484" stroke="#171951" stroke-width="1.231"/><path d="M18.108 14.541c-1.375 1.635-4.053 3.115-6.815 3.115-4.038 0-7.481-2.565-7.481-6.188 0-2.298 1.615-4.652 3.627-5.47" stroke="#171951" stroke-width="1.231"/><path d="M18.108 14.541c-1.375 1.635-4.053 3.115-6.815 3.115-4.038 0-7.481-2.565-7.481-6.188 0-2.298 1.615-4.638 3.627-5.47" stroke="#171951" stroke-width="1.231"/><path d="M18.108 14.541c-1.375 1.635-4.052 3.101-6.815 3.101-4.038 0-7.467-2.565-7.467-6.188 0-2.298 1.6-4.638 3.613-5.47" stroke="#171951" stroke-width="1.231"/><path d="M18.108 14.541c-1.375 1.635-4.052 3.101-6.815 3.101-4.038 0-7.467-2.565-7.467-6.188 0-2.284 1.6-4.638 3.613-5.47" stroke="#161950" stroke-width="1.231"/><path d="M18.122 14.541c-1.375 1.635-4.052 3.101-6.815 3.101-4.038 0-7.467-2.565-7.467-6.188 0-2.284 1.601-4.638 3.613-5.455" stroke="#161950" stroke-width="1.231"/><path d="M18.122 14.541c-1.375 1.635-4.052 3.101-6.815 3.101-4.038 0-7.467-2.565-7.467-6.188 0-2.284 1.601-4.624 3.599-5.455" stroke="#161950" stroke-width="1.231"/><path d="M18.122 14.541c-1.375 1.635-4.052 3.101-6.815 3.101-4.038 0-7.467-2.58-7.467-6.188 0-2.284 1.601-4.624 3.599-5.455" stroke="#161950" stroke-width="1.231"/><path d="M18.122 14.541c-1.375 1.635-4.052 3.087-6.815 3.087-4.038 0-7.467-2.58-7.467-6.188 0-2.284 1.601-4.624 3.599-5.456" stroke="#161950" stroke-width="1.231"/><path d="M18.122 14.541c-1.374 1.635-4.066 3.087-6.8 3.087-4.039 0-7.468-2.58-7.468-6.174 0-2.284 1.601-4.624 3.585-5.441" stroke="#161850" stroke-width="1.231"/><path d="M18.122 14.541c-1.374 1.635-4.066 3.087-6.8 3.087-4.039 0-7.468-2.58-7.468-6.174 0-2.284 1.601-4.61 3.585-5.441" stroke="#16184F" stroke-width="1.231"/><path d="M18.122 14.541c-1.374 1.635-4.066 3.087-6.8 3.087-4.039 0-7.468-2.58-7.468-6.174 0-2.284 1.601-4.61 3.585-5.441" stroke="#16184F" stroke-width="1.231"/><path d="M18.122 14.541c-1.374 1.635-4.066 3.087-6.8 3.087-4.039 0-7.468-2.58-7.468-6.174 0-2.284 1.601-4.61 3.57-5.441" stroke="#16184F" stroke-width="1.231"/><path d="M18.122 14.541c-1.374 1.621-4.066 3.073-6.8 3.073-4.039 0-7.468-2.58-7.468-6.174 0-2.284 1.587-4.61 3.57-5.427" stroke="#16184F" stroke-width="1.231"/><path d="M18.122 14.541c-1.374 1.621-4.066 3.073-6.8 3.073-4.039 0-7.468-2.58-7.468-6.174 0-2.27 1.587-4.596 3.57-5.427" stroke="#16184F" stroke-width="1.231"/><path d="M18.122 14.541c-1.374 1.621-4.066 3.073-6.787 3.073-4.038 0-7.466-2.58-7.466-6.174 0-2.27 1.586-4.596 3.57-5.427" stroke="#16184E" stroke-width="1.231"/><path d="M18.122 14.541c-1.374 1.621-4.066 3.073-6.787 3.073-4.038 0-7.466-2.594-7.466-6.174 0-2.27 1.586-4.596 3.556-5.427" stroke="#16184E" stroke-width="1.231"/><path d="M18.122 14.54c-1.374 1.622-4.066 3.074-6.787 3.074-4.038 0-7.466-2.594-7.466-6.175 0-2.269 1.586-4.595 3.556-5.413" stroke="#16184E" stroke-width="1.231"/><path d="M18.122 14.541c-1.374 1.621-4.066 3.059-6.787 3.059-4.038 0-7.466-2.594-7.466-6.174 0-2.27 1.586-4.582 3.556-5.413" stroke="#16184E" stroke-width="1.231"/><path d="M18.122 14.541c-1.374 1.621-4.066 3.059-6.787 3.059-4.038 0-7.466-2.594-7.466-6.174 0-2.27 1.586-4.582 3.542-5.413" stroke="#16184E" stroke-width="1.231"/><path d="M18.122 14.541c-1.374 1.621-4.066 3.059-6.787 3.059-4.038 0-7.466-2.594-7.466-6.174 0-2.27 1.586-4.582 3.542-5.413" stroke="#15184E" stroke-width="1.231"/><path d="M18.122 14.54c-1.375 1.622-4.066 3.06-6.772 3.06-4.039 0-7.453-2.594-7.453-6.175 0-2.27 1.587-4.581 3.542-5.399" stroke="#15174D" stroke-width="1.231"/><path d="M18.122 14.54c-1.375 1.622-4.066 3.06-6.772 3.06-4.039 0-7.453-2.594-7.453-6.175 0-2.27 1.587-4.567 3.528-5.399" stroke="#15174D" stroke-width="1.231"/><path d="M18.122 14.541c-1.375 1.621-4.066 3.045-6.772 3.045-4.024 0-7.453-2.594-7.453-6.174 0-2.27 1.587-4.568 3.528-5.4" stroke="#15174D" stroke-width="1.231"/><path d="M18.122 14.541c-1.375 1.621-4.066 3.045-6.772 3.045-4.024 0-7.453-2.608-7.453-6.174 0-2.27 1.572-4.568 3.528-5.4" stroke="#15174D" stroke-width="1.231"/><path d="M18.122 14.54c-1.375 1.622-4.066 3.046-6.772 3.046-4.024 0-7.453-2.608-7.453-6.175 0-2.255 1.572-4.567 3.528-5.385" stroke="#15174D" stroke-width="1.231"/><path d="M18.122 14.54c-1.375 1.608-4.066 3.046-6.758 3.046-4.024 0-7.453-2.608-7.453-6.175 0-2.255 1.573-4.553 3.514-5.385" stroke="#15174C" stroke-width="1.231"/><path d="M18.122 14.54c-1.375 1.608-4.08 3.046-6.758 3.046-4.024 0-7.453-2.608-7.453-6.175 0-2.255 1.573-4.553 3.514-5.385" stroke="#15174C" stroke-width="1.231"/><path d="M18.122 14.541c-1.375 1.607-4.08 3.03-6.758 3.03-4.024 0-7.453-2.607-7.453-6.173 0-2.256 1.573-4.554 3.514-5.385" stroke="#15174C" stroke-width="1.231"/><path d="M18.122 14.541c-1.375 1.607-4.08 3.03-6.758 3.03-4.024 0-7.453-2.607-7.453-6.16 0-2.255 1.573-4.553 3.5-5.37" stroke="#15174C" stroke-width="1.231"/><path d="M18.122 14.541c-1.375 1.607-4.08 3.03-6.758 3.03-4.024 0-7.453-2.607-7.453-6.16 0-2.255 1.573-4.538 3.5-5.37" stroke="#15174C" stroke-width="1.231"/><path d="M18.122 14.541c-1.375 1.607-4.08 3.03-6.758 3.03-4.024 0-7.453-2.607-7.453-6.16 0-2.255 1.573-4.538 3.5-5.37" stroke="#15174C" stroke-width="1.231"/><path d="M18.122 14.541c-1.374 1.607-4.08 3.03-6.744 3.03-4.024 0-7.453-2.607-7.453-6.16 0-2.255 1.573-4.538 3.486-5.37" stroke="#15174B" stroke-width="1.231"/><path d="M18.122 14.541c-1.374 1.607-4.08 3.017-6.744 3.017-4.024 0-7.453-2.622-7.453-6.16 0-2.256 1.573-4.54 3.486-5.357" stroke="#15174B" stroke-width="1.231"/><path d="M18.122 14.541c-1.374 1.607-4.08 3.017-6.744 3.017-4.024 0-7.453-2.622-7.453-6.16 0-2.256 1.559-4.525 3.486-5.357" stroke="#15164B" stroke-width="1.231"/><path d="M18.122 14.541c-1.374 1.607-4.08 3.017-6.744 3.017-4.024 0-7.453-2.622-7.453-6.16 0-2.242 1.559-4.525 3.471-5.357" stroke="#15164B" stroke-width="1.231"/><path d="M18.122 14.541c-1.374 1.607-4.08 3.017-6.744 3.017-4.024 0-7.453-2.622-7.453-6.16 0-2.242 1.559-4.525 3.471-5.357" stroke="#14164B" stroke-width="1.231"/><path d="M18.122 14.54c-1.374 1.608-4.08 3.017-6.744 3.017-4.024 0-7.453-2.621-7.453-6.16 0-2.241 1.559-4.525 3.471-5.342" stroke="#14164A" stroke-width="1.231"/><path d="M18.122 14.541c-1.375 1.607-4.08 3.003-6.73 3.003-4.024 0-7.453-2.622-7.453-6.16 0-2.242 1.559-4.511 3.472-5.343" stroke="#14164A" stroke-width="1.231"/><path d="M18.122 14.541c-1.375 1.593-4.08 3.003-6.73 3.003-4.024 0-7.453-2.622-7.453-6.16 0-2.242 1.559-4.511 3.457-5.343" stroke="#14164A" stroke-width="1.231"/><path d="M18.122 14.541c-1.374 1.593-4.08 3.003-6.73 3.003-4.024 0-7.439-2.636-7.439-6.16 0-2.242 1.559-4.511 3.458-5.343" stroke="#14164A" stroke-width="1.231"/><path d="M18.122 14.54c-1.374 1.594-4.08 3.003-6.73 3.003-4.024 0-7.439-2.636-7.439-6.16 0-2.241 1.559-4.51 3.458-5.328" stroke="#14164A" stroke-width="1.231"/><path d="M18.122 14.54c-1.374 1.594-4.08 3.003-6.73 3.003-4.024-.014-7.439-2.636-7.439-6.16 0-2.241 1.559-4.497 3.443-5.328" stroke="#14164A" stroke-width="1.231"/><path d="M18.122 14.541c-1.374 1.593-4.08 2.989-6.73 2.989-4.01 0-7.439-2.636-7.439-6.16 0-2.242 1.559-4.497 3.443-5.329" stroke="#141649" stroke-width="1.231"/><path d="M18.122 14.54c-1.375 1.594-4.08 2.99-6.716 2.99-4.024 0-7.452-2.637-7.452-6.161 0-2.227 1.558-4.497 3.443-5.314" stroke="#141649" stroke-width="1.231"/><path d="M18.122 14.54c-1.375 1.594-4.095 2.99-6.716 2.99-4.024 0-7.438-2.637-7.438-6.161 0-2.241 1.544-4.497 3.429-5.314" stroke="#141649" stroke-width="1.231"/><path d="M18.122 14.54c-1.375 1.594-4.095 2.99-6.716 2.99-4.024 0-7.438-2.637-7.438-6.161 0-2.227 1.544-4.483 3.429-5.314" stroke="#141649" stroke-width="1.231"/><path d="M18.122 14.541c-1.375 1.593-4.08 2.974-6.716 2.974-4.024 0-7.438-2.636-7.438-6.16 0-2.227 1.544-4.482 3.429-5.314" stroke="#141549" stroke-width="1.231"/><path d="M18.122 14.54c-1.375 1.58-4.08 2.975-6.716 2.975-4.024 0-7.438-2.636-7.438-6.146 0-2.227 1.544-4.483 3.414-5.314" stroke="#141549" stroke-width="1.231"/><path d="M18.122 14.541c-1.375 1.58-4.08 2.975-6.702 2.975-4.024 0-7.438-2.65-7.438-6.146 0-2.228 1.544-4.483 3.414-5.3" stroke="#141548" stroke-width="1.231"/><path d="M18.122 14.541c-1.375 1.58-4.095 2.975-6.702 2.975-4.024 0-7.438-2.65-7.438-6.146 0-2.228 1.544-4.469 3.414-5.3" stroke="#141548" stroke-width="1.231"/><path d="M18.122 14.541c-1.375 1.593-4.095 2.975-6.702 2.975-4.024 0-7.438-2.65-7.438-6.146 0-2.228 1.544-4.469 3.414-5.3" stroke="#141548" stroke-width="1.231"/><path d="M18.122 14.541c-1.375 1.58-4.095 2.975-6.702 2.975-4.024 0-7.438-2.65-7.438-6.146 0-2.228 1.544-4.469 3.4-5.3" stroke="#131548" stroke-width="1.231"/><path d="M18.122 14.541c-1.389 1.58-4.095 2.96-6.702 2.96-4.024 0-7.438-2.65-7.438-6.145 0-2.228 1.544-4.47 3.4-5.287" stroke="#131548" stroke-width="1.231"/><path d="M18.122 14.541c-1.389 1.58-4.095 2.96-6.702 2.96-4.024 0-7.438-2.65-7.438-6.145 0-2.228 1.544-4.455 3.4-5.287" stroke="#131547" stroke-width="1.231"/><path d="M18.122 14.541c-1.389 1.58-4.095 2.96-6.702 2.96-4.024 0-7.438-2.65-7.438-6.145 0-2.228 1.53-4.455 3.386-5.287" stroke="#131547" stroke-width="1.231"/><path d="M18.122 14.54c-1.389 1.58-4.095 2.961-6.688 2.961-4.023 0-7.438-2.65-7.438-6.146 0-2.213 1.53-4.455 3.386-5.272" stroke="#131547" stroke-width="1.231"/><path d="M18.122 14.54c-1.389 1.58-4.095 2.961-6.688 2.961-4.023 0-7.438-2.65-7.438-6.146 0-2.213 1.53-4.455 3.386-5.272" stroke="#131547" stroke-width="1.231"/><path d="M18.122 14.541c-1.389 1.58-4.095 2.947-6.688 2.947-4.023 0-7.438-2.665-7.438-6.146 0-2.214 1.53-4.44 3.372-5.273" stroke="#131547" stroke-width="1.231"/><path d="M18.122 14.541c-1.389 1.58-4.095 2.947-6.688 2.947-4.024 0-7.424-2.665-7.424-6.146 0-2.214 1.53-4.44 3.372-5.273" stroke="#131447" stroke-width="1.231"/><path d="M18.122 14.54c-1.389 1.58-4.095 2.947-6.688 2.947-4.024 0-7.424-2.664-7.424-6.146 0-2.213 1.53-4.44 3.372-5.258" stroke="#131446" stroke-width="1.231"/><path d="M18.122 14.54c-1.389 1.58-4.095 2.947-6.688 2.947-4.024 0-7.424-2.664-7.424-6.146 0-2.213 1.53-4.44 3.358-5.258" stroke="#131446" stroke-width="1.231"/><path d="M18.136 14.54c-1.389 1.58-4.095 2.947-6.673 2.947-4.024 0-7.425-2.664-7.425-6.146 0-2.213 1.53-4.426 3.358-5.258" stroke="#131446" stroke-width="1.231"/><path d="M18.136 14.541c-1.389 1.58-4.109 2.932-6.673 2.932-4.01 0-7.425-2.664-7.425-6.146 0-2.213 1.53-4.426 3.358-5.258" stroke="#131446" stroke-width="1.231"/><path d="M18.136 14.54c-1.389 1.58-4.109 2.933-6.673 2.933-4.01 0-7.425-2.664-7.425-6.146 0-2.213 1.53-4.426 3.358-5.244" stroke="#131446" stroke-width="1.231"/><path d="M18.136 14.54c-1.389 1.566-4.109 2.933-6.673 2.933-4.01 0-7.425-2.664-7.425-6.146 0-2.213 1.516-4.426 3.344-5.244" stroke="#131445" stroke-width="1.231"/><path d="M18.136 14.54c-1.389 1.566-4.109 2.933-6.673 2.933-4.01 0-7.425-2.678-7.425-6.146 0-2.213 1.516-4.412 3.344-5.244" stroke="#131445" stroke-width="1.231"/><path d="M18.136 14.54c-1.389 1.566-4.109 2.933-6.673 2.933-4.01 0-7.425-2.678-7.425-6.146 0-2.2 1.516-4.412 3.344-5.244" stroke="#131445" stroke-width="1.231"/><path d="M18.136 14.541c-1.388 1.565-4.109 2.918-6.66 2.918-4.009 0-7.423-2.678-7.423-6.132 0-2.2 1.516-4.412 3.33-5.23" stroke="#121445" stroke-width="1.231"/><path d="M18.136 14.541c-1.388 1.565-4.109 2.918-6.66 2.918-4.009 0-7.423-2.678-7.423-6.132 0-2.2 1.516-4.412 3.33-5.23" stroke="#121445" stroke-width="1.231"/><path d="M18.136 14.541c-1.388 1.565-4.109 2.918-6.66 2.918-4.009 0-7.423-2.678-7.423-6.132 0-2.2 1.516-4.398 3.33-5.23" stroke="#121445" stroke-width="1.231"/><path d="M18.136 14.541c-1.388 1.565-4.109 2.918-6.66 2.918-4.009 0-7.423-2.678-7.423-6.132 0-2.2 1.516-4.398 3.315-5.23" stroke="#121444" stroke-width="1.231"/><path d="M18.136 14.541c-1.388 1.565-4.109 2.918-6.66 2.918-4.009 0-7.423-2.678-7.423-6.132 0-2.199 1.516-4.398 3.315-5.216" stroke="#121344" stroke-width="1.231"/><path d="M18.136 14.541c-1.388 1.565-4.109 2.904-6.66 2.904-4.009 0-7.423-2.678-7.423-6.132 0-2.2 1.516-4.398 3.315-5.216" stroke="#121344" stroke-width="1.231"/><path d="M18.136 14.527c-1.389 1.564-4.109 2.904-6.645 2.904-4.01 0-7.424-2.679-7.424-6.132 0-2.2 1.516-4.384 3.301-5.216" stroke="#121344" stroke-width="1.231"/><path d="M18.136 14.527c-1.389 1.564-4.109 2.904-6.645 2.904-4.01 0-7.424-2.693-7.424-6.132 0-2.2 1.516-4.384 3.301-5.216" stroke="#121344" stroke-width="1.231"/><path d="M18.136 14.527c-1.389 1.565-4.109 2.904-6.645 2.904-4.01 0-7.424-2.693-7.424-6.132 0-2.2 1.502-4.384 3.301-5.202" stroke="#121343" stroke-width="1.231"/><path d="M18.136 14.527c-1.389 1.565-4.109 2.904-6.645 2.904-4.01 0-7.424-2.693-7.424-6.132 0-2.185 1.502-4.384 3.301-5.202" stroke="#121343" stroke-width="1.231"/><path d="M18.136 14.527c-1.388 1.55-4.109 2.89-6.645 2.89-4.01 0-7.41-2.693-7.41-6.132 0-2.185 1.502-4.37 3.287-5.202" stroke="#121343" stroke-width="1.231"/><path d="M18.136 14.527c-1.388 1.55-4.109 2.89-6.645 2.89-4.01 0-7.41-2.693-7.41-6.132 0-2.185 1.502-4.37 3.287-5.202" stroke="#121343" stroke-width="1.231"/><path d="M18.136 14.527c-1.389 1.55-4.109 2.89-6.63 2.89-4.01 0-7.411-2.693-7.411-6.132 0-2.185 1.502-4.37 3.287-5.188" stroke="#121343" stroke-width="1.231"/><path d="M18.136 14.527c-1.389 1.55-4.123 2.89-6.63 2.89-4.01 0-7.411-2.693-7.411-6.132 0-2.185 1.502-4.37 3.273-5.188" stroke="#121343" stroke-width="1.231"/><path d="M18.136 14.527c-1.389 1.55-4.123 2.89-6.63 2.89-4.01 0-7.411-2.693-7.411-6.132 0-2.185 1.488-4.356 3.273-5.188" stroke="#121342" stroke-width="1.231"/><path d="M18.136 14.527c-1.389 1.55-4.123 2.876-6.63 2.876-4.01.014-7.411-2.693-7.411-6.118 0-2.185 1.502-4.356 3.273-5.188" stroke="#121342" stroke-width="1.231"/><path d="M18.136 14.527c-1.389 1.55-4.123 2.876-6.63 2.876-4.01.014-7.411-2.693-7.411-6.118 0-2.185 1.502-4.356 3.259-5.174" stroke="#111242" stroke-width="1.231"/><path d="M18.136 14.527c-1.389 1.55-4.123 2.876-6.63 2.876-4.01 0-7.411-2.693-7.411-6.118 0-2.185 1.502-4.356 3.259-5.174" stroke="#111242" stroke-width="1.231"/><path d="M18.136 14.527c-1.389 1.55-4.123 2.876-6.617 2.876-4.01 0-7.41-2.707-7.41-6.132 0-2.185 1.488-4.342 3.26-5.174" stroke="#111242" stroke-width="1.231"/><path d="M18.136 14.527c-1.389 1.55-4.123 2.876-6.617 2.876-4.01 0-7.41-2.707-7.41-6.118 0-2.171 1.488-4.342 3.245-5.174" stroke="#111242" stroke-width="1.231"/><path d="M18.136 14.527c-1.389 1.55-4.123 2.862-6.617 2.862-4.01 0-7.41-2.707-7.41-6.118 0-2.171 1.488-4.342 3.245-5.16" stroke="#111241" stroke-width="1.231"/><path d="M18.136 14.527c-1.389 1.55-4.123 2.862-6.617 2.862-4.01 0-7.41-2.707-7.41-6.118 0-2.171 1.488-4.342 3.245-5.16" stroke="#111241" stroke-width="1.231"/><path d="M18.136 14.527c-1.389 1.55-4.123 2.862-6.617 2.862-4.01 0-7.41-2.707-7.41-6.118 0-2.171 1.502-4.328 3.245-5.16" stroke="#111241" stroke-width="1.231"/><path d="M18.136 14.527c-1.389 1.536-4.123 2.862-6.617 2.862-4.01 0-7.41-2.721-7.41-6.118.014-2.171 1.502-4.328 3.245-5.16" stroke="#111241" stroke-width="1.231"/><path d="M18.136 14.527c-1.389 1.536-4.123 2.862-6.602 2.862-4.01 0-7.41-2.721-7.41-6.118 0-2.171 1.487-4.328 3.23-5.16" stroke="#111241" stroke-width="1.231"/><path d="M18.136 14.527c-1.389 1.536-4.123 2.847-6.602 2.847-4.01 0-7.41-2.72-7.41-6.117 0-2.157 1.487-4.314 3.23-5.146" stroke="#111240" stroke-width="1.231"/><path d="M18.136 14.527c-1.389 1.536-4.123 2.847-6.602 2.847-4.01 0-7.41-2.72-7.41-6.117 0-2.157 1.487-4.314 3.23-5.132" stroke="#111240" stroke-width="1.231"/><path d="M18.136 14.527c-1.389 1.536-4.123 2.847-6.602 2.847-4.01 0-7.41-2.72-7.41-6.117.014-2.157 1.487-4.314 3.23-5.132" stroke="#111240" stroke-width="1.231"/><path d="M18.136 14.527c-1.389 1.536-4.123 2.847-6.602 2.847-4.01 0-7.41-2.72-7.41-6.117.014-2.171 1.487-4.314 3.23-5.132" stroke="#111240" stroke-width="1.231"/><path d="M18.136 14.527c-1.389 1.536-4.123 2.847-6.588 2.847-4.01 0-7.396-2.72-7.396-6.117-.015-2.171 1.473-4.314 3.202-5.132" stroke="#111140" stroke-width="1.231"/><path d="M18.136 14.527c-1.389 1.536-4.123 2.847-6.588 2.847-4.01 0-7.396-2.72-7.396-6.117 0-2.157 1.473-4.314 3.202-5.132" stroke="#111140" stroke-width="1.231"/><path d="M18.136 14.527c-1.389 1.536-4.123 2.847-6.588 2.847-4.01 0-7.396-2.72-7.396-6.117 0-2.157 1.473-4.3 3.202-5.132" stroke="#11113F" stroke-width="1.231"/><path d="M18.136 14.527c-1.389 1.536-4.137 2.833-6.588 2.833-4.01 0-7.396-2.734-7.396-6.117 0-2.157 1.473-4.3 3.188-5.118" stroke="#10113F" stroke-width="1.231"/><path d="M18.136 14.527c-1.389 1.536-4.137 2.833-6.588 2.833-4.01 0-7.396-2.734-7.396-6.117 0-2.157 1.473-4.3 3.188-5.118" stroke="#10113F" stroke-width="1.231"/><path d="M18.136 14.527c-1.389 1.536-4.137 2.833-6.588 2.833-4.01 0-7.396-2.734-7.396-6.117 0-2.157 1.473-4.3 3.188-5.118" stroke="#10113F" stroke-width="1.231"/><path d="M18.136 14.527c-1.389 1.536-4.137 2.82-6.588 2.82-3.996 0-7.396-2.736-7.396-6.119 0-2.156 1.473-4.285 3.188-5.117" stroke="#10113F" stroke-width="1.231"/><path d="M18.136 14.527c-1.389 1.522-4.137 2.82-6.574 2.82-3.996 0-7.396-2.735-7.396-6.119 0-2.156 1.473-4.285 3.174-5.103" stroke="#10113E" stroke-width="1.231"/><path d="M18.136 14.527c-1.389 1.522-4.137 2.82-6.574 2.82-3.996 0-7.396-2.735-7.396-6.119 0-2.156 1.473-4.285 3.174-5.103" stroke="#10113E" stroke-width="1.231"/><path d="M18.136 14.527c-1.389 1.522-4.137 2.82-6.574 2.82-3.996 0-7.396-2.735-7.396-6.119 0-2.156 1.473-4.285 3.174-5.103" stroke="#10113E" stroke-width="1.231"/><path d="M18.136 14.527c-1.389 1.522-4.137 2.82-6.574 2.82-3.996 0-7.396-2.735-7.396-6.105 0-2.156 1.46-4.27 3.16-5.102" stroke="#10113E" stroke-width="1.231"/><path d="M18.136 14.527c-1.389 1.522-4.137 2.805-6.574 2.805-3.996 0-7.396-2.748-7.396-6.104 0-2.142 1.46-4.27 3.16-5.088" stroke="#10113E" stroke-width="1.231"/><path d="M18.136 14.527c-1.389 1.522-4.137 2.805-6.56 2.805-3.995 0-7.396-2.748-7.396-6.104 0-2.142 1.46-4.27 3.16-5.088" stroke="#10103E" stroke-width="1.231"/><path d="M18.136 14.527c-1.389 1.522-4.137 2.805-6.56 2.805-3.995 0-7.396-2.748-7.396-6.104 0-2.142 1.46-4.27 3.145-5.088" stroke="#10103D" stroke-width="1.231"/><path d="M18.136 14.527c-1.389 1.522-4.137 2.805-6.56 2.805-3.995 0-7.396-2.748-7.396-6.104 0-2.142 1.46-4.257 3.145-5.088" stroke="#10103D" stroke-width="1.231"/><path d="M18.136 14.527c-1.389 1.522-4.137 2.805-6.56 2.805-3.995 0-7.396-2.749-7.396-6.104 0-2.142 1.46-4.257 3.145-5.074" stroke="#10103D" stroke-width="1.231"/><path d="M18.136 14.527c-1.389 1.522-4.137 2.791-6.56 2.791-3.995 0-7.396-2.749-7.396-6.104 0-2.142 1.46-4.257 3.131-5.074" stroke="#10103D" stroke-width="1.231"/><path d="M18.136 14.527c-1.389 1.522-4.137 2.791-6.56 2.791-3.995 0-7.396-2.749-7.396-6.104 0-2.142 1.46-4.257 3.131-5.074" stroke="#10103D" stroke-width="1.231"/><path d="M18.136 14.527c-1.389 1.522-4.137 2.791-6.546 2.791-3.995 0-7.396-2.749-7.396-6.104 0-2.142 1.46-4.243 3.132-5.06" stroke="#10103C" stroke-width="1.231"/><path d="M18.136 14.527c-1.388 1.522-4.151 2.791-6.546 2.791-3.995 0-7.381-2.749-7.381-6.104 0-2.142 1.459-4.243 3.13-5.06" stroke="#0F103C" stroke-width="1.231"/><path d="M18.136 14.527c-1.388 1.508-4.151 2.791-6.546 2.791-3.995 0-7.381-2.763-7.381-6.104 0-2.142 1.445-4.243 3.117-5.06" stroke="#0F103C" stroke-width="1.231"/><path d="M18.15 14.527c-1.388 1.508-4.151 2.777-6.546 2.777-3.995 0-7.381-2.763-7.381-6.104 0-2.142 1.445-4.243 3.117-5.06" stroke="#0F103C" stroke-width="1.231"/><path d="M18.15 14.527c-1.388 1.508-4.151 2.777-6.546 2.777-3.995 0-7.381-2.763-7.381-6.104 0-2.128 1.445-4.229 3.117-5.046" stroke="#0F103C" stroke-width="1.231"/><path d="M18.15 14.527c-1.388 1.508-4.151 2.777-6.546 2.777-3.995 0-7.381-2.763-7.381-6.104 0-2.128 1.445-4.229 3.103-5.046" stroke="#0F103C" stroke-width="1.231"/><path d="M18.15 14.527c-1.388 1.508-4.151 2.777-6.531 2.777-3.996 0-7.382-2.763-7.382-6.104 0-2.128 1.445-4.229 3.103-5.046" stroke="#0F103B" stroke-width="1.231"/><path d="M18.15 14.527c-1.388 1.508-4.151 2.777-6.531 2.777-3.996 0-7.382-2.763-7.382-6.104 0-2.128 1.445-4.229 3.103-5.046" stroke="#0F0F3B" stroke-width="1.231"/><path d="M18.15 14.527c-1.388 1.508-4.15 2.763-6.53 2.763-3.996 0-7.382-2.763-7.382-6.104 0-2.128 1.445-4.215 3.089-5.032" stroke="#0F0F3B" stroke-width="1.231"/><path d="M18.15 14.527c-1.388 1.508-4.15 2.763-6.53 2.763-3.996 0-7.382-2.763-7.382-6.09 0-2.129 1.445-4.215 3.089-5.033" stroke="#0F0F3B" stroke-width="1.231"/><path d="M18.15 14.527c-1.388 1.508-4.15 2.763-6.53 2.763-3.996 0-7.382-2.763-7.382-6.09 0-2.129 1.445-4.215 3.089-5.033" stroke="#0F0F3B" stroke-width="1.231"/><path d="M18.15 14.527c-1.388 1.508-4.15 2.763-6.53 2.763-3.996 0-7.382-2.777-7.382-6.104 0-2.128 1.445-4.215 3.089-5.032" stroke="#0F0F3B" stroke-width="1.231"/><path d="M18.15 14.527c-1.388 1.508-4.15 2.763-6.517 2.763-4.01 0-7.396-2.777-7.396-6.104 0-2.129 1.43-4.2 3.074-5.019" stroke="#0F0F3A" stroke-width="1.231"/><path d="M18.15 14.527c-1.388 1.508-4.151 2.749-6.517 2.749-3.996 0-7.382-2.778-7.382-6.09 0-2.129 1.43-4.2 3.075-5.019" stroke="#0F0F3A" stroke-width="1.231"/><path d="M18.15 14.527c-1.388 1.508-4.151 2.749-6.517 2.749-3.996 0-7.382-2.778-7.382-6.09 0-2.115 1.43-4.2 3.075-5.019" stroke="#0F0F3A" stroke-width="1.231"/><path d="M18.15 14.527c-1.388 1.494-4.151 2.749-6.517 2.749-3.996 0-7.382-2.778-7.382-6.09 0-2.115 1.43-4.2 3.06-5.019" stroke="#0F0F3A" stroke-width="1.231"/><path d="M18.15 14.527c-1.388 1.494-4.151 2.749-6.517 2.749-3.996 0-7.382-2.777-7.382-6.09 0-2.115 1.43-4.187 3.06-5.004" stroke="#0F0F3A" stroke-width="1.231"/><path d="M18.15 14.527c-1.388 1.494-4.151 2.749-6.517 2.749-3.996 0-7.368-2.791-7.368-6.104 0-2.115 1.431-4.187 3.06-5.005" stroke="#0E0F39" stroke-width="1.231"/><path d="M18.15 14.527C16.762 16.02 14 17.26 11.647 17.26c-3.996 0-7.382-2.79-7.382-6.09 0-2.114 1.431-4.186 3.046-5.004" stroke="#0E0F39" stroke-width="1.231"/><path d="M18.15 14.527c-1.388 1.494-4.165 2.734-6.503 2.734-3.996 0-7.382-2.79-7.382-6.09 0-2.114 1.431-4.186 3.046-5.004" stroke="#0E0E39" stroke-width="1.231"/><path d="M18.15 14.527c-1.388 1.494-4.165 2.735-6.503 2.735-3.996 0-7.368-2.792-7.368-6.09 0-2.115 1.431-4.173 3.047-4.99" stroke="#0E0E39" stroke-width="1.231"/><path d="M18.15 14.527c-1.388 1.494-4.165 2.735-6.503 2.735-3.996 0-7.368-2.792-7.368-6.09 0-2.115 1.431-4.173 3.032-4.99" stroke="#0E0E39" stroke-width="1.231"/><path d="M18.15 14.527c-1.388 1.494-4.165 2.735-6.503 2.735-3.996 0-7.368-2.792-7.368-6.09 0-2.115 1.431-4.173 3.032-4.99" stroke="#0E0E39" stroke-width="1.231"/><path d="M18.15 14.527c-1.388 1.494-4.165 2.72-6.503 2.72-3.996 0-7.368-2.79-7.368-6.089 0-2.114 1.417-4.172 3.032-4.99" stroke="#0E0E38" stroke-width="1.231"/><path d="M18.15 14.527c-1.388 1.494-4.165 2.72-6.489 2.72-3.995 0-7.368-2.79-7.368-6.089C4.293 9.044 5.71 7 7.326 6.182" stroke="#0E0E38" stroke-width="1.231"/><path d="M18.15 14.527c-1.388 1.494-4.165 2.72-6.489 2.72-3.995 0-7.368-2.79-7.368-6.089 0-2.1 1.417-4.158 3.018-4.976" stroke="#0E0E38" stroke-width="1.231"/><path d="M16.508 5.533c1.913 1.142 3.16 2.988 3.16 5.088 0 3.466-3.415 6.285-7.622 6.285s-7.622-2.819-7.622-6.285c0-2.1 1.247-3.946 3.16-5.088h8.924Z" fill="#272E80"/><path d="M16.616 12.36h2.45v-.314h-2.62V8.598h-1.042v2.764c0 .784.395.998 1.212.998Zm-7.351 0H7.124c-.803 0-1.211-.214-1.211-.998V8.598h1.042v3.434h2c.07.1.225.27.31.328Zm3.168-3.834c-2 0-3.154.827-3.154 2.038 0 1.155 1.197 1.881 2.943 1.881.591 0 1.21-.085 1.62-.228v-.399c-.339.186-.86.314-1.353.314-1.352 0-2.112-.827-2.112-1.639 0-.97.83-1.653 2.112-1.653.437 0 .958.114 1.324.3v-.428a5.663 5.663 0 0 0-1.38-.186Z" fill="#FFD300"/><path d="M11.975 16.994c-4.21 0-7.625-2.813-7.625-6.277 0-1.513.655-2.898 1.736-3.987-1.252 1.103-2.063 2.644-2.063 4.284 0 3.647 3.372 6.29 7.596 6.29 2.632 0 5.064-1.158 6.444-2.826-1.394 1.526-3.599 2.516-6.088 2.516Z" fill="url(#a)"/><path d="M17.756 13.984h2.387v.642h-2.387v-.642Z" fill="#272E80"/><path d="m17.574 14.64.182.2.155-.114.098-.1v-.186l-.28-.085-.155.285Z" fill="#272E80"/><path d="M9.231 13.666c.113.016.17.08.17.175 0 .096-.057.144-.155.16-.029 0-.07.016-.113.016h-.296v-.638h.254a.44.44 0 0 1 .183.031c.042.032.07.064.07.128a.146.146 0 0 1-.042.096c0 .016-.028.032-.07.032Zm-.155-.032c.1 0 .155-.032.155-.112 0-.048-.014-.064-.056-.08-.014 0-.056-.016-.099-.016H8.95v.208h.126Zm-.112.08v.223h.154c.1 0 .156-.032.156-.112s-.057-.111-.17-.111h-.14Zm.986.095h-.338l-.085.192h-.113l.296-.639h.141l.31.639h-.127l-.084-.192Zm-.042-.063-.127-.288-.127.288h.254Zm.802.111s.015.016.015.032v.016-.526h.112v.638h-.14l-.353-.495s-.014-.016-.014-.032v.543h-.098v-.639h.14l.338.463Zm.775.08.197-.016v.08h-.408a.445.445 0 0 1-.254-.08.304.304 0 0 1-.098-.24c0-.095.028-.19.098-.239a.383.383 0 0 1 .254-.08c.09 0 .18.029.254.08.07.064.098.144.098.24 0 .064-.014.111-.028.16-.042.031-.07.08-.113.095Zm-.436-.255c0 .175.07.255.21.255.071 0 .128-.016.17-.064.042-.048.056-.111.056-.191 0-.176-.07-.256-.211-.256-.155 0-.225.08-.225.256Zm1 .335c-.099 0-.183-.016-.226-.064a.296.296 0 0 1-.07-.207v-.384h.113v.368c0 .08.014.127.028.16.028.031.07.047.14.047.071 0 .127-.016.141-.048.029-.032.029-.08.029-.16v-.366h.112v.383c0 .095-.028.175-.084.207-.014.048-.085.064-.183.064Zm.873-.08v.08h-.465v-.638h.451v.08h-.338v.175h.31v.064h-.31v.223h.352v.016Zm.831 0v.08h-.464v-.638h.45v.08h-.338v.175h.31v.064h-.31v.223h.352v.016Zm.606-.495h-.225v.575h-.113v-.575h-.225v-.08h.563v.08Zm.817.367h-.338l-.084.192h-.113l.296-.639h.14l.31.639h-.126l-.085-.192Zm-.042-.063-.127-.288-.127.288h.254Zm.563-.4a.72.72 0 0 1 .17.016c.014 0 .042 0 .056.017v.08a.627.627 0 0 0-.212-.049c-.098 0-.154.032-.154.08 0 .032.014.048.056.08.014 0 .056.032.14.064.071.032.114.048.142.08.042.032.056.08.056.127 0 .096-.056.16-.169.176h-.099c-.056 0-.126 0-.21-.016-.03 0-.043-.016-.057-.016v-.096a.816.816 0 0 0 .267.064c.07 0 .113-.016.141-.048.014-.016.014-.032.014-.048a.08.08 0 0 0-.056-.08c-.028-.016-.07-.032-.141-.063-.07-.032-.113-.048-.14-.08a.167.167 0 0 1-.071-.128c0-.064.028-.112.098-.128a.472.472 0 0 1 .17-.032Zm.606 0c.042 0 .099 0 .17.016.013 0 .042 0 .056.017v.08a.627.627 0 0 0-.212-.049c-.098 0-.154.032-.154.08 0 .032.013.048.056.08.014 0 .056.032.14.064.071.032.113.048.141.08.043.032.057.08.057.127 0 .096-.057.16-.17.176h-.098c-.056 0-.127 0-.211-.016-.028 0-.042-.016-.056-.016v-.096a.816.816 0 0 0 .267.064c.07 0 .113-.016.141-.048.014-.016.014-.032.014-.048a.08.08 0 0 0-.056-.08c-.029-.016-.07-.032-.141-.063-.07-.032-.113-.048-.141-.08a.167.167 0 0 1-.07-.128c0-.064.028-.112.098-.128a.472.472 0 0 1 .17-.032Zm.648.67c-.098 0-.183-.015-.225-.063a.296.296 0 0 1-.07-.207v-.384h.112v.368c0 .08.014.127.028.16.028.031.07.047.141.047.07 0 .127-.016.141-.048.028-.032.028-.08.028-.16v-.366h.113v.383c0 .095-.028.175-.085.207-.028.048-.098.064-.183.064Zm.803-.318c.043 0 .07.016.085.032.014.016.028.048.042.08l.056.175h-.126l-.043-.144a.272.272 0 0 0-.056-.111.185.185 0 0 0-.099-.032h-.126v.287h-.113v-.639h.282c.084 0 .14.017.183.033.042.031.07.063.07.127 0 .048-.014.08-.042.112-.042.064-.07.08-.113.08Zm-.127-.048c.099 0 .155-.032.155-.112a.09.09 0 0 0-.042-.08c-.028-.016-.056-.016-.113-.016h-.154v.208h.154Zm.846.16h-.339l-.084.19h-.113l.296-.639h.141l.31.639h-.127l-.084-.192Zm-.028-.064-.127-.288-.127.288h.254Zm.802.111s.015.016.015.032v.016-.526h.112v.638h-.14l-.353-.495s-.014-.016-.014-.032v.543h-.098v-.639h.14l.338.463Zm.79-.399c-.043-.032-.1-.048-.184-.048a.26.26 0 0 0-.197.08.283.283 0 0 0-.07.192c0 .08.028.143.07.191.042.048.113.064.183.064a.453.453 0 0 0 .155-.032c.014 0 .028-.016.042-.016v.08c-.07.032-.14.032-.225.032a.458.458 0 0 1-.268-.08.303.303 0 0 1-.098-.24c0-.08.028-.143.07-.207a.362.362 0 0 1 .155-.111.455.455 0 0 1 .155-.032c.07 0 .141.016.197.032v.095h.014Zm.563.48v.079h-.465v-.638h.45v.08h-.337v.175h.31v.064h-.31v.223h.352v.016Z" fill="#fff"/><defs><linearGradient id="a" x1="6.843" y1="9.762" x2="9.745" y2="14.846" gradientUnits="userSpaceOnUse"><stop stop-color="#fff"/><stop offset="1" stop-color="#7A7980"/></linearGradient></defs></svg>