<svg width="24" height="24" fill="none" xmlns="http://www.w3.org/2000/svg"><path d="M20.838 12.57c-.111 2.738-4.523 7.651-9.27 8.321l-.061.009c-4.15.564-6.364-1.396-7.25-2.363a3.462 3.462 0 0 1-.516-.737c-1.827-3.513.135-6.753 1.483-8.959a3.53 3.53 0 0 1 .342-.466C12.031.92 18.329 2.063 18.329 2.063c.324.112-.78.368-1.058.458-.28.09-1.704.435-4.271 2.19-5.05 3.072-6.291 7.637-6.315 9.37 0 .076 0 .146.003.21.185 2.682 2.657 4.001 4.922 4.001 2.264 0 4.128-1.142 4.781-1.538 1.852-1.123 4.448-4.545 4.448-4.184Z" fill="#F9B234"/><path d="M18.768 7.729c.903-.627 1.386-1.493 1.08-1.935-.307-.442-1.288-.293-2.19.333-.904.627-1.387 1.493-1.08 1.935.306.442 1.287.293 2.19-.333Z" fill="#FEAF38"/><path d="M20.839 12.57c-.112 2.738-4.524 7.651-9.271 8.321l-.061.009c-.874-.234-2.682-.902-3.943-2.622-1.005-1.37-1.03-3.044-.879-4.197 0 .076 0 .146.003.21.185 2.682 2.657 4.001 4.922 4.001 2.264 0 4.128-1.142 4.781-1.538 1.852-1.123 4.448-4.545 4.448-4.184Z" fill="url(#a)"/><defs><linearGradient id="a" x1="6.616" y1="16.722" x2="20.839" y2="16.722" gradientUnits="userSpaceOnUse"><stop stop-color="#EA551B"/><stop offset=".34" stop-color="#EF7823"/><stop offset=".77" stop-color="#F6A02C"/><stop offset="1" stop-color="#F8AF2F"/></linearGradient></defs></svg>