<svg width="48" height="48" fill="none" xmlns="http://www.w3.org/2000/svg"><path d="M7 4v33.183h33.183V4H7Zm32.23 10.56c-6.923 2.989-12.334 9.404-12.072 11.236.566 3.959 1.9 8.196 1.579 8.804-.33.608 2.735-4.533 9.378-5.706 1.368-.245 1.435.304.388.506-4.431.87-9.31 6.272-9.707 7.184h-10.45c-.389-.92-5.277-6.323-9.708-7.184-1.047-.202-.98-.751.388-.506 6.643 1.173 9.7 6.322 9.378 5.706-.329-.608 1.013-4.845 1.579-8.804.262-1.824-5.15-8.247-12.071-11.236-.355-.152-.33-.574-.119-.481 10.493 4.516 12.57 10.332 12.629 10.08.473-1.841 1.317-3.648 2.38-5.378-2.296-4.153-6.17-9.15-12.24-12.662-.422-.245.068-.338.583-.152 1.342.473 8.137 5.369 12.417 11.632 4.28-6.263 11.075-11.16 12.417-11.632.515-.186 1.005-.093.583.152-6.078 3.503-9.944 8.509-12.24 12.662 1.063 1.73 1.908 3.537 2.38 5.377.068.253 2.136-5.554 12.628-10.079.212-.093.237.33-.117.481h.016ZM7.219 42.953c.113.11.237.177.355.177a.31.31 0 0 0 .308-.312c0-.496-.683-1.218-.683-1.876 0-.433.266-.736.645-.736.113 0 .208.024.341.087v.389c-.124-.072-.19-.1-.284-.1-.2 0-.308.1-.308.307 0 .51.683 1.203.683 1.876 0 .437-.266.74-.654.74a.727.727 0 0 1-.403-.124v-.428Zm3.466-2.703h.407v3.212h-.407V40.25Zm2.817 0h.332l.7 1.981h.01V40.25h.374v3.213h-.332l-.7-2h-.01v2h-.374V40.25Zm5.163 3.073c-.167.13-.309.183-.484.183-.545 0-.853-.587-.853-1.63 0-.93.25-1.67.862-1.67.124 0 .289.063.437.168v.418c-.124-.125-.275-.202-.408-.202-.36 0-.464.457-.464 1.266 0 .86.124 1.265.479 1.265.133 0 .232-.053.43-.231v.433Zm2.41-3.073h1.127v.384h-.72v.962h.658v.385h-.658v1.097h.758v.384h-1.166V40.25h.001Zm7.328-.027h.408v3.213h-.408v-3.213Zm3.585 1.989a.689.689 0 0 1-.17.024c-.36 0-.597-.4-.597-.986s.288-1.044.667-1.044c.38 0 .65.38.65 1.058 0 .476-.1.846-.284 1.236l-.45.953H31.4l.587-1.241Zm-.104-1.602c-.185 0-.246.293-.246.673 0 .38.09.549.246.549.155 0 .237-.193.237-.61 0-.419-.086-.61-.237-.61v-.002Zm3.063 2.78c.53-.89.834-1.66.834-2.208 0-.327-.162-.539-.412-.539-.1 0-.19.029-.355.105v-.427a1.05 1.05 0 0 1 .459-.115c.45 0 .725.347.725.9 0 .5-.2.996-.672 1.938h.738v.409h-1.317v-.063Zm4.556-.819h-.83v-.37l.858-1.995h.38v2.078h.175v.289h-.175v.88h-.408v-.882Zm0-1.578h-.01l-.54 1.29h.55v-1.29Z" fill="#681D48"/></svg>