<svg width="48" height="48" fill="none" xmlns="http://www.w3.org/2000/svg"><path d="M33.48 14.102c-.26.102-1.332.846-4.874 3.396-3.124 2.233-7.817 5.437-7.873 5.38-.068-.067.169-.383 2.38-3.215 2.47-3.158 2.38-3.023 2.132-3.305-.271-.304-1.49-.902-1.828-.902-.35 0-2.019.88-3.813 2.008C16.492 19.427 3.08 28.496 3.023 28.665c-.101.305.147.801.655 1.309.586.609 1.06.778 1.613.598.428-.147 2.696-1.828 8.336-6.182 1.861-1.444 3.418-2.617 3.474-2.617.215 0-.034.316-1.568 2.042-2.831 3.17-4.422 5.12-4.568 5.617-.293.982.36 1.93 1.32 1.93.654 0 1.071-.181 2.335-1.027 1.793-1.207 6.26-4.66 9.723-7.524.553-.463 1.027-.779 1.05-.722.022.067-.44.688-1.016 1.399-1.884 2.3-2.47 3.282-2.865 4.828-.248.97-.158 2.447.18 3.26.7 1.613 2.787 2.29 4.716 1.511 2.109-.835 5.99-3.644 11.19-8.088 1.895-1.624 7.084-6.588 7.287-6.971.214-.418.203-.801-.057-1.117l-.214-.26-.993.723c-.552.394-3.136 2.323-5.741 4.286-5.336 4.016-7.13 5.245-9.025 6.215-2.12 1.072-2.854 1.196-3.09.542-.18-.53.124-1.263 1.094-2.64.665-.936 1.15-1.477 5.527-6.114 1.828-1.94 3.407-3.632 3.497-3.767.17-.248.147-.282-.474-.857-.586-.542-1.387-1.06-1.613-1.038-.045 0-.192.045-.316.101Z" fill="#FB044A"/></svg>