<svg width="89" height="20" fill="none" xmlns="http://www.w3.org/2000/svg"><path d="M24.07 7.613a.17.17 0 0 1 .056.136v1.282a.19.19 0 0 1-.055.137.176.176 0 0 1-.137.054h-1.618c-.055 0-.082.028-.082.082v6.378a.19.19 0 0 1-.055.137.176.176 0 0 1-.137.054H20.54a.192.192 0 0 1-.137-.054.175.175 0 0 1-.055-.137V9.304c0-.054-.027-.082-.082-.082h-1.014a.192.192 0 0 1-.138-.054.175.175 0 0 1-.054-.137V7.75a.19.19 0 0 1 .054-.136.176.176 0 0 1 .137-.055h1.015c.055 0 .082-.027.082-.082v-.293c0-.703.09-1.248.282-1.637a1.6 1.6 0 0 1 .918-.819c.425-.164 1.022-.239 1.796-.225h.576c.055 0 .103.02.137.055.041.04.055.082.055.136v1.14a.19.19 0 0 1-.055.136.176.176 0 0 1-.137.054h-.425c-.466 0-.795.096-.973.28-.179.184-.268.518-.268 1.01v.163c0 .055.028.082.082.082h1.618c.035-.007.083.014.117.055Zm1.907-1.508c-.22-.218-.33-.491-.33-.832 0-.334.11-.614.33-.832.22-.219.493-.328.836-.328.336 0 .617.11.837.328.219.218.329.49.329.832 0 .334-.11.614-.33.832-.219.218-.493.328-.836.328a1.14 1.14 0 0 1-.836-.328Zm-.09 9.72a.175.175 0 0 1-.054-.136v-7.94a.19.19 0 0 1 .055-.136.177.177 0 0 1 .137-.055h1.501c.055 0 .103.02.137.055.041.04.055.081.055.136v7.94a.19.19 0 0 1-.055.136.176.176 0 0 1-.137.055h-1.501c-.055.007-.096-.014-.137-.055Zm9.9-7.605c.528.518.795 1.234.795 2.135v5.34a.19.19 0 0 1-.055.137.176.176 0 0 1-.137.055h-1.5a.192.192 0 0 1-.137-.055.175.175 0 0 1-.055-.136V10.75c0-.498-.144-.9-.425-1.214-.281-.307-.658-.464-1.131-.464-.466 0-.85.15-1.138.457-.288.307-.432.703-.432 1.208v4.966a.19.19 0 0 1-.055.136.176.176 0 0 1-.137.055h-1.502a.192.192 0 0 1-.137-.055.175.175 0 0 1-.054-.136v-7.94a.19.19 0 0 1 .054-.137.176.176 0 0 1 .138-.054h1.5c.056 0 .104.02.138.054a.176.176 0 0 1 .055.137v.518c0 .034.013.055.034.068.02.014.041 0 .048-.034.446-.586 1.124-.88 2.03-.88.863.007 1.57.266 2.104.785Zm6.897.825a.177.177 0 0 1-.138.054H40.88c-.054 0-.082.028-.082.082v3.923c0 .409.09.709.268.893.178.184.466.28.856.28h.494a.19.19 0 0 1 .137.054.176.176 0 0 1 .055.137v1.22c0 .124-.069.192-.199.212l-.85.014c-.864 0-1.501-.143-1.933-.437-.425-.293-.645-.845-.651-1.657V9.18c0-.054-.028-.082-.083-.082h-.932a.192.192 0 0 1-.137-.054.175.175 0 0 1-.055-.137V7.77a.19.19 0 0 1 .055-.136.177.177 0 0 1 .137-.055h.932c.055 0 .083-.027.083-.082V5.593a.19.19 0 0 1 .054-.136.176.176 0 0 1 .138-.055h1.425c.055 0 .103.02.138.055.04.04.055.082.055.136v1.903c0 .055.027.082.082.082h1.666c.054 0 .102.02.137.055.04.04.055.082.055.136v1.14c.02.047 0 .095-.041.136Zm8.453 2.66-.014.505c0 .13-.069.198-.199.198h-5.121c-.055 0-.082.027-.082.082.034.355.082.6.144.73.26.784.898 1.18 1.912 1.187.74 0 1.33-.307 1.77-.914a.18.18 0 0 1 .164-.096c.04 0 .082.014.116.048l1.015.832c.096.075.116.164.048.26a3.309 3.309 0 0 1-1.35 1.104 4.417 4.417 0 0 1-1.872.39c-.85 0-1.57-.192-2.167-.574a3.301 3.301 0 0 1-1.302-1.596c-.254-.587-.377-1.398-.377-2.442 0-.628.068-1.14.199-1.528.219-.757.63-1.357 1.234-1.8.603-.437 1.33-.663 2.18-.663 2.145 0 3.359 1.12 3.633 3.35.041.286.069.586.069.927Zm-4.703-2.34c-.268.199-.453.478-.562.84-.069.184-.11.423-.13.716-.021.055 0 .082.068.082h3.318c.055 0 .082-.027.082-.082a3.21 3.21 0 0 0-.096-.62 1.592 1.592 0 0 0-.582-.915c-.288-.218-.652-.327-1.09-.327-.405.007-.74.109-1.008.307Zm7.493 6.01a3.33 3.33 0 0 1-1.275-1.732c-.172-.491-.26-1.14-.26-1.951 0-.785.088-1.419.26-1.924A3.133 3.133 0 0 1 53.92 8.07c.617-.416 1.344-.628 2.18-.628.85 0 1.59.212 2.221.635.63.422 1.049.954 1.262 1.596.054.17.089.348.116.518v.034c0 .11-.062.17-.178.198l-1.474.211h-.034c-.096 0-.165-.054-.2-.163a.622.622 0 0 0-.013-.13 1.263 1.263 0 0 0-.069-.225c-.095-.307-.294-.552-.589-.75-.295-.198-.644-.294-1.049-.294-.411 0-.768.11-1.056.321-.288.211-.48.505-.582.873-.11.348-.165.832-.165 1.446 0 .594.048 1.078.144 1.446.11.382.309.683.59.9.28.226.637.335 1.062.335.412 0 .775-.11 1.07-.32.301-.212.493-.498.582-.853.014-.02.014-.048.014-.082.014-.014.014-.027.014-.048.034-.13.11-.184.226-.164l1.474.226a.247.247 0 0 1 .137.075c.041.04.055.088.041.156a6.32 6.32 0 0 1-.082.376 2.858 2.858 0 0 1-1.261 1.65c-.631.41-1.372.607-2.222.607-.815 0-1.535-.218-2.152-.64Zm11.51-6.33a.177.177 0 0 1-.137.054h-1.666c-.055 0-.082.028-.082.082v3.923c0 .409.089.709.267.893.178.184.466.28.857.28h.493c.055 0 .103.02.138.054a.18.18 0 0 1 .055.137v1.22c0 .124-.07.192-.2.212l-.85.014c-.863 0-1.5-.143-1.933-.437-.425-.293-.644-.845-.65-1.657V9.18c0-.054-.028-.082-.083-.082h-.933a.192.192 0 0 1-.137-.054.175.175 0 0 1-.054-.137V7.77a.19.19 0 0 1 .054-.136.177.177 0 0 1 .137-.055h.933c.055 0 .082-.027.082-.082V5.593a.19.19 0 0 1 .055-.136.177.177 0 0 1 .137-.055h1.426c.055 0 .103.02.137.055.041.04.055.082.055.136v1.903c0 .055.027.082.082.082h1.666c.055 0 .103.02.137.055.041.04.055.082.055.136v1.14c.014.047-.007.095-.041.136Zm6.493-1.419a.176.176 0 0 1 .136-.054h1.488a.19.19 0 0 1 .137.054.176.176 0 0 1 .055.137v7.926a.19.19 0 0 1-.055.136.176.176 0 0 1-.137.055h-1.488a.192.192 0 0 1-.137-.055.174.174 0 0 1-.055-.136v-.518c0-.034-.013-.055-.034-.069-.02-.013-.041 0-.069.035-.445.573-1.117.86-2.008.86-.83 0-1.522-.24-2.084-.717-.563-.478-.844-1.153-.844-2.033V7.763a.19.19 0 0 1 .055-.137.176.176 0 0 1 .137-.054h1.502a.19.19 0 0 1 .137.054.176.176 0 0 1 .055.137v4.945c0 .512.13.914.397 1.221.268.307.638.457 1.118.457.493 0 .884-.15 1.179-.457.295-.307.439-.71.439-1.22V7.762c.02-.055.034-.096.075-.137Zm8.41.054c.09.042.117.123.097.246l-.281 1.467c-.014.13-.09.17-.227.116a1.817 1.817 0 0 0-.569-.082c-.144 0-.253.007-.329.014-.459.02-.836.184-1.144.477-.309.3-.46.689-.46 1.167v4.604a.19.19 0 0 1-.055.136.177.177 0 0 1-.137.055h-1.501a.192.192 0 0 1-.137-.055.175.175 0 0 1-.055-.136V7.763a.19.19 0 0 1 .055-.137.177.177 0 0 1 .137-.054h1.501a.19.19 0 0 1 .137.054.176.176 0 0 1 .055.137v.73c0 .04.007.068.028.074.013.007.034-.006.055-.04.459-.703 1.096-1.058 1.912-1.058.357 0 .658.075.919.212Zm8.049 4.025-.014.505c0 .13-.068.198-.198.198h-5.122c-.054 0-.082.027-.082.082.034.355.082.6.144.73.26.784.898 1.18 1.913 1.187.74 0 1.33-.307 1.769-.914a.18.18 0 0 1 .164-.096.16.16 0 0 1 .117.048l1.014.832c.096.075.117.164.048.26a3.308 3.308 0 0 1-1.35 1.104 4.416 4.416 0 0 1-1.872.39c-.85 0-1.57-.192-2.166-.574a3.302 3.302 0 0 1-1.303-1.596c-.253-.587-.377-1.398-.377-2.442 0-.628.069-1.14.199-1.528.22-.757.63-1.357 1.234-1.8.603-.437 1.33-.663 2.18-.663 2.146 0 3.36 1.12 3.633 3.35.049.286.069.586.069.927Zm-4.703-2.34c-.267.199-.452.478-.562.84-.069.184-.11.423-.13.716-.02.055 0 .082.068.082h3.318c.055 0 .083-.027.083-.082a3.211 3.211 0 0 0-.096-.62 1.592 1.592 0 0 0-.583-.915c-.288-.218-.651-.327-1.09-.327-.404.007-.74.109-1.008.307Z" fill="#0D1640"/><path d="M7.049 9.509Zm0 0c-.062.068-.11.15-.151.232a2.88 2.88 0 0 1 .15-.232Zm5.477-1.726Z" fill="#1DDBA9"/><path d="M11.916 0a1.1 1.1 0 0 0-.542.136S1.188 5.982 1.18 5.99c-.329.184-.569.519-.569.921v11.003c0 .47.357.852.796.982L5.39 19.96c.096.027.192.041.294.041.583 0 1.118-.443 1.118-1.01V17.45l-2.16-.266c-.52-.075-.911-.546-.911-1.092V8.2a1.11 1.11 0 0 1 .678-.982l8.645-3.493V1.03A1.139 1.139 0 0 0 11.916 0Z" fill="#1DDBA9"/><path d="M7.672 9.113c-.493.137-.87.56-.87 1.092v7.25l2.008.246c.631.082 1.125-.498 1.125-1.118l.007-4.011c0-.54.459-.969 1-1.05l4.258-.533c.514-.068.953-.464.953-.982V3.97c0-.56-.542-.969-1.11-.969-.138 0-.268.028-.392.069l-1.597.648v3.117c0 .498-.343.92-.802 1.064l-4.58 1.214Z" fill="#0D1640"/><path d="M4.41 7.217a1.112 1.112 0 0 0-.68.982v7.9c0 .545.391 1.016.912 1.09l2.16.267v-7.251c0-.532.377-.955.87-1.092l4.58-1.207c.452-.143.802-.566.802-1.064V3.725L4.409 7.217Z" fill="#fff"/></svg>