<svg width="48" height="48" fill="none" xmlns="http://www.w3.org/2000/svg"><path d="M23.987 41.507c-.836-.15-1.53-.74-1.837-1.565-.126-.339-.159-.967-.069-1.324a2.484 2.484 0 0 1 1.693-1.747c.276-.08.855-.091 1.145-.021a2.455 2.455 0 0 1 1.78 1.771c.074.31.075.77 0 1.086-.19.808-.85 1.5-1.668 1.742a2.959 2.959 0 0 1-1.044.058Zm.106-7.427-3.434-.022-.239-.09c-.313-.116-.75-.412-.952-.642-.853-.975-.824-2.35.069-3.242.268-.27.54-.44.922-.58l.275-.1h7.357l.281.108c.593.226 1.046.626 1.313 1.157a2.347 2.347 0 0 1-.435 2.748c-.404.403-.942.652-1.457.673-.146.007-1.81.002-3.7-.01Zm-7.319-7.382a2.497 2.497 0 0 1-1.216-.757 2.222 2.222 0 0 1-.458-.82c-.084-.25-.1-.36-.1-.709 0-.35.015-.459.102-.713.245-.723.736-1.228 1.475-1.516l.253-.098 7.467-.01c8.28-.01 7.649-.03 8.199.24.342.167.757.55.954.883.443.747.443 1.68 0 2.43-.173.29-.6.698-.898.857a2.992 2.992 0 0 1-.501.195c-.28.078-.308.078-7.676.076-6.377-.003-7.423-.01-7.6-.058Zm3.868-7.469a2.398 2.398 0 0 1-1.697-1.63c-.116-.371-.118-.988-.004-1.338.199-.612.637-1.132 1.177-1.396.576-.282.354-.268 4.294-.268 3.45 0 3.536.002 3.81.077.81.224 1.477.913 1.668 1.725a2.73 2.73 0 0 1 0 1.088c-.195.83-.889 1.533-1.723 1.745-.328.083-7.213.08-7.525-.003Zm3.433-7.508c-.945-.146-1.756-.879-1.99-1.796-.13-.513-.042-1.198.218-1.69.265-.5.887-.994 1.471-1.167.274-.082.85-.092 1.145-.02a2.47 2.47 0 0 1 1.716 1.559c.126.358.156.91.07 1.28a2.458 2.458 0 0 1-1.686 1.761c-.224.064-.742.104-.944.073Z" fill="#FD5D00"/></svg>