<svg width="24" height="24" fill="none" xmlns="http://www.w3.org/2000/svg"><path d="M9.093 11.775c-.099-.099-.226-.056-.283.043L6.94 21.834c-.043.156.184.227.283.1l4.42-6.248c.1-.1.1-.227 0-.369l-2.55-3.542ZM21.278 7.58h-5.554c-.1 0-.156.099-.156.184l.425 2.238c0 .1.1.156.184.1l5.13-2.24c.155-.098.098-.282-.03-.282Z" fill="#88C648"/><path d="M14.845 7.667c0-.056-.099-.099-.155-.099H3.129c-.128 0-.185.241-.057.284l5.837 2.521c.128.043.283.185.368.284l7.977 11.22c.099.157.283.043.283-.098L14.845 7.667ZM9.66 5.951l5.185-1.643c.368-.1.34-.227-.043-.283l-1.062-.1-1.233-1.841c-.056-.1-.156-.1-.24-.057l-2.182 1.445c-.043.043-.1.1-.1.184l.284 1.488-.751.552c-.27.255-.227.355.142.255Z" fill="#88C648"/></svg>