<svg width="48" height="48" fill="none" xmlns="http://www.w3.org/2000/svg"><path d="M6.208 13.44c1.099-1.21 2.187-1.651 3.55-1.301.558.143 1.014.414 1.349.854.223.292.35.319.6.037.95-1.056 2.143-1.183 3.438-.86 1.136.287 1.88 1.338 1.922 2.824.047 1.746 0 3.498.02 5.244 0 .43-.137.552-.562.568-1.873.08-1.873.09-1.873-1.794 0-1.232 0-2.457-.01-3.689 0-.727-.218-1.284-1.057-1.385-.95-.117-1.486.218-1.751 1.061-.191.616-.149 1.242-.149 1.869 0 1.12-.016 2.24.005 3.36.006.408-.106.562-.546.583-1.768.074-1.768.09-1.768-1.65 0-1.232.011-2.458 0-3.69-.01-1.076-.44-1.554-1.342-1.56-.913 0-1.582.632-1.598 1.598a106.267 106.267 0 0 0 0 4.506c.016.589-.106.812-.753.796-1.672-.032-1.672 0-1.672-1.683 0-2.048.016-4.097-.01-6.145-.006-.52.116-.775.678-.696.213.032.441.032.653 0 .69-.095 1.11.085.87 1.136l.006.016Z" fill="#BAD609"/><path d="M8.856 31.77c.207.924-.111 1.168-.812 1.057-.265-.043-.546-.022-.817 0-.324.02-.494-.048-.494-.436.011-3.63.011-7.255.011-10.885 0-.233.021-.44.334-.44h1.635c.456 0 .334.345.334.589.011 1.167 0 2.335 0 3.651.765-.79 1.555-1.183 2.564-1.2 1.592-.02 2.632.765 3.227 2.15.684 1.592.626 3.222-.064 4.809-.971 2.24-4.087 2.722-5.923.7l.005.005Zm.154-3.142c.01.223.01.526.053.823.144.987.796 1.725 1.693 1.826.812.095 1.439-.281 1.794-.998.579-1.162.552-2.346-.058-3.503-.34-.642-.887-.891-1.614-.875-.7.015-1.167.329-1.507.923-.308.541-.35 1.13-.366 1.804h.005Zm30.899-3.311c-.218-.934.148-1.136.828-1.03.212.032.44.032.653 0 .552-.08.679.16.674.685-.022 2.84-.011 5.679-.011 8.518v.573c0 1.762 0 1.736-1.751 1.73-.552 0-.616-.207-.605-.668.026-1.035.01-2.075.01-3.238-.838.881-1.815 1.258-2.919 1.152-1.693-.16-2.717-1.099-3.163-2.802-.324-1.237-.265-2.463.133-3.678.828-2.505 4.06-3.386 6.146-1.253l.005.01Zm-4.13 3.126c0 .313-.015.53 0 .748.112 1.157.717 1.884 1.72 2.08.775.154 1.688-.307 1.996-1.087.435-1.104.456-2.23-.085-3.307-.6-1.194-2.096-1.38-2.993-.382-.52.578-.664 1.284-.637 1.948Z" fill="#3F4646"/><path d="M43.815 17.053c.085.982-.159 2.16.16 3.317.09.324-.064.44-.383.43-.493-.01-.981 0-1.475 0-.106 0-.297-.005-.308-.053-.329-1.093-.822-.228-1.22-.09-1.025.366-2.054.51-3.11.16-1.02-.34-1.678-1.264-1.694-2.357-.015-1.094.627-1.98 1.694-2.34.96-.324 1.98-.309 2.96-.516.58-.122 1.115-.302 1.041-1.003-.074-.705-.578-.976-1.279-.981-.78 0-1.491.053-1.725.992-.063.25-.233.334-.488.319-.297-.016-.6 0-.902 0-1.115 0-1.21-.17-.706-1.2.345-.706.929-1.141 1.64-1.38 1.433-.483 2.892-.462 4.32.027.992.334 1.454 1.061 1.47 2.117v2.558h.005Zm-4.283 2.325c1.39.01 2.23-.992 1.975-2.34-.032-.176-.059-.356-.282-.266-.636.26-1.326.239-1.98.409-.737.196-1.15.6-1.013 1.4.127.744.7.808 1.3.797Z" fill="#BAD609"/><path d="M21.482 32.131c-1.136.855-2.35 1.072-3.667.85-1.088-.186-1.927-1.051-2.043-2.123-.133-1.269.424-2.208 1.57-2.638.876-.33 1.81-.319 2.707-.494.266-.053.531-.095.786-.18.366-.127.589-.393.568-.796-.022-.425-.144-.796-.605-.966-1.014-.377-1.853-.096-2.362.876-.117.217-.218.265-.42.26h-.981c-1.062 0-1.184-.223-.664-1.205.574-1.083 1.609-1.449 2.697-1.566.934-.1 1.9-.111 2.839.133 1.215.318 1.89 1.141 1.895 2.393.01 1.635 0 3.275.015 4.91 0 .392.064.785.096 1.173-.462.015-.918.026-1.38.058-.504.032-.992.058-1.05-.69v.005Zm-1.916-.637c1.179-.01 1.699-.54 1.869-1.889.069-.552.106-.976-.701-.653-.44.175-.95.165-1.428.255-.78.154-1.268.69-1.2 1.295.07.621.622.998 1.46.987v.005Z" fill="#3F4646"/><path d="M26.445 16.581c-.006 2.728-1.704 4.437-4.41 4.432-2.66 0-4.337-1.752-4.337-4.506 0-2.734 1.704-4.522 4.373-4.49 2.638.037 4.47 1.709 4.374 4.564Zm-6.406-.117c0 .234-.016.425 0 .616.1 1.194.812 2.054 1.756 2.128 1.232.096 1.895-.409 2.235-1.751a3.9 3.9 0 0 0-.218-2.548c-.313-.732-.902-1.061-1.661-1.104-.775-.042-1.38.287-1.751.972a2.95 2.95 0 0 0-.361 1.687Zm9.155-3.024c1.05-1.152 2.16-1.646 3.592-1.322 1.349.307 2.134 1.082 2.166 2.452.048 1.884.01 3.768.037 5.657.01.494-.202.573-.632.584-1.693.037-1.693.048-1.693-1.635 0-1.172.011-2.35 0-3.524-.01-1.093-.408-1.624-1.23-1.714-1.147-.122-1.72.228-1.938 1.353-.255 1.322-.074 2.67-.095 4.002-.027 1.513-.006 1.486-1.492 1.518-.605.01-.854-.1-.844-.79.048-2.352.037-4.698.006-7.049-.006-.541.153-.753.69-.674.132.021.276.016.408 0 .748-.095 1.306.021 1.03 1.141h-.006Z" fill="#BAD609"/><path d="M26.964 25.391c1.088-1.258 2.373-1.523 3.827-1.136 1.168.313 1.841 1.136 1.868 2.34.043 1.911.016 3.822.037 5.727 0 .398-.133.489-.515.505-1.815.08-1.815.09-1.81-1.736 0-1.12.006-2.24 0-3.354-.01-1.072-.461-1.698-1.268-1.805-.987-.127-1.672.356-1.91 1.45-.234 1.071-.053 2.17-.096 3.258-.005.165 0 .329 0 .494 0 1.815 0 1.804-1.852 1.693-.345-.022-.473-.101-.473-.462.016-2.537.016-5.074 0-7.61 0-.356.117-.5.473-.463.217.022.44.027.653 0 .774-.09 1.31.048 1.066 1.099Z" fill="#3F4646"/></svg>