<svg xmlns="http://www.w3.org/2000/svg" width="48" height="48" fill="none"><g fill="#800043" clip-path="url(#a)"><path d="M10.78 15.296c-.827.188-1.402.694-1.62 1.428-.086.287-.082.786.014 1.087.204.66.713 1.133 1.444 1.345.228.066.337.076.81.076.472 0 .58-.01.809-.076.951-.278 1.517-.985 1.517-1.907 0-.565-.199-1.031-.598-1.408a2.542 2.542 0 0 0-.952-.512c-.274-.076-1.15-.092-1.425-.033Zm1.288.37c.8.215 1.276.806 1.276 1.586 0 .774-.48 1.365-1.292 1.587-.291.079-.959.079-1.25 0-.819-.222-1.298-.803-1.301-1.573-.004-.856.532-1.461 1.447-1.64.284-.056.846-.036 1.12.04Z"/><path d="M11.037 15.812c-.588.105-.988.39-1.209.856-.096.204-.102.24-.102.581 0 .34.006.377.102.582.188.396.47.63.932.78.32.105.892.119 1.223.033.65-.172 1.037-.572 1.133-1.173.122-.75-.32-1.405-1.097-1.613-.231-.06-.757-.086-.982-.046Zm.797.347c.552.142.872.495.909 1.004.046.688-.43 1.167-1.216 1.216-.608.04-1.11-.215-1.329-.667a1.13 1.13 0 0 1-.007-.909c.202-.44.638-.684 1.22-.69.129-.004.32.02.423.046ZM2.34 17.183c0 1.824 0 1.867.066 1.933.043.043.109.066.198.066h.132v-3.866H2.34v1.867Zm.628.066v1.933h2.875v-.396H3.364v-.199h2.479v-.396H3.364v-2.875h-.396v1.933Zm14.216-.638c.013 1.233.016 1.309.086 1.517.25.753.908 1.153 1.906 1.153 1.031 0 1.758-.482 1.95-1.292.04-.168.05-.462.05-1.444v-1.23h-.394l-.01 1.28-.01 1.282-.105.221c-.241.51-.754.783-1.467.787-.843 0-1.468-.463-1.583-1.18-.02-.106-.033-.687-.033-1.292v-1.097h-.4l.01 1.295Z"/><path d="m17.812 16.529.01 1.216.085.181c.202.427.52.648 1.058.73.667.103 1.305-.214 1.523-.756.073-.182.076-.231.086-1.388l.01-1.196h-.396l-.01 1.113c-.01 1.084-.014 1.12-.086 1.283-.165.36-.41.515-.836.538-.38.02-.582-.046-.79-.254-.251-.255-.264-.324-.264-1.593v-1.087h-.4l.01 1.213Zm6.8-1.203c0 .006.407.872.902 1.926l.903 1.914h.383l.84-1.785c.462-.981.872-1.847.905-1.926l.062-.14h-.446l-.591 1.263a45.805 45.805 0 0 1-.611 1.289c-.01.016-.205-.38-.43-.876-.74-1.629-.704-1.563-.87-1.626a.689.689 0 0 0-.257-.043l-.116.01.708 1.514.71 1.513-.043.132c-.023.073-.053.12-.066.106a78.411 78.411 0 0 1-.78-1.652l-.757-1.626-.221-.003c-.126 0-.225.003-.225.01Zm4.101.261c-.07.152-.456.971-.863 1.827-.403.853-.753 1.603-.78 1.66l-.046.108h.447l.882-1.877c.486-1.03.892-1.9.905-1.933.017-.05-.003-.056-.198-.056h-.221l-.126.27Zm4.028-.109v.162l1.183.016c.925.01 1.216.024 1.345.063.552.169.773.407.803.873.023.363-.056.575-.307.829-.179.175-.235.211-.45.277-.221.07-.307.076-.955.08h-.71v-.199l.793-.016c.783-.016.796-.016.962-.106.204-.105.383-.307.436-.486.063-.204.05-.492-.03-.654-.09-.181-.234-.294-.499-.383-.192-.063-.297-.07-1.388-.083l-1.183-.013v3.344h.331l.006-1.48.01-1.477h.198l.01 1.477.007 1.48h.327l.01-.522.01-.519.416-.01.417-.01.423.457c.234.25.469.482.522.518.06.04.178.07.33.08l.238.016-.502-.525-.502-.526.105-.02c.12-.02.063-.066.793.691l.357.373.245-.01.244-.01-.565-.587a12.49 12.49 0 0 1-.552-.595c.007-.007.09-.06.185-.12.417-.26.638-.687.638-1.219-.003-.677-.406-1.12-1.163-1.275-.205-.043-.486-.053-1.398-.053h-1.14v.162Zm2.502.82c.198.105.274.218.274.403 0 .208-.096.353-.29.442-.146.066-.206.073-.867.073h-.71l-.01-.506-.01-.505.737.01c.687.01.747.016.876.082Zm4.901-.8v.181h3.338v-.363h-3.338v.182Zm-.008 1.89c-.003.832-.003 1.55 0 1.596.007.109.122.198.258.198h.112v-2.908h.199v2.908h2.775v-.396h-2.379v-.199h2.38v-.363H41.1v-.529h2.181v-.363h-2.18v-.199h2.18v-.363h-2.18v-.496h2.379v-.396h-3.338l-.007 1.51Zm-13.713 4.851a2.505 2.505 0 0 0-.915.36c-.558.373-.836.889-.836 1.556 0 .671.277 1.183.846 1.56.512.344 1.282.486 1.943.36.264-.05.631-.181.77-.27.086-.057.086-.057.224.092.182.198.305.231.797.218l.393-.01-.367-.426-.37-.426.08-.103a1.81 1.81 0 0 0 .27-.565c.06-.221.06-.684-.003-.925-.172-.648-.743-1.18-1.493-1.375-.34-.09-.992-.112-1.339-.046Zm.942.727c.483.102.806.33.988.704.096.195.11.25.11.485s-.014.291-.11.486c-.185.377-.506.602-1.005.707-.558.12-1.199-.056-1.526-.42a1.059 1.059 0 0 1-.3-.773c0-.234.012-.294.108-.485.281-.569.998-.86 1.735-.704Zm-16.348-.714c-.036.056-2.002 3.85-2.002 3.86 0 .006.198.01.44.01h.435l.175-.347.172-.347H12.6l.142.277c.205.4.198.397.69.41l.414.013-.413-.806c-.232-.44-.684-1.315-1.011-1.943l-.592-1.14-.396-.01c-.232-.003-.407.003-.417.023Zm.843 1.695c.198.393.36.727.36.737 0 .01-.357.017-.793.017-.562 0-.793-.01-.793-.037 0-.02.175-.376.39-.793.34-.664.393-.747.43-.697.022.03.204.38.406.773Zm-9.52.235v1.93l.353.02c.54.032 1.715.026 2.092-.01.664-.07 1.08-.275 1.262-.625.176-.334.103-.823-.158-1.067-.11-.1-.407-.258-.49-.258-.102 0-.049-.05.133-.129.618-.268.687-1.157.116-1.52a1.891 1.891 0 0 0-.384-.172c-.221-.073-.28-.076-1.576-.09l-1.348-.01v1.93Zm2.63-1.144a.382.382 0 0 1-.003.688c-.159.072-.601.112-1.262.115h-.539v-.895l.836.01c.78.01.843.013.968.082Zm-.036 1.534a.67.67 0 0 1 .238.145c.092.093.109.132.109.264 0 .133-.017.172-.11.265a.733.733 0 0 1-.237.149c-.08.023-.456.046-.949.056l-.819.016v-.932h.82c.489 0 .869.014.948.037Zm12.276-.383v1.933h.793l.007-1.332.01-1.335 1.202 1.335 1.2 1.332h.753v-3.867h-.793l-.006 1.322-.01 1.319-1.19-1.319-1.19-1.322h-.776v1.934Zm15.498-.669c0 1.015.01 1.303.05 1.455.155.595.561.985 1.192 1.147.311.079.88.089 1.217.016.647-.139 1.1-.555 1.259-1.157.04-.158.05-.432.05-1.46v-1.266h-.791l-.01 1.23c-.01 1.202-.013 1.236-.085 1.394-.179.39-.414.545-.873.572-.67.043-1.057-.208-1.173-.764-.03-.138-.043-.545-.043-1.318v-1.114h-.793v1.266Zm7.425-1.241c-.013.01-.023.819-.023 1.794 0 1.83.007 1.95.133 2.015.04.02.677.034 1.648.034h1.59v-.727l-1.262-.007-1.266-.01-.01-.423-.01-.42h2.317v-.76h-2.314v-.76h2.548l-.01-.373-.01-.37-1.655-.01c-.909-.003-1.666.003-1.675.017Zm-11.929 6.156a9.22 9.22 0 0 0-.255.413c0 .01.155.016.344.016h.34l.46-.4c.25-.221.465-.406.472-.413a5.626 5.626 0 0 0-.545-.013h-.562l-.254.397ZM2.34 31.125v1.936h.826v-1.15l.704-.017c.568-.01.747-.026.952-.082.518-.139.81-.35.974-.707.086-.189.096-.242.096-.572 0-.324-.01-.383-.09-.552-.161-.347-.445-.548-.967-.694-.241-.066-.357-.072-1.378-.086l-1.117-.013v1.937Zm2.016-1.17c.475.063.694.248.694.595 0 .142-.02.214-.076.3-.169.252-.47.327-1.286.327h-.522v-1.255h.473c.257 0 .581.016.717.033Zm4.692 1.173v1.933h.793v-1.223h1.008l.46.562c.551.678.535.668 1.146.654l.416-.01-.555-.644a13.96 13.96 0 0 1-.559-.67c0-.014.02-.024.043-.024.08 0 .443-.191.566-.3.33-.291.459-.78.333-1.266-.129-.5-.578-.806-1.322-.909-.138-.02-.72-.036-1.292-.036H9.049v1.933Zm2.178-1.173c.462.06.664.228.664.552 0 .307-.215.502-.628.568-.12.02-.486.036-.816.036H9.84v-.571c0-.317.01-.585.023-.595.033-.033 1.084-.026 1.361.01Zm4.761 1.173v1.933h.826l-.006-1.927-.01-1.923-.403-.01-.407-.01v1.937Zm3.735-1.894c0 .023.403.89.892 1.927l.889 1.883h.78l.898-1.9c.493-1.044.9-1.913.9-1.926.003-.013-.192-.02-.434-.017l-.436.01-.644 1.444c-.357.797-.658 1.434-.671 1.421a39.751 39.751 0 0 1-.608-1.328c-.37-.83-.615-1.338-.674-1.401-.106-.11-.271-.149-.635-.152-.185 0-.257.013-.257.04Zm7.005 1.811V32.9l.082.08.08.082h3.242v-.727l-1.296-.007-1.299-.01-.01-.422-.01-.42h2.35v-.76H27.52v-.76h2.544v-.76h-3.337v1.85Zm6.543.017v1.864l.072.069c.07.063.11.066 1.312.066h1.243l.575-.364.575-.363-1.484-.007-1.484-.01-.01-.42-.01-.422 1.167-.007 1.166-.01.01-.373.01-.37h-2.349v-.76h2.544v-.76H33.27v1.867ZM39 29.231c-.01.02-.007.05.007.063.016.016.456.224.978.462l.948.43h2.868l.14-.241c.171-.291.188-.374.121-.532-.092-.225-.003-.218-2.66-.218-1.678 0-2.386.01-2.402.036Zm-.014 2.525c-1.672 1.06-2.025 1.305-1.886 1.305.053 0 8.466-2.277 8.555-2.313.053-.023.073-.056.066-.11l-.01-.072-2.412-.006-2.412-.007-1.9 1.203Zm1.735.714c-1.127.303-2.072.561-2.098.571-.083.023 2.568-.016 2.944-.046.549-.043.704-.149 1.035-.724.105-.185.188-.34.181-.347-.006-.006-.935.238-2.062.545Z"/></g><defs><clipPath id="a"><path fill="#fff" d="M2 15h44v18.082H2z"/></clipPath></defs></svg>