<svg width="48" height="48" fill="none" xmlns="http://www.w3.org/2000/svg"><g clip-path="url(#a)"><path d="M39.972 22.287c-.5-.167-.94-.316-.94-.588 0-.088.018-.378.73-.387.526-.009 1.097.22 1.483.465l.492-1.01a3.65 3.65 0 0 0-2.08-.623c-.554 0-1.028.132-1.38.378a1.408 1.408 0 0 0-.605 1.194c0 1.133 1 1.458 1.809 1.73.526.184.983.333.983.65 0 .096-.035.386-.808.386-.562 0-1.203-.202-1.65-.448l-.51 1.063c.562.35 1.422.597 2.213.597 1.413 0 2.107-.633 2.107-1.625 0-1.124-.966-1.492-1.844-1.782ZM9.46 21.97l-1.906-1.72H6.237v5.32h1.335v-3.634l1.888 1.703 1.879-1.703v3.635h1.343V20.25h-1.317L9.46 21.97Zm24.365-1.72h1.335v5.32h-1.335v-5.32Zm-5.215 3.17h2.353v-1.09H28.61v-.912h2.564V20.25h-3.881v5.32h3.942v-1.167H28.61v-.983Zm-5.374-7.288h1.379V29.75h-1.379V16.132ZM19.25 18.16h1.37v9.5h-1.37v-9.5Zm-3.951 2.09h1.335v5.32h-1.335v-5.32Z" fill="#373737"/><path d="M7.396 31.05c0 .307-.237.509-.597.509h-.614V29.75h.553c.36 0 .588.185.588.492a.388.388 0 0 1-.228.36c.184.07.298.246.298.448Zm-.5-.518c.114-.027.184-.132.184-.273 0-.184-.123-.307-.325-.307h-.342v.588h.483v-.008Zm-.483.834h.395c.21 0 .342-.132.342-.325s-.123-.316-.298-.316h-.44v.64Zm2.986-1.642.834 1.835h-.255l-.175-.404h-.808l-.176.404h-.255l.835-1.835Zm.316 1.238a12.26 12.26 0 0 1-.316-.746 13.67 13.67 0 0 1-.316.746h.632Zm3.099.632-1.177-1.282v1.247h-.245v-1.835l1.185 1.282V29.75h.237v1.844Zm5.566-.667c0 .413-.263.658-.693.658-.43 0-.694-.245-.694-.658V29.75h.237v1.16c0 .289.167.456.457.456.29 0 .456-.167.456-.457V29.75h.238v1.177Zm1.16.641v-1.809h1.115v.202h-.87v.588h.73v.202h-.73v.615h.905v.202h-1.15Zm-3.715-.913a.92.92 0 0 0-.93-.931.92.92 0 0 0-.931.93c0 .527.404.931.93.931a.892.892 0 0 0 .51-.149l.237.228.158-.166-.22-.22a.854.854 0 0 0 .246-.623Zm-.922.71c-.395 0-.684-.298-.684-.71 0-.413.29-.712.684-.712.396 0 .676.299.676.712a.77.77 0 0 1-.158.474l-.298-.29-.158.167.28.272a.708.708 0 0 1-.342.088Zm12.733-.508v.702h-.246v-1.818h.553c.386 0 .614.211.614.554 0 .342-.228.553-.614.553h-.308v.009Zm0-.905v.703h.324c.229 0 .36-.132.36-.352 0-.22-.14-.35-.377-.35h-.308Zm3.029-.211c.395 0 .64.211.64.554a.521.521 0 0 1-.368.509l.412.755h-.272l-.377-.711h-.378v.711h-.246v-1.818h.588Zm-.343.202v.703h.36c.237 0 .386-.132.386-.351 0-.22-.149-.352-.404-.352h-.342Zm2.528 1.607v-1.817h.246v1.817h-.245Zm2.592.027-.843-1.844h.263l.246.57c.123.29.228.5.334.764.105-.263.202-.474.333-.764l.246-.57h.264l-.843 1.844Zm2.343-.009V29.75H38.9v.202h-.869v.588h.738v.202h-.738v.615h.913v.202h-1.159v.009Zm.676-2.476h.299l-.369.5h-.202l.272-.5Zm1.985 2.476V29.75h1.115v.202h-.878v.588h.738v.202h-.738v.615h.913v.202h-1.15v.009Z" fill="#CF9B64"/></g><defs><clipPath id="a"><path fill="#fff" transform="translate(6 16)" d="M0 0h36v15.805H0z"/></clipPath></defs></svg>