<svg width="24" height="24" fill="none" xmlns="http://www.w3.org/2000/svg"><path d="M22 2H2v20h20V2Z" fill="url(#a)"/><path d="M18.667 2H2v9.167h16.667V2Z" fill="url(#b)"/><path d="M4.82 12.673a.277.277 0 0 0-.3-.286h-.687v.573h.687c.187 0 .3-.113.3-.287Zm.093.887c0-.173-.113-.3-.313-.3h-.767v.6H4.6c.193 0 .313-.113.313-.3ZM3.5 12.08h1.06c.373 0 .593.247.593.547a.466.466 0 0 1-.306.46.508.508 0 0 1 .4.513c0 .333-.24.567-.6.567H3.5V12.08Zm3.14.367-.407.986h.814l-.407-.986Zm.7 1.72-.18-.427H6.112l-.18.427h-.366l.886-2.087h.367l.887 2.087h-.368Zm2.32 0L8.467 12.62v1.547h-.334V12.08h.32L9.64 13.6v-1.52h.333v2.087H9.66Zm3.54-.834V12.08h.333v1.247c0 .366.22.566.58.566s.574-.193.574-.566V12.08h.333v1.253c0 .567-.367.867-.913.867-.534 0-.907-.3-.907-.867Zm2.44.834V12.08h1.52v.308h-1.187v.573h.94v.307h-.94v.6h1.2v.307H15.64v-.008Zm-11.227.913H3.5v2.08h.333v-.76h.527c.036.001.071 0 .107-.007a.657.657 0 0 0-.054-1.313ZM4.38 16.1h-.547v-.712h.547a.357.357 0 1 1 0 .713V16.1Zm7.207-.713v-.307H9.973v.307h.64v1.78h.334v-1.78h.64Zm2.78-.307h-.334v2.087h1.294v-.307h-.96v-1.78Zm-5.494.86c-.36-.067-.547-.113-.54-.287.006-.16.133-.28.366-.3a.704.704 0 0 1 .167 0 .917.917 0 0 1 .54.214l.18-.267c-.173-.153-.467-.26-.773-.26-.487 0-.814.267-.827.633-.013.427.38.52.747.58.413.074.6.114.593.3-.007.174-.153.314-.453.327h-.114a.946.946 0 0 1-.626-.247.08.08 0 0 1-.034-.033l-.193.267c.22.206.52.32.887.32.533 0 .86-.267.873-.654.02-.446-.4-.526-.793-.593Zm-2.346-.9c-.634 0-1.08.467-1.08 1.073 0 .607.446 1.074 1.08 1.074.633 0 1.079-.466 1.079-1.074 0-.608-.44-1.073-1.08-1.073Zm0 1.84c-.454 0-.747-.333-.747-.767 0-.433.287-.766.747-.766s.746.333.746.766c0 .434-.286.767-.746.767Zm5.853-1.8-.887 2.087h.367l.18-.427h1.047l.18.427h.373l-.887-2.087h-.373Zm-.22 1.353.407-.986.406.986h-.813Zm3.86.427v-.593h.887v-.307h-.887v-.573h1.14v-.307h-1.473v2.087h1.48v-.307H16.02Zm-3.333-3.733c0-.607-.447-1.074-1.08-1.074-.634 0-1.08.467-1.08 1.074 0 .606.446 1.073 1.08 1.073.09-.002.178-.01.266-.027l.154.367h.373l-.213-.487a1.08 1.08 0 0 0 .5-.926Zm-1.087.766c-.453 0-.747-.333-.747-.766 0-.434.294-.767.747-.767s.747.333.747.767a.775.775 0 0 1-.3.633l-.087-.193h-.354l.133.32c-.04 0-.086.006-.14.006Z" fill="#fff"/><path d="M3.5 11.167v-2.08h.333v1.78h1.094v.306H3.5v-.006Zm2.893-1.72-.406.986H6.8l-.407-.986Zm.7 1.72-.18-.427h-1.04l-.18.427h-.367l.887-2.08h.366l.887 2.08h-.373Z" fill="#FC0"/><path d="M6.813 3.567c.634.226 1.68.626 2.227 1.12l4-.047c.113-.14.153-.2.273-.36.287-.387.307-.78-.313-.787-.327-.006-5.533.02-6.133.02-.107.008-.174.008-.054.054Zm9.28 1.26-6.954.126c.027.287-.273.694-.906 1.087-.327.2-1.06.593-3.667 1.58-.033.013-.02.053.007.047 4.513-1.147 7.506-2 11.52-2.767.127-.013.2-.067 0-.073ZM11.9 6.06 5.673 7.64c-.014.007-.02.027.006.027l4.827-.154c.293-.013.507-.246.62-.393l.793-1.02c.014-.027.014-.045-.019-.04Z" fill="#fff"/><defs><radialGradient id="a" cx="0" cy="0" r="1" gradientUnits="userSpaceOnUse" gradientTransform="translate(3.714 3.721) scale(16.41)"><stop stop-color="#006CB5"/><stop offset="1" stop-color="#1F3460"/></radialGradient><radialGradient id="b" cx="0" cy="0" r="1" gradientUnits="userSpaceOnUse" gradientTransform="matrix(7.87333 0 0 4.40907 10.784 6.07)"><stop offset=".06" stop-opacity=".5"/><stop offset="1" stop-opacity="0"/></radialGradient></defs></svg>