<svg xmlns="http://www.w3.org/2000/svg" width="48" height="48" fill="none"><g clip-path="url(#a)"><path fill="#141414" d="M10.537 17.305c3.315 3.315 7.725 5.195 12.305 5.537-.308-4.58-2.222-8.99-5.537-12.305C13.989 7.222 9.717 5.342 5 5c.308 4.58 2.222 8.99 5.537 12.305Zm26.797 0c-3.316 3.315-7.725 5.195-12.305 5.537.308-4.58 2.222-8.99 5.537-12.305C33.711 7.222 38.154 5.342 42.871 5c-.342 4.58-2.222 8.99-5.537 12.305Zm0 13.09c-3.316-3.315-7.725-5.195-12.305-5.537.308 4.58 2.222 8.99 5.537 12.305 3.316 3.315 7.725 5.195 12.305 5.537-.342-4.717-2.222-9.16-5.537-12.305Zm-26.797 0c3.315-3.315 7.725-5.195 12.476-5.537-.308 4.58-2.222 8.99-5.538 12.305C13.99 40.478 9.718 42.393 5 42.7c.308-4.717 2.222-9.16 5.537-12.305Z"/></g><defs><clipPath id="a"><path fill="#fff" d="M0 0h48v48H0z"/></clipPath></defs></svg>