<svg xmlns="http://www.w3.org/2000/svg" width="48" height="48" fill="none"><g clip-path="url(#a)"><path fill="#25241D" fill-rule="evenodd" d="M10.69 22.133c-.191.11-.435.01-.52-.196-.364-.84-1.037-1.263-2.015-1.263-.47 0-.847.103-1.129.306-.281.195-.422.442-.422.74 0 .392.206.698.621.92.416.223.975.402 1.678.532 1.204.223 2.083.56 2.639 1.006.563.435.847 1.074.847 1.91 0 .567-.161 1.075-.48 1.52-.32.447-.779.8-1.383 1.061-.593.25-1.283.378-2.072.378-.978 0-1.88-.224-2.708-.67-.761-.418-1.334-1.101-1.722-2.045a.33.33 0 0 1 .134-.401l1.07-.662c.193-.12.446-.017.529.195.206.543.508.968.906 1.28.497.391 1.108.587 1.835.587.594 0 1.067-.107 1.424-.323.357-.216.535-.497.535-.85 0-.354-.164-.652-.494-.865-.329-.223-.916-.402-1.763-.532-2.333-.354-3.5-1.372-3.5-3.057 0-.494.144-.944.436-1.352.302-.419.72-.748 1.256-.992.545-.24 1.17-.36 1.876-.36.875 0 1.64.21 2.3.628a3.26 3.26 0 0 1 1.293 1.51.317.317 0 0 1-.14.401l-1.03.59v.004m14.704 6.437a.34.34 0 0 1-.34.34h-1.25a.338.338 0 0 1-.339-.34v-9.093a.34.34 0 0 1 .34-.34h1.249c.189 0 .34.151.34.34v9.093m11.768 0c0 .188.155.34.34.34v.006h6.132c.188 0 .34-.15.34-.34V27.51a.34.34 0 0 0-.34-.34h-4.241a.338.338 0 0 1-.34-.339v-1.767c0-.189.151-.34.336-.34h3.414a.338.338 0 0 0 .337-.343l-.01-1.06a.337.337 0 0 0-.337-.336c-.617 0-1.637-.007-2.456-.012h-.002l-.946-.006a.338.338 0 0 1-.336-.34v-1.403a.34.34 0 0 1 .34-.34h4.24c.19 0 .34-.15.34-.339v-1.067a.34.34 0 0 0-.34-.34h-6.13a.34.34 0 0 0-.34.34v9.093m-23.38.34a.295.295 0 0 1-.295-.296v-9.182c0-.16.13-.295.295-.295h1.3c.162 0 .296.13.296.295v3.287c0 .127.082.24.202.278.738.227 1.359.34 2.08.34a7.05 7.05 0 0 0 2.134-.34.291.291 0 0 0 .202-.278v-3.287c0-.16.13-.295.295-.295h1.3c.162 0 .296.13.296.295v9.182c0 .161-.13.295-.295.295h-1.3a.295.295 0 0 1-.296-.295v-3.476a.3.3 0 0 0-.367-.291 9.021 9.021 0 0 1-1.97.22 8.578 8.578 0 0 1-1.917-.224.302.302 0 0 0-.368.292v3.476c0 .161-.13.295-.295.295h-1.3l.003.003m21.864-9.488a.284.284 0 0 0-.285-.285h-1.287a.284.284 0 0 0-.284.285v6.68c0 .186-.19.248-.306.1-.538-.68-1.087-1.61-1.65-2.604l-.082-.144-.19-.337-.046-.082c-.445-.79-.895-1.59-1.326-2.223-.267-.392-.556-.765-.868-1.054-.288-.264-.738-.62-1.31-.62h-.752a.284.284 0 0 0-.285.284v9.203c0 .157.127.284.285.284h1.287a.284.284 0 0 0 .284-.284v-5.933c0-.213.265-.285.364-.096.094.174.19.357.286.543.145.277.293.562.445.833l.181.323.104.185c.556.984 1.17 2.034 1.812 2.84.322.406.679.786 1.07 1.071.391.285.882.518 1.448.518h.82a.284.284 0 0 0 .285-.284v-9.203" clip-rule="evenodd"/></g><defs><clipPath id="a"><path fill="#fff" d="M4 19h40v10.046H4z"/></clipPath></defs></svg>